CoelacanthItalicPearl.sfdir
StartChar: exclam
Encoding: 33 33 75
Width: 291
Flags: HW
HStem: -28.557 176.317<121.343 169.433>
VStem: 58.3891 174.639<34.62 81.4493> 86.7953 150.021<515.798 654.482> 112.656 69.6766<209 433.949>
LayerCount: 2
Fore
SplineSet
157.080078125 209 m 21x90
 184.712890625 339 203.54296875 437 216.948242188 533 c 4
 224.344726562 580 213.8828125 604 225.807617188 654 c 5
 322.131835938 664 378.090820312 692 377.31640625 661 c 5xa0
 353.6640625 625 350.775390625 602 330.108398438 533 c 4
 290.458984375 408 255.026367188 342 226.543945312 208 c 13
 157.080078125 209 l 21x90
EndSplineSet
Refer: 48 46 N 1 0 0 1 36.7093 0 2
Substitution2: "pcap-1" exclam.pcap
Substitution2: "smcp-1" exclam.smcp
Position2: "cpsp-1" dx=0 dy=0 dh=50 dv=100
EndChar
StartChar: quotesingle
Encoding: 39 39 79
Width: 200
Flags: HW
HStem: 445.7 254<72.6024 126.312>
VStem: 49.1721 100.57<480.008 699.7> 72.6024 53.7092<445.7 665.664>
LayerCount: 2
Fore
SplineSet
197.8984375 699.700195312 m 9xc0
 298.467773438 699.700195312 l 17xc0
 282.943359375 630.734375 242.692382812 537.034179688 221.047851562 445.700195312 c 9
 167.338867188 445.700195312 l 17xa0
 184.392578125 536.911132812 184.267578125 630.890625 197.8984375 699.700195312 c 9xc0
EndSplineSet
Position2: "cpsp-1" dx=0 dy=0 dh=7 dv=15
Position2: "Extra space for context kern-1" dx=35 dy=7 dh=70 dv=15
EndChar
StartChar: comma
Encoding: 44 44 46
Width: 217
Flags: HW
HStem: -134.937 283.585
VStem: 20.1295 174.45<36.3884 79.9558>
LayerCount: 2
Fore
SplineSet
40.521484375 -134.936523438 m 1
 16.5703125 -82 l 1
 47.9169921875 -63.9091796875 86.048828125 -28 81.9287109375 -12.171875 c 0
 75.9140625 10.939453125 61.1533203125 29.3955078125 38.9169921875 39.1181640625 c 0
 33.505859375 41.4833984375 30.70703125 49.763671875 32.2158203125 56.859375 c 0
 33.7236328125 63.9560546875 39.9345703125 68.6669921875 45.95703125 72.236328125 c 0
 82.216796875 93.728515625 93.5419921875 106.868164062 117.368164062 138.00390625 c 0
 121.631835938 143.575195312 130.189453125 148.649414062 137.287109375 148.649414062 c 3
 144.383789062 148.649414062 148.6953125 142.975585938 151.583984375 138.00390625 c 0
 166.982421875 111.501953125 178.619140625 92.5947265625 197.552734375 84.30078125 c 0
 207.116210938 80.111328125 210.075195312 72.8994140625 208.530273438 65.6337890625 c 0
 198.249023438 17.26171875 130.595703125 -85.9130859375 40.521484375 -134.936523438 c 1
EndSplineSet
Position2: "cpsp-1" dx=0 dy=0 dh=7 dv=16
Position2: "Extra space for context kern-1" dx=78 dy=34 dh=156 dv=66
EndChar
StartChar: period
Encoding: 46 46 48
Width: 217
Flags: HW
HStem: -28.557 176.317<84.6342 132.724>
VStem: 21.6798 174.639<34.62 81.4493>
LayerCount: 2
Fore
SplineSet
195.338867188 39.904296875 m 0
 156.239257812 20.1474609375 145.674804688 11.7705078125 121.919921875 -19.0947265625 c 0
 117.67578125 -24.6787109375 110.53125 -28.556640625 103.435546875 -28.556640625 c 3
 96.3388671875 -28.556640625 88.810546875 -24.501953125 86.607421875 -19.0947265625 c 0
 76.1474609375 5.869140625 69.8369140625 21.7900390625 40.9638671875 41.44921875 c 0
 36.1669921875 44.6494140625 33.00390625 53.27734375 34.5126953125 60.3740234375 c 0
 36.021484375 67.470703125 42.2412109375 72.1953125 48.2548828125 75.75 c 0
 82.1025390625 96.08203125 96.7734375 106.224609375 119.811523438 137.115234375 c 0
 123.958984375 142.756835938 133.815429688 147.759765625 140.913085938 147.759765625 c 3
 148.008789062 147.759765625 153.112304688 142.625976562 155.123046875 137.115234375 c 0
 164.280273438 112.71875 173.802734375 93.50390625 202.629882812 74.2060546875 c 0
 207.458984375 71.0390625 210.33203125 65.9267578125 208.82421875 58.8291015625 c 0
 207.315429688 51.732421875 201.553710938 42.9892578125 195.338867188 39.904296875 c 0
EndSplineSet
Position2: "cpsp-1" dx=0 dy=0 dh=7 dv=16
Position2: "Extra space for context kern-1" dx=78 dy=34 dh=156 dv=66
EndChar
StartChar: one
Encoding: 49 49 64
Width: 485
Flags: W
HStem: -0.65625 55.2236<110.567 192.988 302.558 377.154> 448.641 56.4805<117.524 196.729> 456.085 63.9658<296.311 378.812>
VStem: 206.17 83.4951<76.9742 437.962>
LayerCount: 2
Fore
SplineSet
224.891601562 505.12109375 m 1xd0
 239.020507812 504.19140625 256.178710938 503.76171875 274.959960938 503.76171875 c 0
 350.756835938 503.76171875 452.998046875 510.75390625 489.352539062 520.05078125 c 9
 475.928710938 456.084960938 l 1xb0
 393.037109375 454.317382812 387.076171875 436.859375 382.8515625 423.62890625 c 0
 371.100585938 384.358398438 356.541992188 314.629882812 342.486328125 248.504882812 c 0
 325.079101562 166.608398438 316.658203125 99.6611328125 318.623046875 76.615234375 c 0
 320.18359375 63.2626953125 341.715820312 57.376953125 392.776367188 55.734375 c 9
 377.014648438 -0.65625 l 1
 340.1953125 -0.369140625 299.458984375 -0.2109375 253.758789062 -0.2109375 c 0
 210.684570312 -0.2109375 163.19921875 -0.3515625 110.427734375 -0.65625 c 9
 114.620117188 54.5673828125 l 1
 147.690429688 56.1123046875 205.088867188 69.310546875 209.28515625 75.8779296875 c 0
 223.071289062 99.0400390625 235.127929688 136.235351562 258.991210938 248.504882812 c 0
 280.357421875 349.026367188 283.70703125 370.470703125 289.653320312 419.208984375 c 0
 291.715820312 438.486328125 278.741210938 442.657226562 211.051757812 448.640625 c 9
 224.891601562 505.12109375 l 1xd0
EndSplineSet
Substitution2: "case-1" one.proportionallining
Substitution2: "lnum-1" one.proportionallining
Substitution2: "tnum-1" one.tabulartext
Substitution2: "numr-1" one.numerator
Substitution2: "dnom-1" one.denom
EndChar
StartChar: greater
Encoding: 62 62 333
Width: 533
Flags: HW
LayerCount: 2
Fore
SplineSet
171.650390625 450 m 1
 234.677734375 517.96875 l 1
 534.690429688 276.116210938 l 1
 116.71484375 41 l 1
 93.408203125 100.81640625 l 1
 392.771484375 268.393554688 l 1
 171.650390625 450 l 1
EndSplineSet
Position2: "'case' vertical ajustments for all-caps-1" dx=0 dy=90 dh=0 dv=0
EndChar
StartChar: question
Encoding: 63 63 74
Width: 394
Flags: HW
HStem: -28.557 176.317<150.16 198.249> 578.322 21G<56.1158 69.5997> 585.365 102.961<89.9917 247.776>
VStem: 87.2052 174.639<34.62 81.4493> 128.521 77.6944<214 284.027> 320.34 63.4805<409.408 529.504>
LayerCount: 2
Fore
SplineSet
178.09765625 578.322265625 m 1xcc
 183.6328125 595.481445312 187.723632812 610.983398438 190.702148438 624.993164062 c 0
 200.704101562 672.051757812 186.888671875 691.58984375 189.090820312 701.950195312 c 0
 190.8359375 710.159179688 202.543945312 715.86328125 235.809570312 719.326171875 c 1
 249.65625 688.326171875 272.461914062 688.326171875 301.65625 688.326171875 c 3
 401.528320312 688.326171875 513.783203125 611.426757812 484.604492188 474.154296875 c 0
 462.802734375 371.581054688 386.592773438 318 322.5546875 299 c 0
 276.361328125 283.969726562 260.256835938 274.075195312 251.703125 214 c 1
 251.703125 214 224.234375 209.982421875 186.45703125 209.982421875 c 1
 180.971679688 217.709960938 181 246.89453125 187.844726562 279.09375 c 0
 195.270507812 314.030273438 210.720703125 352.516601562 235.858398438 371 c 0
 288.630859375 406.013671875 396.805664062 359.744140625 419.211914062 465.154296875 c 0
 437.215820312 549.857421875 365.599609375 585.364257812 263.456054688 585.364257812 c 3xac
 236.739257812 585.364257812 207.934570312 582.935546875 178.09765625 578.322265625 c 1xcc
EndSplineSet
Refer: 48 46 N 1 0 0 1 65.5254 0 2
Position2: "cpsp-1" dx=0 dy=0 dh=50 dv=100
Substitution2: "smcp-1" question.smcp
Substitution2: "pcap-1" question.pcap
EndChar
StartChar: at
Encoding: 64 64 874
Width: 838
Flags: HW
HStem: -173.741 73.3281<322.189 543.78> 13.8896 82.458<489.908 602.701> 19.8887 86.4619<278.361 377.836> 477.609 20G<566.224 639.459> 620.438 64.5283<341.011 570.455>
VStem: 18.5762 100.028<101.206 358.006> 195.948 110.668<118.538 238.056> 731.096 84.877<256.505 464.304>
LayerCount: 2
Fore
SplineSet
618.203125 427.319335938 m 1xbf
 590.682617188 356.012695312 567.024414062 272.900390625 552.802734375 195.2890625 c 0
 548.50390625 171.827148438 546.122070312 145.194335938 546.122070312 135.321289062 c 3
 546.122070312 107.881835938 553.170898438 96.34765625 565.099609375 96.34765625 c 3
 585.625976562 96.34765625 624.864257812 110.115234375 659.282226562 151.224609375 c 0
 698.348632812 197.884765625 731.095703125 269.311523438 731.095703125 357.23828125 c 3
 731.095703125 527.4140625 601.89453125 620.438476562 452.172851562 620.438476562 c 3
 241.623046875 620.438476562 118.604492188 452.116210938 118.604492188 216.438476562 c 3
 118.604492188 26.2255859375 270.193359375 -100.413085938 429.877929688 -100.413085938 c 3
 559.11328125 -100.413085938 668.90625 -38.2001953125 747.190429688 47.7666015625 c 1
 764.302734375 34.9677734375 773.955078125 27.748046875 791.067382812 14.94921875 c 1
 710.138671875 -81.8154296875 571.520507812 -173.741210938 416.772460938 -173.741210938 c 3
 215.852539062 -173.741210938 18.576171875 -23.3916015625 18.576171875 216.438476562 c 3
 18.576171875 474.852539062 222.891601562 684.966796875 474.172851562 684.966796875 c 3
 646.473632812 684.966796875 815.97265625 560.233398438 815.97265625 360.5390625 c 3
 815.97265625 242.875976562 732.8515625 147.876953125 688.967773438 100.206054688 c 0
 650.76953125 58.7109375 584.583007812 13.8896484375 519.184570312 13.8896484375 c 3xdf
 460.630859375 13.8896484375 443.391601562 53.306640625 448.497070312 93.8720703125 c 1
 405.141601562 52.0556640625 347.629882812 19.888671875 313.123046875 19.888671875 c 3
 243.599609375 19.888671875 195.948242188 68.6171875 195.948242188 127.10546875 c 3
 195.948242188 261.28515625 291.228515625 386.209960938 377.918945312 427.131835938 c 0
 418.188476562 446.140625 467.838867188 450.052734375 533.553710938 464.948242188 c 0
 546.93359375 467.981445312 561.129882812 483.615234375 566.223632812 493.659179688 c 1
 643.852539062 497.609375 l 1
 635.065429688 473.868164062 626.836914062 450.647460938 618.203125 427.319335938 c 1xbf
499.8359375 399.030273438 m 1
 493.870117188 401.009765625 477.76171875 402.990234375 472.392578125 402.990234375 c 3
 442.759765625 402.990234375 409.14453125 381.688476562 388.2734375 364.310546875 c 0
 347.942382812 330.73046875 306.616210938 262.802734375 306.616210938 172.883789062 c 3
 306.616210938 137.708007812 323.34375 106.350585938 365.03515625 106.350585938 c 3xbf
 391.770507812 106.350585938 427.993164062 132.44140625 452.141601562 157.565429688 c 1
 463.313476562 203.2734375 477.748046875 255.158203125 490.126953125 305.318359375 c 0
 496.936523438 332.911132812 504.180664062 362.430664062 504.180664062 381.614257812 c 3
 504.180664062 389.778320312 502.923828125 395.943359375 499.8359375 399.030273438 c 1
EndSplineSet
Position2: "'case' vertical ajustments for all-caps-1" dx=0 dy=160 dh=0 dv=0
Position2: "cpsp-1" dx=0 dy=0 dh=50 dv=100
EndChar
StartChar: A
Encoding: 65 65 26
Width: 715
Flags: MW
HStem: -177 78.1279<-199.919 -98.3319> 0.542969 50.457<-136.281 -117.822>
VStem: -272.816 98.4385<-124.671 -35.1372>
AnchorPoint: "Ogonek" 446.622 23 basechar 0
AnchorPoint: "Top" 530.622 699 basechar 0
AnchorPoint: "Bottom" 276.622 -15 basechar 0
LayerCount: 2
Fore
SplineSet
270.0234375 252 m 1
 312.874023438 248 419.545898438 255 459.661132812 255 c 1
 458.321289062 332 456.47265625 424 455.225585938 507 c 1
 403.963867188 426 329.552734375 331 270.0234375 252 c 1
422.333984375 -10 m 1
 422.333984375 -10 418.9375 53 418.9375 54 c 1
 439.782226562 60 464.840820312 56.1376953125 464.1015625 83 c 0
 462.9453125 125 462.629882812 146 461.631835938 189 c 1
 385.555664062 190 322.467773438 191 222.26953125 192 c 1
 193.200195312 150 181.739257812 139.184570312 156.864257812 96 c 0
 145.022460938 75.44140625 163.268554688 70 183.0625 64 c 1
 174.758789062 -8 l 1
 145.321289062 -1 109.997070312 1 74.671875 1 c 3
 37.83203125 1 0.9931640625 0 -30.1787109375 -3 c 1
 -30.64453125 14 -31.109375 37 -31.5751953125 61 c 1
 32.451171875 71 39.15625 75.111328125 57.0771484375 97 c 0
 219.182617188 295 339.55078125 462.7890625 439.780273438 599 c 0
 474.443359375 646.107421875 473.778320312 650 491.91015625 689 c 1
 560.91015625 689 l 1
 559.366210938 653 554.047851562 645.3125 554.993164062 600 c 0
 558.576171875 387 558.84765625 276.037109375 567.463867188 80 c 0
 568.575195312 59.6142578125 587.096679688 63 619 59 c 1
 616.758789062 42 612.275390625 17 610.034179688 -2 c 1
 573.283203125 -1 538.829101562 1 506.671875 1 c 3
 477.979492188 1 451.026367188 -1 422.333984375 -10 c 1
EndSplineSet
Position2: "cpsp-1" dx=0 dy=0 dh=50 dv=100
Substitution2: "c2pc-1" a.pcap
Substitution2: "c2sc-1" a.smcp
EndChar
StartChar: C
Encoding: 67 67 28
Width: 726
Flags: HW
HStem: -16 75<283.952 490.565> 616 72<372.172 586.699>
VStem: 640.502 71.5645<501.031 572.494>
AnchorPoint: "Top" 502.525 679 basechar 0
AnchorPoint: "Bottom" 341.925 -15 basechar 0
LayerCount: 2
Fore
SplineSet
53.130859375 320 m 0
 92.029296875 503 254.352539062 688 502.352539062 688 c 3
 570.352539062 688 598.439453125 679 655.038085938 663 c 0
 688.125 654 693.762695312 657 713.100585938 668 c 1
 758 644 l 1
 723.583984375 595 721.758789062 577 712.067382812 522 c 0
 706.416015625 486 686.71484375 478 640.502929688 477 c 1
 624.705078125 525 641.294921875 556 628.419921875 566 c 0
 584.072265625 602 548.047851562 616 485.047851562 616 c 3
 336.047851562 616 208.942382812 512 170.89453125 333 c 0
 131.997070312 150 259.654296875 59 382.654296875 59 c 3
 490.654296875 59 565.282226562 109 616.625 200 c 1
 670.6484375 186 l 1
 653.80859375 135 626.15625 99 601.166015625 52 c 1
 527.7265625 17 457.711914062 -16 366.711914062 -16 c 3
 139.711914062 -16 10.8330078125 121 53.130859375 320 c 0
EndSplineSet
Position2: "cpsp-1" dx=0 dy=0 dh=50 dv=100
Substitution2: "c2pc-1" c.pcap
Substitution2: "c2sc-1" c.smcp
EndChar
StartChar: E
Encoding: 69 69 30
Width: 648
Flags: HW
HStem: -14 65<25.7609 84.9054> 1 76<197.774 476.37> 306 69<256.233 424.226> 612 67<152.125 197.482 303.444 509.41> 667 20G<578.36 597.063>
VStem: 430.32 65.041<262.709 305.992> 524.092 60.0625<531 601.873>
AnchorPoint: "Top" 408.525 679 basechar 0
AnchorPoint: "Ogonek" 451.421 23.6582 basechar 0
AnchorPoint: "Bottom" 265.554 -15 basechar 0
LayerCount: 2
Fore
SplineSet
152.130859375 684 m 5xa6
 215.493164062 681 326.267578125 679 422.267578125 679 c 7xb6
 498.904296875 679 568.961914062 681 587.768554688 687 c 5x2e
 606.368164062 671 611.029296875 660 608.266601562 647 c 4
 605.94921875 629 593.352539062 593 584.16015625 531 c 5
 524.09765625 526 l 5
 525.23046875 554 512.688476562 599.555664062 502.701171875 602 c 4
 472.743164062 609.33203125 432.168945312 612 390.827148438 612 c 7
 368.827148438 612 339.614257812 611 321.401367188 610 c 4
 313.189453125 609 306.551757812 606 304.213867188 595 c 4
 287.909179688 523 271.479492188 441 256.23828125 374 c 5
 292.936523438 376 422.403320312 374 426.509765625 375 c 4
 435.616210938 376 436.1953125 397 450.633789062 429 c 5
 515.237304688 416 l 5
 503.798828125 384 497.575195312 357 494.3515625 327 c 4
 492.203125 307 492.946289062 288 495.3671875 264 c 5
 430.326171875 252 l 5
 417.946289062 295 429.094726562 306 421.094726562 306 c 4
 393.436523438 305 285.84375 304 240.572265625 305 c 5
 222.080078125 218 207.263671875 153 196.935546875 95 c 4
 193.747070312 80 200.321289062 78 206.321289062 78 c 4
 245.321289062 78 287.109375 77 322.109375 77 c 7
 360.109375 77 395.321289062 78 429.534179688 79 c 4
 467.958984375 81 481.998046875 100 531.6015625 164 c 5
 585.712890625 141 l 5
 557.747070312 80 543.858398438 57 519.7421875 0 c 5
 428.104492188 -3 332.955078125 1 241.955078125 1 c 7x76
 161.955078125 1 89.7421875 0 25.7666015625 -14 c 5
 24.5830078125 51 l 5
 64.283203125 59 85.9833984375 67 87.68359375 75 c 5
 95.7607421875 113 120.567382812 225 146.287109375 346 c 4
 173.494140625 474 197.36328125 591 199.701171875 602 c 4
 200.9765625 608 176.9765625 608 142.614257812 611 c 5
 152.130859375 684 l 5xa6
EndSplineSet
Position2: "cpsp-1" dx=0 dy=0 dh=50 dv=100
Substitution2: "c2pc-1" e.pcap
Substitution2: "c2sc-1" e.smcp
EndChar
StartChar: G
Encoding: 71 71 32
Width: 775
Flags: W
HStem: -12 70<307.754 514.134> 284 70<474.622 542.184> 299 65<687.468 732.93> 617 71<377.052 606.935>
AnchorPoint: "Top" 519.817 699 basechar 0
AnchorPoint: "Bottom" 350.514 -15 basechar 0
LayerCount: 2
Fore
SplineSet
52.3623046875 334 m 0xb0
 96.57421875 542 306.607421875 688 515.607421875 688 c 1
 572.607421875 688 610.844726562 675 650.081054688 662 c 0
 671.59375 655 667.418945312 673 674.544921875 683 c 1
 736.607421875 688 l 1
 744 544 l 1
 682.9609375 525 l 1
 668.1875 559 616.516601562 617 491.516601562 617 c 3
 333.516601562 617 210.41015625 513 177.888671875 360 c 1
 137.291015625 169 249.697265625 58 424.697265625 58 c 1
 470.697265625 58 502.248046875 70 529.07421875 88 c 0
 531.499023438 90 535.561523438 95 536.412109375 99 c 0
 545.338867188 141 560.030273438 196 574.333984375 268 c 0
 577.096679688 281 580.309570312 282 543.522460938 283 c 0
 514.734375 284 491.309570312 282 459.734375 284 c 1
 474.614257812 354 l 1xd0
 573.063476562 342 679.826171875 355 740.739257812 364 c 1
 732.922851562 299 l 1
 704.498046875 297 690.435546875 292 687.459960938 278 c 0
 668.879882812 200 657.677734375 152 645.19921875 98 c 0
 643.07421875 88 648.861328125 87 668.735351562 77 c 1
 654.170898438 32 l 1
 569.194335938 18 443.818359375 -12 376.818359375 -12 c 1
 162.818359375 -12 7.7255859375 124 52.3623046875 334 c 0xb0
EndSplineSet
Position2: "cpsp-1" dx=0 dy=0 dh=50 dv=100
Substitution2: "c2pc-1" g.pcap
Substitution2: "c2sc-1" g.smcp
EndChar
StartChar: H
Encoding: 72 72 33
Width: 858
Flags: W
HStem: -7 76<-5.11286 73.3043 188.362 225.573 541.478 601.036 712.992 751.423> 0 69<-5.07228 73.3043> 311 68<248.135 651.894> 615 72<136.629 180.21 305.874 366.087 672.524 708.998> 623 70<828.856 890.879>
AnchorPoint: "Top" 524.49 699 basechar 0
AnchorPoint: "Bottom" 317.664 -15 basechar 0
LayerCount: 2
Fore
SplineSet
138.603515625 687 m 1xb0
 180.903320312 679 222.83984375 674 266.83984375 674 c 3
 300.83984375 674 335.690429688 678 375.965820312 684 c 1
 366.086914062 614 l 1
 346.236328125 610 311.024414062 609 305.598632812 607 c 1
 295.521484375 569 268.69140625 471 248.135742188 379 c 1
 666.135742188 379 l 1
 680.165039062 445 707.685546875 598 709.598632812 607 c 0
 705.874023438 613 686.874023438 613 655.724609375 617 c 1
 674.390625 686 l 1
 708.328125 681 736.477539062 677 764.477539062 677 c 3
 800.477539062 677 837.328125 681 890.87890625 693 c 1
 891 623 l 1
 865.51171875 616 832.9375 618 830.024414062 609 c 0
 801.280273438 502 767.884765625 359 740.890625 232 c 0
 726.01171875 162 714.044921875 101 711.58203125 80 c 0
 710.668945312 71 741.668945312 71 773.668945312 71 c 1
 773.668945312 71 750.301757812 -6 750.088867188 -7 c 1xa8
 710.15234375 -2 671.577148438 0 632.577148438 0 c 3
 602.577148438 0 571.15234375 -2 535.876953125 -8 c 1
 537.340820312 13 538.8671875 39 541.60546875 66 c 1
 575.03125 68 595.03125 68 599.219726562 83 c 0
 622.499023438 169 633.827148438 227 651.89453125 312 c 1
 235.682617188 311 l 1
 218.677734375 231 195.697265625 137 186.793945312 81 c 0
 183.330078125 60 228.456054688 70 247.03125 68 c 1
 247.03125 68 223.876953125 -8 223.6640625 -9 c 1
 179.939453125 -3 143.577148438 0 107.577148438 0 c 3x60
 69.5771484375 0 32.15234375 -2 -8.9111328125 -7 c 1
 -8.9111328125 -7 -5.181640625 67 -4.7568359375 69 c 1
 24.2431640625 69 68.60546875 66 70.5185546875 75 c 0
 100.17578125 191 131.846679688 340 157.991210938 463 c 0
 173.294921875 535 182.7734375 589 181.536132812 602 c 0
 180.874023438 613 154.874023438 613 118.299804688 615 c 1
 138.603515625 687 l 1xb0
EndSplineSet
Position2: "cpsp-1" dx=0 dy=0 dh=50 dv=100
Substitution2: "c2pc-1" h.pcap
Substitution2: "c2sc-1" h.smcp
EndChar
StartChar: M
Encoding: 77 77 38
Width: 897
Flags: W
HStem: -13 74<587.152 658.478> -11 74<-20.4225 48.6417 134.281 171.631 767.102 814.602> -3 21G<342.548 418.437> 610 72<856.357 938.846> 614 79<132.848 170.627>
AnchorPoint: "Top" 531.88 699 basechar 0
AnchorPoint: "Bottom" 375.285 -15 basechar 0
LayerCount: 2
Fore
SplineSet
812.84765625 -11 m 1x50
 777.547851562 -3 740.185546875 0 701.185546875 0 c 3
 664.185546875 0 625.547851562 -3 581.422851562 -13 c 1
 587.151367188 61 l 1x80
 636.915039062 74 658.915039062 74 663.528320312 91 c 0
 699.561523438 237 723.99609375 399 744.627929688 529 c 1
 654.93359375 394 559.600585938 256 476.393554688 128 c 0
 451.31640625 90 428.326171875 43 408.547851562 -3 c 1
 342.547851562 -3 l 1x20
 350.475585938 39 343.702148438 73 335.48046875 119 c 0
 306.614257812 289 241.014648438 512 240.840820312 530 c 1
 203.05859375 404 168.112304688 249 140.416992188 114 c 0
 128.513671875 58 126.403320312 81 195.21484375 66 c 1
 169.272460938 -9 l 1
 139.760742188 -2 105.185546875 0 67.185546875 0 c 3
 37.185546875 0 4.9736328125 -1 -28.15234375 -11 c 1
 -20.4228515625 63 l 1
 45.27734375 71 56.6787109375 87 58.8662109375 102 c 1
 59.2919921875 104 171.2421875 546 172.091796875 550 c 1
 178.98046875 573 179.01953125 592 170.932617188 601 c 0
 164.419921875 608 156.908203125 615 105.6953125 614 c 1
 135.487304688 693 l 1x48
 188.149414062 682 247.874023438 676 302.298828125 678 c 1
 328.51171875 679 332.198242188 654 332.34765625 650 c 0
 358.913085938 488 400.1171875 329 438.958007812 173 c 1
 438.658203125 181 757.260742188 659 758.473632812 660 c 0
 768.44921875 674 783.57421875 684 800.149414062 682 c 0
 849.874023438 676 895.936523438 681 947 686 c 1
 938.845703125 610 l 1
 880.5703125 604 862.12109375 616 858.08203125 597 c 0
 821.010742188 432 800.7890625 271 766.465820312 86 c 0
 762.852539062 69 772.27734375 71 832.639648438 68 c 1
 812.84765625 -11 l 1x50
EndSplineSet
Position2: "cpsp-1" dx=0 dy=0 dh=50 dv=100
Substitution2: "c2pc-1" m.pcap
Substitution2: "c2sc-1" m.smcp
EndChar
StartChar: N
Encoding: 78 78 39
Width: 804
Flags: W
HStem: -13 81<-14.0226 52.1468 142.606 221.01> 0 74<-14.0226 53.8555> 610 68<117.638 153.19 800.19 867.121> 615 76<643.808 711.053>
VStem: 599.06 74.4639<6 47.7811>
AnchorPoint: "Top" 506.526 699 basechar 0
AnchorPoint: "Bottom" 364.689 -15 basechar 0
LayerCount: 2
Fore
SplineSet
117.637695312 684 m 1x48
 144.637695312 684 198.51171875 674 234.51171875 674 c 0
 254.51171875 674 262.749023438 661 266.685546875 656 c 0
 384.913085938 483 492.643554688 350 631.91015625 196 c 1
 654.740234375 294 670.706054688 355 693.662109375 463 c 0
 699.401367188 490 704.927734375 516 710.2421875 541 c 0
 729.28515625 640 685.6328125 604 620.970703125 615 c 1
 646.125 691 l 1x58
 704 681 754.362304688 678 806.362304688 678 c 3
 827.362304688 678 849.57421875 679 873 681 c 1
 867.12109375 611 l 1
 822.845703125 605 806.396484375 617 804.908203125 610 c 0
 754.073242188 432 719.677734375 289 678.016601562 93 c 0
 672.27734375 66 672.413085938 29 673.524414062 6 c 1
 599.060546875 -15 l 1
 591.262695312 33 565.915039062 69 539.779296875 106 c 0
 439.75 247 341.194335938 362 230.1015625 498 c 1
 228.401367188 490 152.557617188 152 149.069335938 145 c 1
 124.813476562 45 155.403320312 76 247.702148438 68 c 1
 218.485351562 -13 l 1xa8
 180.3984375 -4 142.249023438 0 107.249023438 0 c 3
 65.2490234375 0 24.185546875 -5 -22.08984375 -11 c 1
 -14.0224609375 74 l 1
 34.552734375 72 46.8525390625 64 52.31640625 85 c 0
 85.248046875 207 112.1796875 329 138.961914062 455 c 0
 147.251953125 494 151.502929688 514 158.729492188 548 c 1
 164.255859375 574 158.908203125 610 97.845703125 605 c 1
 117.637695312 684 l 1x48
EndSplineSet
Position2: "cpsp-1" dx=0 dy=0 dh=50 dv=100
Substitution2: "c2pc-1" n.pcap
Substitution2: "c2sc-1" n.smcp
EndChar
StartChar: P
Encoding: 80 80 41
Width: 640
Flags: W
HStem: -15 69<10.5919 70.0803> -11 73<188.42 252.447> 198 68<222.074 387.602> 205 67<221.441 257.048> 609 72<130.403 174.095> 618 68<287.061 456.836>
AnchorPoint: "Top" 401.266 699 basechar 0
AnchorPoint: "Bottom" 143.699 -15 basechar 0
LayerCount: 2
Fore
SplineSet
281.171875 266 m 1x20
 404.171875 266 502.963867188 345 523.369140625 441 c 1
 537.397460938 507 500.426757812 573 458.528320312 597 c 0
 438.078125 609 395.779296875 617 364.991210938 618 c 0
 331.204101562 619 287.440429688 606 287.015625 604 c 0
 274.349609375 535 247.166015625 393 221.447265625 272 c 1x14
 239.171875 266 259.171875 266 281.171875 266 c 1x20
132.3828125 681 m 1x88
 161.532226562 677 177.107421875 675 218.107421875 675 c 1
 293.107421875 675 325.4453125 686 398.4453125 686 c 1
 563.4453125 686 656.213867188 572 629.431640625 446 c 1
 607.963867188 345 495.717773438 198 257.717773438 198 c 1x24
 243.717773438 198 218.780273438 203 209.206054688 205 c 1
 198.514648438 150 189.82421875 95 187.1484375 73 c 0
 185.384765625 60 236.72265625 71 272.810546875 62 c 1
 250.293945312 -11 l 1x50
 205.418945312 -1 170.631835938 0 135.631835938 0 c 3
 101.631835938 0 66.84375 1 11.443359375 -15 c 1
 3.109375 54 l 1
 67.5732421875 75 67.384765625 60 69.935546875 72 c 0
 76.7373046875 104 83.5390625 136 92.6796875 179 c 0
 126.262695312 337 166.774414062 537 176.228515625 605 c 0
 177.291015625 610 165.078125 609 112.078125 609 c 1
 132.3828125 681 l 1x88
EndSplineSet
Position2: "cpsp-1" dx=0 dy=0 dh=50 dv=100
Substitution2: "c2pc-1" p.pcap
Substitution2: "c2sc-1" p.smcp
EndChar
StartChar: Q
Encoding: 81 81 42
Width: 786
Flags: HW
HStem: -171 74<614.642 752.132> -12 82<299.69 376.925> 619 73<356.095 535.886>
AnchorPoint: "Top" 480.525 679 basechar 0
AnchorPoint: "Middle" 402.727 347.853 basechar 0
AnchorPoint: "Bottom" 258.553 -15 basechar 0
LayerCount: 2
Fore
SplineSet
432.231445312 619 m 3
 333.231445312 619 205.55078125 517 171.329101562 356 c 0
 134.982421875 185 255.538085938 70 390.538085938 70 c 3
 501.538085938 70 625.856445312 175 656.889648438 321 c 0
 696.42578125 507 581.231445312 619 432.231445312 619 c 3
497.3984375 27 m 1
 551.755859375 -56 638.041015625 -97 705.041015625 -97 c 3
 725.041015625 -97 742.25390625 -96 751.25390625 -96 c 1
 757.775390625 -150 l 1
 735.86328125 -159 695.3125 -171 648.3125 -171 c 3
 529.3125 -171 435.490234375 -109 363.108398438 -12 c 1
 125.108398438 -12 20.54296875 150 59.228515625 332 c 0
 103.65234375 541 287.748046875 692 482.748046875 692 c 3
 678.748046875 692 808.140625 548 767.541992188 357 c 0
 735.87109375 208 625.388671875 74 497.3984375 27 c 1
EndSplineSet
Position2: "cpsp-1" dx=0 dy=0 dh=50 dv=100
Substitution2: "salt-1" Q.alt
Substitution2: "c2pc-1" q.pcap
Substitution2: "c2sc-1" q.smcp
EndChar
StartChar: R
Encoding: 82 82 43
Width: 707
Flags: HMW
AnchorPoint: "Top" 381.525 679 basechar 0
AnchorPoint: "Bottom" 340.125 -15 basechar 0
LayerCount: 2
Fore
SplineSet
220.017578125 360 m 1
 245.805664062 359 274.379882812 357 302.379882812 357 c 3
 375.379882812 357 466.0703125 412 483.5 494 c 0
 498.8046875 566 449.495117188 621 379.495117188 621 c 3
 323.495117188 621 270.993164062 613.255859375 268.393554688 597 c 0
 265.35546875 578 235.959960938 435 220.017578125 360 c 1
116.97265625 675 m 1
 159.760742188 674 185.547851562 673 223.547851562 673 c 3
 283.547851562 673 313.586914062 692 383.586914062 692 c 3
 508.586914062 692 616.557617188 626 590.201171875 502 c 0
 569.158203125 403 483.829101562 345 420.665039062 316 c 1
 504.216796875 121 580.637695312 43 695 40 c 1
 665.333007812 -29 l 1
 491.18359375 -25 349.71875 161 304.776367188 293 c 1
 293.564453125 292 281.3515625 291 266.3515625 291 c 3
 242.3515625 291 224.776367188 293 205.989257812 294 c 1
 193.59765625 231 173.405273438 136 161.501953125 80 c 0
 158.73828125 67 183.313476562 65 228.1015625 64 c 1
 198.521484375 -14 l 1
 165.647460938 -4 129.497070312 0 92.4970703125 0 c 3
 58.4970703125 0 22.6474609375 -4 -14.265625 -13 c 1
 -11.8984375 64 l 1
 42.888671875 63 52.0771484375 78 52.6513671875 76 c 1
 81.033203125 186 98.1875 262 114.553710938 339 c 0
 131.771484375 420 144.799804688 486 164.90625 590 c 1
 166.09375 605 153.881835938 604 102.306640625 606 c 1
 116.97265625 675 l 1
EndSplineSet
Position2: "cpsp-1" dx=0 dy=0 dh=50 dv=100
Substitution2: "salt-1" R.alt
Substitution2: "c2pc-1" r.pcap
Substitution2: "c2sc-1" r.smcp
EndChar
StartChar: S
Encoding: 83 83 44
Width: 563
Flags: HW
HStem: -14 77<171.634 343.191> -1 21G<3.28672 68.9244> 613 74<279.446 459.37>
VStem: 3.28672 62.1494<2.54947 24.1148> 20.9723 69.125<145.497 185>
AnchorPoint: "Top" 385.525 679 basechar 0
AnchorPoint: "Bottom" 229.862 -15 basechar 0
LayerCount: 2
Fore
SplineSet
20.97265625 185 m 1x68
 90.09765625 195 l 1
 110.895507812 147 116.64453125 127 127.943359375 119 c 0
 146.9921875 91 206.041015625 63 255.041015625 63 c 3
 351.041015625 63 388.880859375 114 400.784179688 170 c 0
 417.36328125 248 305.291015625 290 224.943359375 326 c 0
 205.643554688 334 95.783203125 377 122.352539062 502 c 0
 141.6953125 593 249.67578125 687 386.67578125 687 c 3
 449.67578125 687 486.337890625 676 509.211914062 666 c 0
 521.149414062 661 513.57421875 663 526.400390625 681 c 1
 584 665 l 1
 564.985351562 632 561.372070312 615 559.333007812 596 c 0
 551.478515625 512 546.801757812 490 476.71484375 499 c 1
 472.98046875 552 479.869140625 575 465.419921875 587 c 0
 449.18359375 600 417.946289062 613 360.946289062 613 c 3
 301.946289062 613 235.719726562 579 224.2421875 525 c 0
 209.575195312 456 265.599609375 442 405.145507812 374 c 0
 507.517578125 324 511.513671875 244 497.91015625 180 c 0
 480.267578125 97 399.673828125 -14 221.673828125 -14 c 3xa8
 177.673828125 -14 124.649414062 0 79.9638671875 25 c 1
 79.2626953125 17 72.4130859375 13 65.4365234375 -1 c 1
 3.287109375 3 l 1x70
 21.37890625 74 18.228515625 78 20.97265625 185 c 1x68
EndSplineSet
Position2: "cpsp-1" dx=0 dy=0 dh=50 dv=100
Substitution2: "c2pc-1" s.pcap
Substitution2: "c2sc-1" s.smcp
EndChar
StartChar: T
Encoding: 84 84 45
Width: 684
Flags: HMW
AnchorPoint: "Top" 425.525 679 basechar 0
AnchorPoint: "Bottom" 294.49 -15 basechar 0
LayerCount: 2
Fore
SplineSet
198.380859375 680 m 0
 328.380859375 680 463.956054688 678 597.956054688 678 c 3
 631.956054688 678 665.956054688 678 698.956054688 678 c 0
 719.956054688 678 730.931640625 692 742.26953125 703 c 1
 784.467773438 671 l 1
 758.965820312 631 727.975585938 584 718.7734375 536 c 1
 645.323242188 548 l 1
 670.014648438 603 l 1
 644.014648438 603 532.864257812 607 472.077148438 608 c 1
 439.043945312 462 399.971679688 297 368.30078125 148 c 0
 364.900390625 132 360.649414062 112 358.310546875 101 c 0
 349.595703125 60 339.997070312 76 454.296875 68 c 1
 427.9296875 -9 l 1
 396.842773438 0 354.267578125 2 309.267578125 2 c 3
 245.267578125 2 178.055664062 1 130.8671875 -14 c 1
 134.233398438 63 l 1
 205.659179688 65 239.572265625 74 241.059570312 81 c 0
 260.126953125 166 310.165039062 392 338.647460938 526 c 0
 346.086914062 561 352.250976562 590 357.290039062 609 c 1
 313.077148438 608 251.077148438 608 199.864257812 607 c 0
 155.864257812 607 162.352539062 614 110.411132812 539 c 1
 44 570 l 1
 75.927734375 612 121.231445312 684 149.095703125 721 c 1
 167.26953125 703 184.380859375 680 198.380859375 680 c 0
EndSplineSet
Position2: "cpsp-1" dx=0 dy=0 dh=50 dv=100
Substitution2: "c2pc-1" t.pcap
Substitution2: "c2sc-1" t.smcp
EndChar
StartChar: W
Encoding: 87 87 55
Width: 992
Flags: HW
HStem: -8 20G<127.129 195.739 506.044 573.835> 616 74<264.846 316.631 474.862 503.127 640.172 686.517 854.215 921.854> 672 20G<81.8567 98.1987>
VStem: 136.854 114.949<151 590.799> 509.258 120.608<175 349.212> 516.425 119.325<178.621 378 431.275 598.489>
AnchorPoint: "Top" 587.525 679 basechar 0
AnchorPoint: "Bottom" 360.866 -15 basechar 0
LayerCount: 2
Fore
SplineSet
1106.94238281 690 m 1xd8
 1103.91308594 624 l 1
 1036.74902344 595 1050.81542969 617 980.388671875 528 c 1
 776.295898438 268.390625 705.16015625 182.424804688 609.549804688 44 c 0
 591.956054688 18.5283203125 591.66796875 17.5849609375 573.834960938 -6 c 1
 504.775390625 -9 l 1
 507.311523438 11 507.975585938 31.6787109375 509.2578125 66 c 0xd8
 513.141601562 170 513.518554688 276 516.424804688 378 c 1
 359.044921875 200 219.168945312 30.4794921875 212.666015625 22 c 0
 201.685546875 7.681640625 201.348632812 4.9541015625 190.12890625 -8 c 1
 127.12890625 -8 l 1
 130.279296875 31 133.762695312 36.8740234375 136.853515625 113 c 0
 141.400390625 225 141.932617188 472.83203125 137.86328125 552 c 0
 137.344726562 562.08203125 135.202148438 587.6171875 124.752929688 597 c 0
 108.048828125 612 93.3623046875 612 69 615 c 1
 86.3671875 692 l 1xb4
 110.029296875 681 152.966796875 676 197.966796875 676 c 3
 241.966796875 676 287.87890625 685 315.942382812 690 c 1
 323.212890625 616 l 1
 280.299804688 607 272.866210938 602 260.634765625 591 c 0
 256.006835938 586.837890625 253.409179688 574.3046875 253.513671875 559 c 1
 253.880859375 502.862304688 253.232421875 207.137695312 251.802734375 151 c 1
 266.577148438 168.587890625 504.083007812 438.619140625 511.84765625 450 c 1
 516.064453125 554.676757812 513.408203125 588.459960938 503.512695312 599 c 0
 495.375976562 607.666992188 480.971679688 608 462.212890625 611 c 1
 476.091796875 686 l 1
 499.81640625 680 540.966796875 676 577.966796875 676 c 3
 615.966796875 676 655.81640625 680 686.516601562 688 c 1
 688 615 l 1
 681.575195312 613 672.109375 611.204101562 661.724609375 609 c 0
 642.875 605 633.987304688 592 635.75 580 c 1xd4
 636.6171875 509.482421875 631.688476562 218.834960938 629.866210938 175 c 1
 731.502929688 305.1328125 840.549804688 444.498046875 913.569335938 554 c 0
 947.578125 605 909.512695312 608 837.575195312 613 c 1
 855.87890625 685 l 1
 883.81640625 680 923.178710938 677 967.178710938 677 c 3
 1010.17871094 677 1059.02929688 681 1106.94238281 690 c 1xd8
EndSplineSet
Position2: "cpsp-1" dx=0 dy=0 dh=50 dv=100
Substitution2: "c2pc-1" w.pcap
Substitution2: "c2sc-1" w.smcp
EndChar
StartChar: Y
Encoding: 89 89 57
Width: 674
Flags: HW
HStem: -6 72<157.515 264.493 380.259 450.252> 604 74<268.656 312.854 660.258 737.512> 611 75<268.749 313.725 558.944 575.41 668.265 737.512>
AnchorPoint: "Top" 441.525 679 basechar 0
AnchorPoint: "Bottom" 306.909 -15 basechar 0
LayerCount: 2
Fore
SplineSet
313.724609375 611 m 1xa0
 294.9375 612 290.236328125 604 279.236328125 604 c 0
 277.236328125 604 267.8984375 593 268.685546875 592 c 1
 304.091796875 481 361.686523438 385 379.822265625 348 c 1
 432.850585938 414 579.173828125 599 578.111328125 594 c 1
 583.173828125 599 587.662109375 606 575.874023438 607 c 0
 566.086914062 608 549.086914062 608 539.149414062 613 c 1
 560.091796875 688 l 1
 580.028320312 683 619.752929688 677 661.752929688 677 c 3
 690.752929688 677 721.81640625 682 744.303710938 689 c 1
 737.51171875 610 l 1
 698.51171875 610 681.024414062 603 668.260742188 590 c 1
 583.319335938 515 484.387695312 393 415.706054688 291 c 1
 405.779296875 249 393.426757812 205 378.557617188 88 c 0
 377.15625 72 421.518554688 69 473.880859375 66 c 1
 449.577148438 -6 l 1
 397.852539062 0 347.852539062 0 298.852539062 0 c 3
 253.852539062 0 207.852539062 0 157.514648438 -11 c 1
 155.243164062 63 l 1
 227.15625 72 266.64453125 79 267.833007812 94 c 1
 268.470703125 97 300.330078125 261 301.967773438 264 c 1
 285.981445312 297 227.778320312 456 141.473632812 591 c 1
 139.38671875 600 114.024414062 603 85 617 c 1
 105.87890625 687 l 1
 137.028320312 683 184.965820312 678 228.965820312 678 c 3xc0
 263.965820312 678 297.390625 680 320.666015625 686 c 1
 313.724609375 611 l 1xa0
EndSplineSet
Position2: "cpsp-1" dx=0 dy=0 dh=50 dv=100
Substitution2: "c2pc-1" y.pcap
Substitution2: "c2sc-1" y.smcp
EndChar
StartChar: a
Encoding: 97 97 0
Width: 491
VWidth: 1159
Flags: HMW
AnchorPoint: "Bottom" 223.181 -15 basechar 0
AnchorPoint: "Top" 326.66 537 basechar 0
LayerCount: 2
Fore
SplineSet
316.288349609 390.620439454 m 1
 310.615869141 391.847392579 301.007939454 393.07515625 295.946796875 393.07515625 c 3
 274.910205078 393.07515625 238.694736328 381.731855469 217.860039062 365.19 c 0
 165.264677734 322.147451171 109.060039062 242.003251953 109.060039062 148.71 c 3
 109.060039062 112.454873047 124.538867188 80.2 154.060039062 80.2 c 3
 178.54109375 80.2 221.269208984 120.459091797 251.646923828 162.51 c 0
 267.349101563 186.148251953 279.288701172 215.818603515 290.530039062 258.44 c 0
 306.696826172 317.152216797 322.80602539 383.994316406 316.288349609 390.620439454 c 1
362.348554688 174.03125 m 0
 356.956601562 147.294179687 352.860957031 120.114580078 353.093955078 113.131679687 c 0
 353.962451172 90.1933496094 360.136445313 83.35 369.019960937 83.35 c 3
 382.379921874 83.35 421.667080078 115.656611328 436.030039062 131.81 c 1
 474.66 83.2978515625 l 1
 439.764492188 47.2744140625 387.060820312 -11 329.48328125 -11 c 3
 293.067421875 -11 275.210966796 25.7970800781 275.210966796 53.67421875 c 3
 275.210966796 62.7286425781 275.818076172 73.3687207031 277.260039062 85.04 c 1
 225.035009766 31.3215917969 160.393632812 -10 122.512070312 -10 c 3
 63.813046875 -10 18.2586328125 48.7734375 18.2586328125 119.466796875 c 3
 18.2586328125 198.615234375 65.1033398438 282.031816406 101.004726562 333.094726562 c 0
 132.508828126 377.8984375 180.950449218 411.080175782 205.702412109 428.67578125 c 0
 246.752978515 457.700195312 290.381474609 478.792988281 346.790039062 486 c 0
 362.676875 488.0334375 371.389511718 494.280078125 383.520742188 501.711015625 c 1
 461.735195312 505 l 1
 425.500039062 417.09 387.045048829 298.967470703 362.348554688 174.03125 c 0
EndSplineSet
Substitution2: "pcap-1" a.pcap
Substitution2: "smcp-1" a.smcp
EndChar
StartChar: b
Encoding: 98 98 1
Width: 486
VWidth: 1159
Flags: HMW
AnchorPoint: "Bottom" 143.181 -15 basechar 0
LayerCount: 2
Fore
SplineSet
166.899853515 316.64 m 1
 149.503632813 242.632626953 134.398789062 186.24633789 121.979863281 125.16 c 1
 122.690117187 112.095 124.825917969 105.817626954 128.043896485 99.03 c 0
 136.515371094 83.7475 152.245029297 73.56 169.805830078 73.56 c 3
 263.290820312 73.56 384.036494141 187.477412109 382.612451172 331.688144531 c 0
 382.192128906 374.983964843 355.717539063 406.78 312.702441406 406.78 c 3
 259.931933594 406.78 200.854667969 355.997675781 166.899853515 316.64 c 1
134.808671875 705.29 m 1
 150.605273437 723.888417969 188.344179688 738.944208984 226.083896484 754 c 1
 259.898291015 736.777441406 278.794013672 714.388115234 296.468701172 692.86 c 1
 266.262314453 672.219169921 236.628583985 582.896982421 189.661982422 415.96 c 1
 212.099853516 435.613378906 296.343476562 491 360.101982422 491 c 3
 421.329521484 491 466.125771484 434.750166016 468.936943359 367.098632812 c 0
 476.421142578 185.670898438 285.112441407 -9 137.935810546 -9 c 3
 87.4328125 -9 75.9388867187 10.3358398437 58.23453125 13.68 c 0
 42.4793457031 16.7488574219 23.2980566406 18.66 16.8469042969 18 c 1
 -0.154072265625 32 l 1
 45.7502246094 163.1015625 110.543027344 459.951171875 126.699277344 539 c 0
 134.737363281 578.329101562 138.874375 616.425634765 138.608496094 643.23 c 0
 138.84100586 665.279169922 137.110888672 686.016689453 134.808671875 705.29 c 1
EndSplineSet
Substitution2: "pcap-1" b.pcap
Substitution2: "smcp-1" b.smcp
EndChar
StartChar: c
Encoding: 99 99 2
Width: 417
VWidth: 1159
Flags: HMW
AnchorPoint: "Top" 298.66 537 basechar 0
AnchorPoint: "Bottom" 171.181 -15 basechar 0
LayerCount: 2
Fore
SplineSet
350.212929687 372.42 m 1
 330.868149274 390.47993164 303.093275786 421.95 264.2125 421.95 c 3
 192.166391745 421.95 120.302943275 330.301287063 128.012861329 174.219638671 c 0
 130.776198561 119.44329527 158.859869791 78.88 207.332929688 78.88 c 3
 243.422468911 78.88 276.824546297 99.6053669088 297.132929687 115.15 c 1
 332.932734146 68.3554128943 l 1
 304.575170501 38.868195026 238.705093859 -7 175.867294856 -7 c 3
 119.842821099 -7 36.6162637137 30.8231922673 31.4317499129 154.107360732 c 0
 23.8370297068 334.712921584 171.100594219 507 299.709963051 507 c 3
 353.923902545 507 400.346674385 472.643569323 413.972699652 434.005911636 c 1
 407.770003604 413.827116428 391.432592679 387.232868452 350.212929687 372.42 c 1
EndSplineSet
Substitution2: "pcap-1" c.pcap
Substitution2: "smcp-1" c.smcp
EndChar
StartChar: d
Encoding: 100 100 3
Width: 531
VWidth: 1159
Flags: HMW
AnchorPoint: "Bottom" 225.181 -15 basechar 0
LayerCount: 2
Fore
SplineSet
304.70241211 88.98 m 1
 255.001347656 41.725 180.622851563 -9 134.424960938 -9 c 3
 65.7083300781 -9 22.23453125 49.6953125 18.3663671875 132.672851562 c 0
 11.66421875 276.461914062 183.654648438 485 359.825546875 485 c 3
 370.046738281 485 383.796152343 480.728476563 389.095546875 474.45 c 1
 401.832207031 523.765390625 411.512226562 581.207021484 411.005546875 592.56 c 0
 409.472666016 625.633007812 395.377265625 635.210400391 382.38118164 635.210400391 c 3
 377.866923828 635.210400391 349.686298828 630.298232422 338.499169922 629.360400391 c 1
 335.561669922 692.311845703 l 1
 392.311347657 702.850654297 468.885 735.425410156 517.919726562 768 c 1
 537.45 750 l 1
 533.867119141 704.530341797 469.508740234 389.288417969 404.631914063 183.143964844 c 0
 394.53428711 151.026611329 386.210878906 117.589189453 387.289804688 101.021230469 c 0
 387.910888672 91.559609375 392.322626953 83.86 403.27352539 83.86 c 3
 416.495175781 83.86 448.889414062 100.89 470.955546875 120.3 c 1
 506.2075 69 l 1
 466.230009766 27 391.832480469 -11 354.434726562 -11 c 3
 319.191318359 -11 303.800507812 9.52657226562 301.91046875 40.1328125 c 0
 300.954697266 55.4219824219 301.74625 71.8398828125 304.70241211 88.98 c 1
315.005546875 397.46 m 3
 229.367158203 397.46 106.254316406 301.833496094 110.387421875 168.631796875 c 0
 111.89859375 119.324179688 131.208789063 78.54 163.065546875 78.54 c 3
 207.032490234 78.54 301.95743164 155.318994141 322.585546875 221.09 c 0
 337.795507812 269.585117188 360.245175781 349.092763672 363.29727539 378.837958984 c 0
 364.307373047 388.891972657 329.8803125 397.46 315.005546875 397.46 c 3
EndSplineSet
Substitution2: "pcap-1" d.pcap
Substitution2: "smcp-1" d.smcp
EndChar
StartChar: e
Encoding: 101 101 4
Width: 437
VWidth: 1159
Flags: HMW
AnchorPoint: "Bottom" 179.181 -15 basechar 0
AnchorPoint: "Top" 269.66 537 basechar 0
LayerCount: 2
Fore
SplineSet
263.713046875 505 m 3
 326.4259375 505 394.292832032 434.473710938 397.6525 362.639570312 c 0
 397.960117188 355.06288086 400.34 344.779521484 406.34 342.072851562 c 1
 402.360507812 281.556640625 l 1
 336.818505859 260.106376953 232.171943359 225.659746094 132.558740234 196.166308594 c 1
 132.477685547 191.106738281 132.058496093 186.481572265 132.401513672 178.508105469 c 0
 135.429228516 108.2728125 164.374902343 69.24 208.978242188 69.24 c 3
 254.305097656 69.24 293.229218749 92.9515234375 325.69390625 128.15 c 1
 370.84390625 86 l 1
 328.522617188 38.640625 262.819492188 -10 179.12515625 -10 c 3
 89.697421875 -10 39.9846972656 62.21484375 36.2413671875 154.005859375 c 0
 27.82828125 360.290039062 190.887851562 505 263.713046875 505 c 3
240.780644531 419.592548829 m 3
 201.907871094 419.592548829 149.305224609 361.453476562 136.075986329 263.280263671 c 1
 172.006748047 272.33109375 284.611083984 306.239316406 302.861982421 313.878154296 c 0
 310.830830078 317.228251953 312.167509766 326.342441406 311.360849609 335.029052734 c 1
 310.140976563 391.615048828 279.509257812 419.592548829 240.780644531 419.592548829 c 3
EndSplineSet
Substitution2: "pcap-1" e.pcap
Substitution2: "smcp-1" e.smcp
EndChar
StartChar: f
Encoding: 102 102 5
Width: 400
VWidth: 1159
Flags: HMW
LayerCount: 2
Fore
SplineSet
478.822314453 754 m 3
 517.406767578 754 600.182451172 728.460361328 625.168525391 706.85 c 1
 619.693945312 673.068466797 609.838857422 664.310703126 552.899550782 631.78 c 1
 510.027880859 649.680058594 464.774443359 680.57 420.711484375 680.57 c 3
 329.118535157 680.57 293.866621094 603.122275391 255.152031249 499.02 c 0
 252.263486329 490.790341797 234.734570312 434.960566407 225.453447266 397 c 1
 252.215166016 397.963642578 365.079423829 409.526357422 391.841142579 410.49 c 1
 384.376845703 342.87 l 1
 358.625458984 343.331611328 239.230302734 335.388388672 213.477939453 336.02 c 1
 191.257597657 235.346523437 151.437060547 21.5851464844 126.415087891 -53 c 0
 108.487646485 -102.897255859 81.3137402344 -138.10421875 51.1856738281 -171 c 1
 37.432734375 -170.17 38.8078808594 -169.34 -18.9551464844 -169.34 c 3
 -38.5529199219 -169.34 -68.4164648437 -173.068066406 -79.6160058594 -174 c 1
 -85.4333886719 -112.36 l 1
 -39.1988867187 -105.904169922 -11.5720996094 -92.7835839844 10.5496582031 -60 c 0
 55.123125 9.5469921875 91.9274707032 199.517656249 119.654228516 330.53 c 1
 96.9406542969 329.49 75.2136230469 326.03 52.5000488281 322.21 c 1
 47.4874316406 389.66 l 1
 75.0779003906 388.585 103.869267578 394.16 131.459736329 393.17 c 1
 139.128681641 431.154375 149.448291015 483.846621094 151.057392579 493.17 c 0
 175.708388672 627.608466796 232.493447266 669.784960938 315.012236329 713.68 c 0
 357.980410156 736.187207031 409.65875 754 478.822314453 754 c 3
EndSplineSet
Substitution2: "salt-1" f.alt
Substitution2: "pcap-1" f.pcap
Substitution2: "smcp-1" f.smcp
EndChar
StartChar: g
Encoding: 103 103 6
Width: 503
VWidth: 1159
UnlinkRmOvrlpSave: 1
Flags: HMW
AnchorPoint: "Top" 302.66 537 basechar 0
LayerCount: 2
Back
SplineSet
131 114 m 1
 137.538085938 102.666992188 150.615234375 80 216 80 c 3
 252.701171875 80 288.290039062 92 335 92 c 3
 420.647460938 92 463 34.0810546875 463 -22 c 3
 463 -128.624023438 267 -177 183 -177 c 3
 72 -177 22 -111 22 -59 c 3
 22 6.8603515625 72.392578125 47.1826171875 100 66 c 1
 70.638671875 87.767578125 59.8720703125 113.720703125 54 138 c 1
 88.056640625 151.713867188 96.1591796875 163.857421875 165 170 c 1
 84.54296875 193.67578125 37 249.549804688 37 313 c 3
 37 435 154 514 230 514 c 3
 272.482421875 514 313.875 504 352 486 c 1
 375.450195312 488 394.712890625 487 419 487 c 3
 447.983398438 487 453.466796875 486 466 486 c 1
 465.454101562 480.76171875 462 431 462 431 c 1
 445 431 430.331054688 428.278320312 414 431 c 0
 408 432 404 431 399 431 c 1
 420 404.103515625 434 357.389648438 434 322 c 3
 434 225.979492188 339.548828125 167.819335938 264 142 c 0
 212.301757812 124.33203125 145.77734375 117.818359375 131 114 c 1
231 458 m 3
 178.216796875 458 93 396.286132812 93 314 c 3
 93 242.352539062 212 194 251 198 c 1
 304.622070312 217.155273438 378 252 378 321 c 3
 378 366.341796875 343.982421875 458 231 458 c 3
78 -58 m 3
 78 -86.25 109.993164062 -121 184 -121 c 3
 279.171875 -121 407 -68.23046875 407 -25 c 3
 407 18.3779296875 377.5 36 336 36 c 3
 291.25390625 36 277.559570312 24 216 24 c 3
 193.456054688 24 159.102539062 32 143 34 c 1
 93.7578125 4.1962890625 78 -32 78 -58 c 3
EndSplineSet
Fore
SplineSet
403.935898437 454.686523438 m 1
 436.277695312 464.502929688 469.193710937 469 496.223984374 469 c 3
 514.359726562 469 538.54055664 467 544.586289062 463 c 1
 514.485898438 374.14 l 1
 495.621816406 384.356445313 475.653095704 393.561464844 450.180527344 393.561464844 c 0
 443.316064453 393.561464844 436.283496094 392.843398438 429.065898437 391.334013671 c 1
 427.846162109 391.388828125 403.004316406 454.368378906 403.935898437 454.686523438 c 1
440.587265624 354.936523438 m 1
 409.922128906 212.35 264.004746094 182.98 198.14508789 144.39 c 0
 180.984121094 134.332636718 165.5715625 123.726201172 149.715898437 114.92 c 1
 145.375898437 113.58 153.545898438 136.788173828 156.545898438 131.77 c 1
 163.191455078 122.689804688 169.728242188 115.41 194.075898438 115.41 c 3
 237.120693359 115.41 290.085712891 133.3 332.935898437 133.3 c 3
 415.403671874 133.3 442.124375 68.0270410156 434.935898437 18 c 1
 405.916367187 -118 218.335478516 -174 104.392929688 -174 c 3
 -9.15448242188 -174 -48.1863183594 -114.356445312 -41.0899609375 -63.083984375 c 1
 -32.4844921875 4.80034179688 42.954453125 49.1852246094 91.4647265625 70.81296875 c 1
 92.8379687501 71.4983789062 145.523320312 40.4168652344 144.185898438 39.83 c 1
 97.6237207031 22.7616113281 60.1134570313 -10.5146289063 52.3658984375 -35.14 c 0
 37.3272558594 -78.4081738281 100.467285156 -91.61 152.609404297 -91.61 c 3
 230.293076172 -91.61 342.083125 -61.7120214844 355.035898438 -9.52 c 1
 360.104003907 16.5246679688 348.922109375 37.46 311.525898438 37.46 c 3
 279.207333984 37.46 231.551582031 22.89 178.966708985 22.89 c 3
 129.255439453 22.89 32.8288964844 60.7779492188 38.256875 127.3 c 1
 73.42625 160.068076172 120.717646484 181.822509766 177.934921874 202.743085938 c 0
 249.439160156 228.975732422 321.424228515 255.963720704 340.945898437 348.38 c 0
 354.371435546 410.753183594 329.492519532 444.02 283.165898438 444.02 c 3
 219.701865234 444.02 169.842861328 392.433779297 151.869726563 317 c 0
 139.057128906 263.304648438 178.528447266 219.455527344 251.059726563 197.83 c 1
 251.60227539 197.205830079 147.572880859 162.971904297 147.635898438 163.53 c 1
 90.0671386718 184.051923828 41.7390625 233.882646484 53.2913671875 307.892578125 c 1
 72.00796875 431.333984375 201.854335938 505 297.777695312 505 c 3
 371.713242187 505 455.71421875 441 440.587265624 354.936523438 c 1
EndSplineSet
Substitution2: "smcp-1" g.smcp
Substitution2: "pcap-1" g.pcap
EndChar
StartChar: h
Encoding: 104 104 7
Width: 496
VWidth: 1159
Flags: HMW
AnchorPoint: "Bottom" 179.181 -15 basechar 0
LayerCount: 2
Fore
SplineSet
144.723320312 230.77 m 0
 131.021552735 173.249951172 105.892402343 74.1503027344 94.3129296875 -4 c 1
 -0.0507421875 -4 l 1
 35.5276367188 137.5234375 113.808828125 497.047822266 131.934921875 590 c 0
 137.050400391 616.018310546 139.985986328 632.175917969 139.797773438 639.06 c 0
 139.6815625 643.326601562 138.882734375 647.06 132.959882812 647.06 c 3
 127.476972657 647.06 102.37078125 642.027158204 92.5236328124 641.02 c 1
 94.8544433594 652.163339844 96.7361718751 690.366660156 96.5521484376 701.51 c 1
 146.799482422 713.160966797 206.751484374 724.811123047 272.000273438 764 c 1
 301.965117188 728 l 1
 289.263154297 714 274.292197266 690.868593749 268.588867188 681 c 0
 244.342910156 639.505585937 213.214716797 540.075683594 177.253320312 388.19 c 1
 197.441865235 412.414277344 274.862080078 486 345.553320312 486 c 3
 423.762021485 486 476.39 427.39796875 476.39 359.172382812 c 3
 476.39 195.686982422 376.980820312 51.4030078125 314.043320312 -23 c 1
 251.842363281 -7.16063476563 244.297851563 10.9434472656 245.562255859 62.99 c 1
 287.141064453 83.8756835937 399.902695312 200.125214843 399.902695312 318.8 c 3
 399.902695312 374.858779296 364.734521484 406.76 325.483320312 406.76 c 3
 258.059365234 406.76 167.617578125 327.344091797 144.723320312 230.77 c 0
EndSplineSet
Substitution2: "pcap-1" h.pcap
Substitution2: "smcp-1" h.smcp
EndChar
StartChar: k
Encoding: 107 107 10
Width: 477
VWidth: 1159
UnlinkRmOvrlpSave: 1
Flags: HMW
LayerCount: 2
Fore
SplineSet
81.369453125 -5 m 1
 72.220625 -5 34.1002441406 -5 23.4269921875 -5 c 0
 17.3385644531 -5 -2.90235351562 -6 -8.99078125 -6 c 1
 -8.98192382812 52.23109375 45.3516992187 198.838671875 64.9037109375 273 c 0
 128.922314453 515.901181641 128.835224609 598.984130859 128.07 623.54 c 0
 127.708730469 635.112041015 122.437929688 643.65 111.130166016 643.65 c 3
 105.333222656 643.65 67.1880566407 635.033535156 51.33 632.89 c 1
 44.605390625 692.38 l 1
 99.9279980468 703.602587891 171.1103125 739.311337891 218.68 774 c 1
 248.68 750 l 1
 243.68 590 113.249335938 203.19921875 81.369453125 -5 c 1
95.83 249.98 m 1
 205.205478515 265.383779297 379.167753906 329.085566407 372.073867188 419.149804688 c 0
 371.226553987 430.350672933 361.402943173 438.23 351.78 438.23 c 3
 300.14049491 438.23 172.301269222 340.508203125 115.68 168 c 1
 77.9426953125 211 l 1
 152.449171181 433.18 314.267617111 510 381 510 c 3
 430.854755444 510 463.440960979 473.617480469 465.68 435 c 0
 474.61428711 296.158417969 318.128066406 236.631845704 201.94 208.15 c 1
 247.355527344 131.128232421 328.115332031 63.24 491.68 -26 c 1
 491.68 -58.7280078125 471.830205078 -65.0628710938 405.33 -75.62 c 1
 317.869912109 -41.3125097656 151.655146485 103.562714844 95.83 249.98 c 1
EndSplineSet
Substitution2: "smcp-1" k.smcp
Substitution2: "pcap-1" k.pcap
EndChar
StartChar: l
Encoding: 108 108 11
Width: 259
VWidth: 1159
Flags: HMW
HStem: -10 21G<47.0016 91.8281> 749 20G<211.328 241.328>
VStem: 16.3285 82<53.6655 157.415>
AnchorPoint: "TopRight" 292.755 581 basechar 0
AnchorPoint: "Top" 221.22 749 basechar 0
LayerCount: 2
Back
SplineSet
194.203125 413 m 0
 168.874023438 320.94140625 131.728515625 171.416992188 130.569335938 100 c 0
 130.46484375 93.5673828125 130.80078125 86.3779296875 137.706054688 86 c 1
 146.290039062 86 181.776367188 100.625 199.706054688 112 c 1
 241.706054688 70 l 1
 193.932617188 22 138.71484375 -10 86.01953125 -10 c 3
 42.7060546875 -10 23.90625 11.3916015625 19.6201171875 37 c 0
 17.0986328125 52.0634765625 19.90234375 69.880859375 24.251953125 96 c 0
 36.57421875 170 76.6572265625 309.90234375 96.1630859375 401 c 0
 136.297851562 588.435546875 140.087890625 624.796875 140.087890625 663 c 7
 140.087890625 673.250976562 136.88671875 688.598632812 126.815429688 694 c 5
 124.974609375 700.612304688 122.892578125 707.0078125 120.801757812 713 c 1
 147.486328125 732.125 213.19140625 748.517578125 276.947265625 764 c 1
 288.51171875 757.142578125 292.955078125 748.571289062 299 740 c 1
 287.092773438 712.8984375 267.051757812 657.459960938 258.564453125 630 c 0
 240.635742188 572 225.231445312 525.776367188 194.203125 413 c 0
EndSplineSet
Fore
SplineSet
194.203125 413 m 0
 168.874023438 320.94140625 131.72944169 171.416977151 130.569335938 100 c 0
 130.46484375 93.5673828125 130.80078125 86.3779296875 137.706054688 86 c 1
 146.290039062 86 181.776367188 100.625 199.706054688 112 c 1
 241.706054688 70 l 1
 193.932617188 22 138.71484375 -10 86.01953125 -10 c 3
 42.7060546875 -10 23.9067094848 11.3916784717 19.6201171875 37 c 0
 17.0986328125 52.0634765625 19.9026607054 69.8808065945 24.251953125 96 c 0
 36.57421875 170 76.6572265625 309.90234375 96.1630859375 401 c 0
 131.187750443 564.574687281 140.087890625 594.900345897 140.087890625 628 c 3
 140.087890625 638.250976562 136.88671875 653.598632812 126.815429688 659 c 1
 124.974609375 677.792865955 122.892578125 695.969572368 120.801757812 713 c 1
 145.264686152 732.125 205.4994435 748.517578125 263.947265625 764 c 1
 282.328918289 750.28515625 289.391620504 733.142578124 299 716 c 1
 287.092773438 694.811505682 265.379402518 652.046597001 258.564453125 630 c 0
 240.635742188 572 225.232460423 525.776087894 194.203125 413 c 0
EndSplineSet
Substitution2: "pcap-1" l.pcap
Substitution2: "smcp-1" l.smcp
EndChar
StartChar: m
Encoding: 109 109 12
Width: 789
VWidth: 1159
Flags: HMW
LayerCount: 2
Fore
SplineSet
674.384121094 86.52 m 3
 682.31415496 86.52 714.123674407 133.634418263 726.359121094 155.486328125 c 1
 771.824121094 126 l 1
 746.531490798 75 693.614390142 -10 628.476074219 -10 c 3
 586.460068489 -10 567.828847656 34.18438205 567.828847656 72.0380859375 c 3
 567.828847656 147.453024491 634.99515625 291.508277859 634.99515625 381.279648438 c 3
 634.99515625 404.819566121 624.317745279 412.8 606.999882813 412.8 c 3
 572.190139236 412.8 468.907198116 326.35481037 436.674121094 184.94 c 0
 427.532998659 145.594383459 415.329368714 68.5728750324 408.376660156 33.474609375 c 0
 405.810991517 20.5224157445 405.418610386 9.4192755353 400.289746094 1 c 1
 393.468892904 4.6074255522e-17 346.846527137 -2 336.432128906 -2 c 1
 332.104684183 -2 309.384852306 -2 307.146035156 -1 c 1
 303.25798043 1.23008666992 306.439423013 31.0767327067 307.888691406 37.400390625 c 0
 318.365498835 82.256705605 337.187462758 159.767217522 347.067753906 204 c 0
 359.386960613 259.308941343 372.965561091 327.167087532 379.536367187 362.377675781 c 0
 387.591362386 406.218156447 379.744378273 427.12 359.659882812 427.12 c 3
 314.326291818 427.12 204.443646806 311.42672103 178.374121094 199.26 c 0
 163.496089342 133.994030092 156.141325221 93.8734210746 144.967441406 37.0341796875 c 0
 142.428061184 24.0038770776 138.739809684 9.4080139974 136.994785156 1 c 1
 135.636097639 -1 88.091067435 0 80.1853425474 0 c 1
 74.1495086911 0 56.9071380266 2 52.7425733995 4 c 1
 50.8287422643 6.4044148537 53.8074264776 31.4487189063 54.7069766573 36.4599325561 c 0
 67.56980044 108.383900953 81.9389403978 166.768625598 98.0722070312 246.590820312 c 0
 108.536529378 297.81731347 118.418976632 343.289313232 121.238798828 366.260166016 c 0
 123.270997973 381.505867982 116.74179002 396.2 110.079882813 396.2 c 3
 102.575638989 396.2 82.8061909053 376.107737577 70.2257617187 355 c 1
 30.1857617188 384 l 1
 45.0694639958 416.839795485 97.6160986243 490.931919436 143.342011719 502 c 1
 159.422837211 506.228623046 193.267295969 508.902779728 205.859863282 490 c 0
 211.236366602 482.556533204 218.773283162 466.679992793 219.295957032 446.62609375 c 0
 220.175607683 428.652905179 219.143694721 407.774160009 213.334121094 385.55 c 1
 253.528228183 433.027131949 334.796389191 513 393.124121094 513 c 3
 453.738304547 513 485.626577366 469.184279922 482.452832032 417.98453125 c 0
 481.863781352 408.438046568 482.383326488 398.818119939 479.955761719 389.17 c 1
 507.004231822 422.626975517 582.282892064 502.17 642.248964844 502.17 c 3
 724.468028791 502.17 742.565947665 436.616243295 724.370800782 354.822265625 c 0
 701.903379927 253.704002687 662.744121094 164.737470703 662.744121094 109.2 c 3
 662.744121094 88.1061838063 668.097168255 86.52 674.384121094 86.52 c 3
EndSplineSet
Substitution2: "pcap-1" m.pcap
Substitution2: "smcp-1" m.smcp
EndChar
StartChar: n
Encoding: 110 110 13
Width: 522
VWidth: 1159
Flags: HMW
LayerCount: 2
Back
SplineSet
769 190 m 3
 769 139 772 92 774 68 c 1
 774 65 775 64 779 63 c 1
 786 62 810 60 818 59 c 1
 816 -8 l 1
 781 -3 761 0 721 0 c 3
 690 0 667 -5 643 -10 c 1
 635 53 l 1
 645 54 658 55 666 57 c 1
 670 58 672 63 676 89 c 1
 678 108 682 155 682 170 c 3
 682 218 678 303 676 319 c 1
 667 377 651 413 588 413 c 3
 559 413 510 383 478 351 c 1
 478 347 478 345 478 344 c 1
 478 321 478 257 478 224 c 3
 478 163 479 95 482 73 c 1
 483 64 488 59 494 57 c 1
 499 56 519 53 527 52 c 1
 520 -9 l 1
 480 -3 470 0 423 0 c 3
 393 0 367 -5 344 -9 c 1
 336 54 l 1
 345 55 359 57 365 58 c 1
 371 58 378 61 380 88 c 1
 382 111 384 168 384 186 c 3
 384 234 380 335 376 354 c 1
 369 389 350 421 303 421 c 3
 262 421 205 381 174 354 c 1
 176 265 170 123 176 85 c 1
 179 67 188 62 195 60 c 1
 200 59 214 55 220 55 c 1
 210 -7 l 1
 173 -4 159 0 118 0 c 3
 87 0 54 -4 23 -7 c 1
 19 54 l 1
 29 55 34 55 44 58 c 0
 64 64 68 67 74 89 c 1
 82 119 85 194 85 232 c 3
 85 251 84 359 76 377 c 0
 66 406 67 411 46 411 c 1
 40 411 34 411 27 411 c 1
 22 470 l 1
 75 477 90 471 142 517 c 1
 186 485 l 1
 183 470 181 458 180 439 c 1
 219 470 283 512 342 512 c 3
 404 512 455 472 467 432 c 1
 511 463 562 500 634 500 c 3
 753 500 765 404 767 350 c 1
 769 309 769 233 769 190 c 3
EndSplineSet
Fore
SplineSet
120.610253906 373.41 m 1
 122.345349099 382.734683061 117.352209773 397.33 112.52569336 397.33 c 3
 104.922864095 397.33 86.5396880208 376.02068512 72.5102539062 354 c 1
 30.3911132812 382 l 1
 51.9809960938 440 132.948095704 504 162.140605468 504 c 3
 181.831601562 504 202.846677352 493.82306094 208.159316406 482 c 0
 211.240507812 475.079316407 215.069169337 459.988662481 216.105605468 440.49609375 c 0
 216.654267578 430.112617188 214.509775391 406.586132812 210.450253906 387.19 c 1
 242.653261718 428.755751953 314.634404297 504 376.110253906 504 c 3
 462.199248047 504 467.149977423 437.563535871 453.661542969 369.45 c 0
 432.32522461 261.685546875 414.750995706 190.466762023 401.460605468 115.01 c 0
 398.643515626 99.0345605465 397.191230468 81.54 400.065253906 81.54 c 3
 404.059960938 81.54 412.861497185 84.177040378 420.80522461 92.73 c 0
 433.666289063 107.019560547 447.466972656 126.241669922 453.921113281 134 c 1
 502.040253906 118 l 1
 487.737519531 88.033203125 468.989600966 57.73228913 441.333222656 31 c 0
 420.641816406 11 389.754082031 -9 363.320097656 -9 c 3
 323.564863281 -9 304.337626953 31.1185253906 304.337626953 61.0003613281 c 3
 304.337626953 113.141132813 370.257177734 335.580859374 370.257177734 384.000234375 c 3
 370.257177734 405.228408204 362.714902343 420.61 341.04334961 420.61 c 3
 291.226123047 420.61 191.294271802 290.005980842 179.798740235 241.4 c 0
 159.840351562 156.788730469 152.532712774 118.49080072 138.223613281 36.34 c 0
 136.122529296 24.2603125 135.606640625 6.95392578125 130.741191406 0 c 1
 123.610263672 0 80.8238867188 0 77.9711914062 0 c 1
 75.2853613281 0 43.0570214844 0 40.3711914062 0 c 1
 36.4876464844 6.34 41.494067234 28.7225055947 43.6636523438 39 c 0
 59.6147851563 114.545439453 84.6225414872 217.955652529 104.85680664 292.66 c 0
 110.746103516 315.229667969 116.492744141 347.285009766 120.610253906 373.41 c 1
EndSplineSet
Substitution2: "pcap-1" n.pcap
Substitution2: "smcp-1" n.smcp
EndChar
StartChar: o
Encoding: 111 111 14
Width: 490
VWidth: 1159
Flags: HW
AnchorPoint: "Bottom" 188.181 -15 basechar 0
AnchorPoint: "Top" 315.66 537 basechar 0
LayerCount: 2
Fore
SplineSet
309.495117188 507 m 3
 403.1328125 507 459 427.673828125 459 321.42578125 c 0
 459 139.922851562 320.752929688 -10 188.133789062 -10 c 3
 94.0673828125 -10 31.095703125 60.2529296875 31.095703125 180.220703125 c 0
 31.095703125 387.733398438 210.171875 507 309.495117188 507 c 3
283.581035156 435.89 m 3
 220.624722458 435.89 131.131035156 340.462993481 131.131035156 198.6 c 3
 131.131035156 109.364539222 163.492107263 53.3 209.891035156 53.3 c 3
 266.67602295 53.3 359.151035156 157.618655931 359.151035156 303.4 c 3
 359.151035156 399.170019457 326.657001139 435.89 283.581035156 435.89 c 3
EndSplineSet
Substitution2: "pcap-1" o.pcap
Substitution2: "smcp-1" o.smcp
EndChar
StartChar: p
Encoding: 112 112 15
Width: 511
VWidth: 1159
Flags: MW
HStem: -322 34<61.3024 139.999> -1 42<106.986 229.246> 351 46<224.026 344.499>
AnchorPoint: "Top" 370.038 537 basechar 0
AnchorPoint: "Bottom" 132.041 -156 basechar 0
LayerCount: 2
Fore
SplineSet
44.8515625 64.947265625 m 0
 74.15234375 191.33203125 100.783203125 314.038085938 108.140625 357.694335938 c 0
 109.831054688 367.725585938 104.987304688 372.138671875 99.095703125 374.947265625 c 1
 87.6708984375 373.774414062 50.2763671875 355.005859375 40.021484375 352.66015625 c 1
 36.8671875 421.888671875 l 1
 124.26171875 446.372070312 128.109375 440.427734375 160.038085938 538 c 1
 247.262695312 546.774414062 262.315429688 557.65234375 234.51171875 469.21484375 c 1
 273.518554688 483.39453125 327.872070312 505.080078125 377.610351562 505.080078125 c 3
 453.721679688 505.080078125 517.821289062 419.658203125 497.038085938 303 c 0
 469.1796875 146.626953125 336.094726562 57.228515625 216.702148438 34.3662109375 c 1
 192.00390625 30.3662109375 158.37109375 29.033203125 137.955078125 30.3662109375 c 1
 129.314453125 -12.064453125 116.306640625 -73.5166015625 115.774414062 -94 c 1
 116.25390625 -97.5712890625 144.146484375 -98.201171875 161.094726562 -99 c 0
 182.303710938 -100 217.662109375 -102 237.459960938 -103 c 1
 230.40625 -160 l 1
 176.45703125 -159 154.59765625 -159 113.794921875 -159 c 3
 82.884765625 -159 -5.0263671875 -169 -36.9619140625 -174 c 1
 -36.583984375 -124 l 1
 -28.861328125 -120.840820312 -21.908203125 -119.060546875 -16.603515625 -112.94140625 c 0
 -10.162109375 -105.510742188 -3.71875 -88.880859375 4.240234375 -66.705078125 c 0
 13.2412109375 -41.6279296875 32.189453125 10.330078125 44.8515625 64.947265625 c 0
317.038085938 434 m 3
 266.01953125 434 235.263671875 414.885742188 218.020507812 396.639648438 c 1
 152.038085938 114 l 1
 171.348632812 103.923828125 194.235351562 96.3662109375 225.12890625 96.3662109375 c 3
 314.358398438 96.3662109375 374.038085938 168 395.038085938 265 c 0
 416.659179688 364.8671875 375.559570312 434 317.038085938 434 c 3
EndSplineSet
Substitution2: "pcap-1" p.pcap
Substitution2: "smcp-1" p.smcp
EndChar
StartChar: q
Encoding: 113 113 16
Width: 487
VWidth: 1159
Flags: HMW
AnchorPoint: "Top" 350.66 537 basechar 0
LayerCount: 2
Fore
SplineSet
324.1721875 183.313310546 m 1
 345.059863282 253.133320312 361.515283203 323.417158204 374.804199219 379.469179688 c 1
 374.804199219 385.864070907 372.526068277 394.55588935 364.20375 406.258984375 c 0
 349.649160157 427.82625 322.899130859 433.89 301.51125 433.89 c 3
 224.888378906 433.89 126.884208984 320.664296875 117.86875 211.170107421 c 0
 112.322705079 140.363769531 126.691865234 99.92 179.696650391 99.92 c 3
 239.692958984 99.92 311.750927734 153.250390625 324.1721875 183.313310546 c 1
299.830185546 81.7746875 m 1
 249.958886719 45.3530859375 200.827929688 24.69140625 139.526015625 24.69140625 c 3
 45.334609375 24.69140625 15.6500390625 94.6201171875 15.6500390625 147.142578125 c 3
 15.6500390625 290.353515625 169.966796875 504 341.713554688 504 c 3
 400.896171875 504 410.520117188 479 424.83125 479 c 3
 436.029101562 479 456.285703125 507.477539062 462.02984375 514.122070312 c 1
 512.92 497 l 1
 511.129960938 491.533203125 504.726611328 477.08493164 501.286210938 468.755859375 c 0
 493.207148437 449.202148438 480.722050781 414.400566407 458.5878125 344.91796875 c 0
 449.25328125 316.100888672 418.198554687 212.111953125 406.606523438 158.9375 c 0
 375.987539063 18.4531054687 367.259335937 -44.8183398438 364.493916016 -74.1986035156 c 0
 362.765244141 -93.012685547 391.156240235 -98.9358300782 409.819140625 -102.499570312 c 0
 426.095810547 -105.3665625 469.307363281 -110.34 478.954921875 -110.34 c 1
 471.231289062 -168 l 1
 441.440751953 -167 394.046992188 -164 341.23796875 -164 c 3
 310.326835938 -164 239.698242188 -170.599609375 207.643554688 -175 c 1
 213.93359375 -113.68 l 1
 222.510888671 -112.922841797 223.859492187 -113.761425781 231.089492188 -110.338164062 c 0
 242.429326171 -103.825146485 252.726738281 -94.1267773437 260.046933594 -73.0887988281 c 0
 265.238417969 -58.1025488281 286.226132813 23.0268261719 299.830185546 81.7746875 c 1
EndSplineSet
Substitution2: "pcap-1" q.pcap
Substitution2: "smcp-1" q.smcp
EndChar
StartChar: r
Encoding: 114 114 17
Width: 426
VWidth: 1159
Flags: HMW
LayerCount: 2
Fore
SplineSet
129.245185546 364.905126954 m 1
 129.197744141 387.645478516 126.46984375 400.581699219 121.875742187 400.581699219 c 3
 119.158125 400.581699219 90.6733105469 359.363095703 80.208984375 323.89 c 1
 37.9423828125 349.639023438 l 1
 59.7229589844 433.30571289 128.130019531 490.483447266 173.057460938 514.337890625 c 1
 210.345595703 507.28515625 226.42118164 469.979492188 226.7203125 419.352539062 c 0
 226.785742188 408.222265625 226.64609375 395.062597657 226.109960938 380.85 c 1
 271.461523438 441.291513672 353.930273438 502.799296874 377.59140625 508.896484375 c 1
 415.602148438 501.80859375 458.875585938 466.3671875 450.952734375 429.508789062 c 1
 437.61109375 373.349267578 408.371933594 346.571230469 367.4853125 332.974580078 c 1
 361.351601562 360.128876953 350.908867187 392.713837891 331.5265625 392.713837891 c 3
 309.362939454 392.713837891 216.071191406 314.630556641 196.81234375 232.431640625 c 0
 192.862001953 215.574140625 190.058398437 199.169472656 188.42953125 190.739257812 c 0
 180.407685546 149.241210938 175.278066407 118.962617188 171.524921875 97.8193359375 c 0
 169.529189454 86.4776464844 168.308271484 77.2135546875 165.605898438 66.0382421875 c 0
 163.636992187 57.8651953125 160.095478516 44.858203125 157.61671875 36.84953125 c 0
 153.702041016 24.288828125 150.833378906 12.87125 145.837734375 0.310546875 c 1
 139.835341796 0.9482421875 98.1588378906 -2.0263671875 89.198046875 -1.9833984375 c 1
 83.2319140625 -1.9833984375 63.3788183594 -3.130859375 59.262578125 1.4580078125 c 1
 59.0112988281 9.48828125 64.3710742187 34.7312304687 65.280234375 39.314453125 c 0
 66.1975292969 43.9295703125 69.1671679688 64.0246484375 70.7471875 68.1631640625 c 0
 71.6177539063 70.4625878906 75.1855078125 92.4083203125 76.838984375 97.8193359375 c 0
 81.7461621094 113.895507813 101.753583984 210.753886719 115.307421875 262.5978125 c 0
 123.86140625 295.961777344 128.980869141 336.770683594 129.245185546 364.905126954 c 1
EndSplineSet
Substitution2: "pcap-1" r.pcap
Substitution2: "smcp-1" r.smcp
EndChar
StartChar: s
Encoding: 115 115 18
Width: 376
VWidth: 1159
Flags: MW
HStem: -10.1663 54.1517<53.1162 176.58> 369 47<178.157 254.577>
VStem: 77.7775 70.1657<259.483 332.875> 192.028 68.2592<62.772 153.436> 282.12 44<317.5 339.554>
AnchorPoint: "Top" 282.104 537 basechar 0
AnchorPoint: "Bottom" 138.301 -15 basechar 0
LayerCount: 2
Fore
SplineSet
39.669921875 119.236328125 m 1
 74.654296875 79.73828125 127.299804688 59.9853515625 162.630859375 59.9853515625 c 3
 183.21484375 59.9853515625 207.202148438 76.8466796875 205.90625 112.6640625 c 0
 204.426757812 153.549804688 172.752929688 199.424804688 142.4765625 230.84375 c 0
 111.0234375 263.484375 83.0888671875 286.168945312 80.525390625 346.87890625 c 0
 80.2548828125 353.288085938 80.4560546875 360.182617188 81.1875 367.638671875 c 1
 87.1044921875 413 169.301757812 508.765625 278.776367188 508.765625 c 3
 299.81640625 508.765625 327.826171875 495.10546875 345.7265625 486 c 1
 349.83984375 472.0859375 355.036132812 431.609375 365.21875 384.80859375 c 1
 300.2890625 346.596679688 l 1
 287.19921875 387.9609375 264.043945312 440 231.104492188 440 c 3
 198.376953125 440 168.890625 418.014648438 169.69921875 394.684570312 c 0
 170.828125 362.103515625 193.485351562 326.970703125 229.104492188 288 c 0
 269.194335938 244.137695312 296.30078125 204.063476562 298.31640625 157.958007812 c 0
 302.779296875 55.8525390625 213.990234375 12.068359375 157.416015625 -2.00390625 c 0
 134.02734375 -7.8212890625 104.293945312 -9.166015625 74.9326171875 -9.166015625 c 3
 41.4658203125 -9.166015625 8.291015625 -6.1083984375 -12 -1 c 1
 -3.658203125 27.1171875 8.3173828125 80.6748046875 11.697265625 111.470703125 c 1
 39.669921875 119.236328125 l 1
EndSplineSet
Substitution2: "pcap-1" s.pcap
Substitution2: "smcp-1" s.smcp
EndChar
StartChar: t
Encoding: 116 116 19
Width: 335
VWidth: 1159
Flags: HMW
AnchorPoint: "Bottom" 107.181 -15 basechar 0
AnchorPoint: "Top" 249.66 609 basechar 0
LayerCount: 2
Fore
SplineSet
69.371796875 482 m 1
 142.966904296 495.139677734 139.852929687 494.509648438 177.839570312 612.720703125 c 1
 262.505117188 613.879882812 l 1
 258.457656251 600.590869141 238.325673828 515.314472657 234.403085938 499.81 c 1
 256.830859375 501.333847656 326.914345704 509.279287109 349.34 510.791015625 c 1
 345.410634766 443.38 l 1
 321.974941406 442.735859375 243.559091797 435.799033203 220.123232421 435.34 c 1
 200.906191406 354.396738282 162.372822266 205.811669922 152.210302734 94.8620703125 c 1
 151.625947266 81.2752832031 153.857685547 71.085234375 161.869248046 71.085234375 c 3
 187.212832032 71.085234375 230.797109375 106.031074219 255.97328125 126.859648438 c 1
 255.97328125 126.859648438 275.021748046 99.2059277344 286.501679688 74.0654296875 c 1
 248.465546875 41.509765625 187.426484375 -11 129.309296875 -11 c 3
 109.314794922 -11 47.6985058594 0.874404296875 54.0455078125 88.316640625 c 1
 61.8373144531 196.938300781 101.254101562 329.558749999 120.891523437 429.34 c 1
 120.891523437 429.34 82.75171875 425.204033203 73.2165234375 424.17 c 1
 69.371796875 482 l 1
EndSplineSet
Substitution2: "pcap-1" t.pcap
Substitution2: "smcp-1" t.smcp
EndChar
StartChar: u
Encoding: 117 117 20
Width: 536
VWidth: 1159
Flags: MW
HStem: -18 56<286.605 378.674> -10 70<78.1053 168.105> 341 75<119.105 178.105> 387 20G<430.605 438.105>
AnchorPoint: "Top" 329.559 537 basechar 0
AnchorPoint: "Ogonek" 429.35 23 basechar 0
AnchorPoint: "Bottom" 229.376 -15 basechar 0
LayerCount: 2
Fore
SplineSet
419.841796875 496 m 1x60
 426.579101562 499.200195312 468.837890625 504 484.55859375 504 c 1
 511.444335938 504 528.831054688 503 529.604492188 497 c 1
 518.081054688 395.146484375 459.600585938 348.413085938 429.391601562 172.921875 c 0
 424.090820312 142.129882812 419.876953125 99.0205078125 420.631835938 77.4658203125 c 1
 420.494140625 73.822265625 421.569335938 72 423.62890625 72 c 3
 433.252929688 72 457.536132812 83.603515625 488.4609375 117.640625 c 1
 528.526367188 79.0537109375 l 1
 499.569335938 44.341796875 465.712890625 17.25390625 434.55859375 4 c 0
 419.424804688 -2.4375 398.62890625 -9 377.865234375 -9 c 3x90
 336.28125 -9 318.883789062 19.5966796875 317.506835938 45.341796875 c 0
 316.040039062 72.73828125 318.830078125 106.301757812 320.69921875 131.384765625 c 1
 275.077148438 81.818359375 189.794921875 -8 121.1796875 -8 c 3
 85.55859375 -8 57.2509765625 11 48.1748046875 41 c 1
 43.322265625 71.9599609375 54.1318359375 138.477539062 65.5205078125 191.040039062 c 0
 80.6572265625 260.909179688 106.801757812 336.26953125 115.162109375 398.009765625 c 0
 115.536132812 400.772460938 117.938476562 401.790039062 113.2578125 402 c 1
 103.901367188 402 69.4228515625 352.569335938 58.55859375 339 c 1
 23 378.014648438 l 1
 50.4775390625 424.82421875 124.215820312 513 186.291015625 513 c 3
 229.178710938 513 241.688476562 491.297851562 236.48828125 462 c 1
 232.727539062 396.286132812 206.990234375 384.969726562 170.478515625 217.3203125 c 0
 148.629882812 125.215820312 162.340820312 94 183.637695312 94 c 3
 210.623046875 94 296.076171875 182.185546875 343.041992188 252.733398438 c 1
 350.713867188 281.760742188 366.005859375 338.016601562 368.171875 345.161132812 c 0
 376.486328125 375.854492188 389.194335938 422.737304688 399.70703125 450.883789062 c 0
 406.537109375 469.173828125 414.78125 485.026367188 419.841796875 496 c 1x60
EndSplineSet
Substitution2: "pcap-1" u.pcap
Substitution2: "smcp-1" u.smcp
EndChar
StartChar: v
Encoding: 118 118 21
Width: 444
VWidth: 1159
Flags: HMW
LayerCount: 2
Fore
SplineSet
193.793242188 120.52 m 1
 334.117373046 251.71663086 374.682158204 368.138447266 374.682158204 431.222255859 c 3
 374.682158204 437.406875 371.222333984 444.137304688 358.764453125 444.137304688 c 3
 349.531777344 444.137304688 342.493378906 442.385166016 330.400742188 436.077304688 c 1
 312.032539062 486.611328125 l 1
 339.070625 508.407226562 365.079414062 516.896484375 380.826484375 516.896484375 c 3
 436.555976562 516.896484375 469.253242188 483.701171875 469.253242188 434 c 3
 469.253242188 319.313476562 313.753076172 144.258955078 226.59796875 67.0029296875 c 0
 201.667304688 44.9033203125 166.209296875 13.2373046875 148.170234375 -14 c 1
 99.31375 -2.291171875 l 1
 95.4722851562 134.131552735 91.4201171876 254.422822266 91.4201171876 392.194296875 c 3
 91.4201171876 394.178671875 91.2052734376 399.011679688 89.3986328124 399.011679688 c 3
 82.4614453125 399.011679688 56.8891894531 375.994970703 45.1419140625 359.69921875 c 1
 5.36 411.197265625 l 1
 27.640390625 435.483398438 100.043730469 507.043945312 139.946210938 507.043945312 c 3
 180.875576172 507.043945312 188.623242188 482.827148438 188.623242188 452 c 3
 188.623242188 340.663466797 191.075996094 207.435410156 193.793242188 120.52 c 1
EndSplineSet
Substitution2: "pcap-1" v.pcap
Substitution2: "smcp-1" v.smcp
EndChar
StartChar: w
Encoding: 119 119 22
Width: 687
VWidth: 1159
Flags: HMW
AnchorPoint: "Bottom" 220.181 -15 basechar 0
AnchorPoint: "Top" 418.66 537 basechar 0
LayerCount: 2
Fore
SplineSet
696.289628906 414.638671875 m 0
 704.8515625 282.192382812 563.168904102 136.9087888 467.208769532 67.1416015625 c 0
 432.36078125 41.8034082031 384.050673829 6.056640625 364.339863282 -12.8359375 c 1
 323.035175782 -1.849609375 l 1
 322.134785156 78.1724864051 337.559589844 178.890597679 346.936542969 321 c 1
 306.317242065 235.402917723 170.479180075 24.6042935767 84.3164257813 -15 c 1
 41.2773632813 3.6435546875 l 1
 67.5497363281 135.403417969 108.020395816 339.953574458 108.036904297 389.145742187 c 0
 108.038691406 394.569238281 108.255380859 418.505390625 100.063505859 418.505390625 c 3
 84.8789453125 418.505390625 60.5841796875 392.577626954 48.0810742188 374.219492188 c 1
 11.9985742188 416.827578125 l 1
 34.2937207031 442.559980469 98.1886523437 511 148.512011719 511 c 3
 204.586826172 511 210.096728515 450.570263672 210.096728515 416.800693359 c 0
 210.096728515 377.029912109 181.536445313 228.736240234 155.786386719 129.61 c 1
 192.018427734 177.518378906 283.768925781 299.983632812 376.091074219 500.86328125 c 1
 445.983964844 503.19140625 l 1
 448.742636719 349.866911996 428.309130859 204.29833625 421.399111328 104.71 c 1
 509.697177735 177.147096702 612.877205205 322.666190951 601.120957031 420.367363281 c 0
 600.294150391 427.204912109 596.185078125 435.951503906 582.413144531 435.951503906 c 3
 570.493320312 435.951503906 562.871425781 433.13665039 549.385332032 423 c 1
 523.744707032 477 l 1
 554.255449219 501.662109375 585.983964844 511.268554688 605.766191406 511.268554688 c 3
 667.077714844 511.268554688 692.545890438 472.63776232 696.289628906 414.638671875 c 0
EndSplineSet
Substitution2: "pcap-1" w.pcap
Substitution2: "smcp-1" w.smcp
EndChar
StartChar: x
Encoding: 120 120 23
Width: 523
VWidth: 1159
UnlinkRmOvrlpSave: 1
Flags: HW
LayerCount: 2
Fore
SplineSet
305.922998046 271.96 m 1
 348.193027343 114.058027344 361.013339844 75.05 384.807724609 75.05 c 3
 399.538935546 75.05 424.673828125 107.412773437 450.488701172 149.154296875 c 1
 502.083935546 108.877890625 l 1
 464.191708985 48.37328125 421.816777344 -9.83984375 353.175927734 -9.83984375 c 3
 259.584267578 -9.83984375 248.594365234 123.335390625 232.414912109 198 c 1
 232.219570313 198.915498046 223.057763672 235.377373047 222.754912109 237.36 c 1
 207.350087891 315.339287109 191.357949219 416.48 166.284912109 416.48 c 3
 142.36625 416.48 117.782666015 365.526982421 103.895185546 328.174726562 c 1
 44.5265917969 350.501640625 l 1
 72.6821679687 451.763720703 121.451318359 509 205.974912109 509 c 3
 275.916318359 509 280.160458984 394.366455078 295.579404296 319.32 c 1
 295.989785157 316.813378907 305.598662109 272.776376953 305.922998046 271.96 c 1
254.803466796 190 m 1
 138.063623047 24.220625 130.193046875 -10 57.8510839844 -10 c 3
 2.44174804688 -10 -13.3793164063 24.7220117188 -14.5275878906 58.919921875 c 0
 -15.1330566406 76.3397363281 -10.5539550781 97.6279101562 1.79467773438 129.64921875 c 1
 61.5049121094 114.62 l 1
 57.4132226562 92.3823046879 69.828125 85.01 81.3403222656 85.01 c 3
 97.3724121094 85.01 173.354492188 186.379033204 221.094912109 256.53 c 1
 222.035742187 257.787246093 273.148808593 321.082246094 274.124755859 323 c 1
 346.785888672 432.552734375 386.948974609 506 446.916748046 506 c 3
 497.545791016 506 536.947451172 463.261308594 537.837490234 432.354179688 c 0
 538.392714844 415.027431641 532.184736328 398.436953125 525.204912109 382.87 c 1
 467.629208984 389.119726562 l 1
 470.617734375 407.527412109 457.962734375 413.48 452.184912109 413.48 c 3
 402.804277344 413.48 368.505458984 356.929501953 298.164912109 250.47 c 1
 297.364482422 249.469033203 255.640322266 191.10296875 254.803466796 190 c 1
EndSplineSet
Substitution2: "smcp-1" x.smcp
Substitution2: "pcap-1" x.pcap
EndChar
StartChar: y
Encoding: 121 121 24
Width: 452
VWidth: 1159
Flags: HMW
AnchorPoint: "Top" 298.66 537 basechar 0
LayerCount: 2
Fore
SplineSet
117.364257812 -173 m 1
 114.710478516 -173 68.2583789063 -173 27.115625 -173 c 1
 -10.00796875 -173 -18.1528417969 -173 -47.8612109375 -174.084960938 c 1
 -47.8612109375 -174.084960938 -43.2513964844 -142.412675782 -41.6666015625 -127.948242188 c 1
 4.89669921875 -105.115214844 62.6612792969 -75.2201953125 145.677470704 46.23 c 1
 156.095957031 95.5753710938 161.538173828 156.02609375 161.538173828 214.788847656 c 3
 161.538173828 306.804921875 130.137412109 415.721923829 108.604853516 415.721923829 c 3
 99.2045507813 415.721923829 75.7630859375 381.221367188 61.5442578125 347.63 c 1
 17.7708203125 381.144648438 l 1
 52.9239160156 457.890136719 109.056152344 510 142.429023438 510 c 3
 214.67609375 510 250.846015625 458.829101562 250.846015625 316.2734375 c 3
 250.846015625 278.626542969 251.217167969 235.783271485 247.444257812 192.94 c 1
 314.664072266 318.127744141 360.346679687 425.312109374 389.722539062 507.27734375 c 1
 395.937998047 506.720703125 477.482216797 502.508789062 491.604804688 501.8515625 c 1
 494.451484375 499.587890625 489.581367188 486.181640625 482.358710938 470.37890625 c 0
 472.267890625 448.298828125 457.008701172 421.827753906 452.944648438 413.946289062 c 0
 435.259091797 379.642578125 320.405595704 204.096376953 215.954257812 20 c 0
 189.367480469 -26.8467382813 135.031591797 -136.172851562 117.364257812 -173 c 1
EndSplineSet
Substitution2: "pcap-1" y.pcap
Substitution2: "smcp-1" y.smcp
EndChar
StartChar: z
Encoding: 122 122 25
Width: 424
VWidth: 1159
Flags: HMW
AnchorPoint: "Bottom" 140.181 -15 basechar 0
AnchorPoint: "Top" 289.66 537 basechar 0
LayerCount: 2
Fore
SplineSet
116.639296875 27.4306640625 m 3
 82.4338085938 27.4306640625 43.1174121094 -4.96859375 28.1076953125 -3.8271484375 c 1
 12.0681347656 -3.8271484375 -8.92704101562 15.503203125 -9.64 32.9206640625 c 1
 45.3944433594 148.433535157 143.047470703 214.562431641 288.117060546 385.33 c 1
 283.041865234 384.823164062 272.341669922 384.6971875 264.523310546 384.950117188 c 1
 229.244121094 389.514873046 184.493945312 406.36625 160.757998046 416.224580078 c 1
 141.166894531 403.973056641 129.967089843 386.152509766 113.20671875 360.53484375 c 1
 84.741357422 360.53484375 76.608515625 369.53484375 75.32953125 394.432304688 c 1
 73.0322558594 421.68040039 144.153417969 520.862304688 178.94203125 520.862304688 c 1
 195.319960938 514.137695312 208.639296875 490.603515625 270.235976562 485 c 1
 347.961054687 477.034375 377.525673828 481.81375 399.745976562 510.49 c 1
 442.042617188 482.241210938 l 1
 364.538535156 327.992177734 206.338564453 224.565146484 121.694287109 94.4645898438 c 1
 129.352939454 96.0501757813 136.320019532 96.7565039063 142.715263672 96.7565039063 c 3
 253.417529296 96.7565039063 289.826767578 -14.9325488281 353.894160156 -14.9325488281 c 3
 373.992011719 -14.9325488281 400.255175782 -7.43432617188 402.023125 16.179453125 c 1
 426.372910157 16.179453125 438.015478516 2.31580078125 438.272109375 -10.6728515625 c 1
 443.011474609 -61.9499023437 389.568798828 -114.45 309.146513671 -114.45 c 3
 225.067060546 -114.45 178.341757813 27.4306640625 116.639296875 27.4306640625 c 3
EndSplineSet
Substitution2: "pcap-1" z.pcap
Substitution2: "smcp-1" z.smcp
EndChar
StartChar: uni009E
Encoding: 158 158 2536
Width: 649
VWidth: 1159
Flags: W
HStem: -17 42<152.089 231.732> -11 43<376.905 449.859> 623.534 76.2021<158.85 248.455 592.922 715.846>
VStem: 338.797 45.7939<373.316 510.432>
LayerCount: 2
Fore
SplineSet
432.567382812 379 m 4xb0
 396.896196355 285.728767834 378.544921875 163.954101562 369.791015625 80 c 0
 365.720703125 40.98828125 384.669921875 36 464.749023438 32 c 1
 449.859375 -11 l 1x70
 350.078125 3 263.458984375 9 152.478515625 -17 c 1
 150.138671875 25 l 1
 232.360351562 39 271.889648438 52.001953125 283.391601562 100 c 0
 295.46484375 150.383789062 338.509765625 339.19921875 338.796875 380 c 0
 339.374023438 472.659179688 308.1328125 623.534179688 174.791015625 623.534179688 c 3
 157.032226562 623.534179688 136.895507812 610.516601562 114.087890625 582 c 1
 98.1181640625 611.370117188 l 1
 120.201171875 658.056640625 177.999023438 699.736328125 215.758789062 699.736328125 c 3
 403.4453125 699.736328125 380.09375 498.013671875 384.590820312 371.123046875 c 1
 441.536132812 498.013671875 524.874023438 699.736328125 671.038085938 699.736328125 c 7
 706.080078125 699.736328125 742.142578125 654.138671875 751.95703125 627.370117188 c 1
 722.4765625 598 l 1
 708.096679688 615.53125 692.83203125 623.534179688 676.950195312 623.534179688 c 3
 562.638671875 623.534179688 494.906040268 542 432.567382812 379 c 4xb0
EndSplineSet
EndChar
StartChar: cent
Encoding: 162 162 1203
Width: 473
UnlinkRmOvrlpSave: 1
Flags: HW
HStem: -9 63<150.253 274.436> 370 51<159.213 276.324>
VStem: 25 62<120.66 283.256>
LayerCount: 2
Back
SplineSet
350 370 m 1
 336 384 275 431 232 431 c 3
 162 431 116 367 116 274 c 3
 116 169 185 79 278 79 c 3
 318 79 344 95 379 122 c 1
 421 56 l 1
 372 24 316 -10 249 -10 c 3
 190 -10 20 40 20 230 c 3
 20 389 133 516 269 516 c 3
 335 516 399 485 422 464 c 1
 407 399 418 404 350 370 c 1
EndSplineSet
Fore
SplineSet
21 242 m 3
 21 319.202206929 44.2270386841 363.632979436 88.7998046875 423.400390625 c 0
 138.66991561 490.270986569 202.71998196 514.200195312 288 514.200195312 c 3
 353.638979933 514.200195312 384.555555556 487.904424253 446 471 c 1
 414.806989397 425.996516927 397.792619978 398.603092448 366.599609375 353.599609375 c 1
 347.86038644 383.656589605 298 430 250 430 c 3
 223.615504466 430 186.43468164 423.774943294 171.599609375 411.799804688 c 0
 127.193593013 375.954465253 115 322.047592083 115 280 c 3
 115 177.921598759 175.8199373 78 281 78 c 3
 327.217469443 78 359.501988535 103.92297712 380.600585938 120.200195312 c 1
 395.375366211 96.1251220703 405.225219727 80.0750732422 420 56 c 1
 383.532750661 32.2527131337 331.409546019 -10.7998046875 238.799804688 -10.7998046875 c 3
 155.493442647 -10.7998046875 21 63.7193224155 21 242 c 3
EndSplineSet
Refer: 1961 58113 N 0.0181668 0.693762 -0.968418 0.0253589 229.417 -98.881 2
Position2: "'lnum-2' vertical adjustment" dx=0 dy=125 dh=0 dv=0
EndChar
StartChar: AE
Encoding: 198 198 319
Width: 1046
Flags: HW
HStem: -13.8818 66.9883<469.188 504.737> -5.96777 72.333<46.8943 96.8855 193.098 245.525> 3.30371 68.6982<619.109 890.324> 189.197 66.0635<285.04 506.452> 306.281 68.3682<617.103 831.74> 612.051 67.0889<378.251 417.519 619.761 879.309> 667.216 20G<920.629 943.623>
VStem: 506.527 110.575<72.9855 189.197 255.261 305.377 374.279 606.285> 842.895 62.8057<261.377 306.029 375.232 419.565> 882.244 59.2461<543.141 601.996>
AnchorPoint: "Top" 580.585 699 basechar 0
AnchorPoint: "Bottom" 569.957 -15 basechar 0
LayerCount: 2
Back
SplineSet
396 692 m 1x5de0
 459.272012394 686.532048312 556.561190777 684.572593564 653.192821453 684.572593564 c 0
 803.974281922 684.572593564 953.154767421 689.343407866 969 693 c 1
 980.145145837 683.247997393 984.133414459 677.741599913 984.133414459 669.087387512 c 0
 984.133414459 652.893580795 970.168856119 625.677987617 963 539 c 1
 933 536 l 1
 922 572 941 619 905 630 c 0
 863.488636507 641.860389569 801.137444756 648.076658986 740.260246011 648.076658986 c 0
 708.746754637 648.076658986 677.628246937 646.410894684 650 643 c 0
 632 641 619 627 618 609 c 0x5ee0
 614 526.970338983 609 445.953389831 608 370 c 1
 672 372 824 372 838 373 c 0
 875 378 880 404 896 448 c 1
 930 441 l 1
 921.800908316 410.132831309 918.486685813 379.498275435 918.486685813 348.871954284 c 0
 918.486685813 315.997648821 922.305294619 283.132831309 928 250 c 1
 892 241 l 1
 872 312 879 325 838 329 c 0
 794 334 701 333 608 334 c 1
 607 236.227091633 611 147.525896414 623 81 c 0
 627 64 636 50 653 49 c 0
 698.831179232 44.5647245905 737.376555516 40.3723092792 773.782518979 40.3723092792 c 0
 811.251037011 40.3723092792 846.453436792 44.8130178498 885 58 c 0
 944 78 954 101 993 177 c 1
 1021 170 l 1
 1005 104 994 62 982 0 c 1
 877.083081066 1.45355771389 767.073393242 3.06987648348 667.598205869 3.06987648348 c 0x3de0
 584.624915197 3.06987648348 509.225266505 0.552582785989 451 -9 c 1
 441 26 l 1x9de0
 494 36 527 49 527 77 c 1
 528.380926187 103.914026086 529.284877868 166.790357996 529.630859375 241.087890625 c 1
 467.278003094 249.660049211 355.177385742 253.494120142 272.916992188 247 c 1
 235.500997091 184.6 209.014082931 147.759493671 176.979 87 c 0
 158.157 51 172.988 29 244.937 34 c 1
 239.599 -10 l 1
 207.9511992 -3.42116167511 156.803289353 0.296115413079 108.669988834 0.296115413079 c 0
 76.3230769561 0.296115413079 45.3376267038 -1.38268590218 22.5469 -5 c 1
 22.5469 -5 18.2832 20 19.9365 34 c 1
 71.5889 48 102.294 57 117.652 80 c 0
 245.893953454 285.468704307 363.399910804 480.400810666 462.046875 648.923828125 c 1
 441.407911312 652.540879605 417.029954203 656.00792895 391 661 c 1
 396 692 l 1x5de0
499.977539062 640.265625 m 1
 473.026905511 593.239042544 345.505326951 370.882231497 296.875 289 c 1
 347.043311173 284.20133642 475.957582399 285.850220822 529.76953125 285.991210938 c 1
 529.972511301 417.75573903 528.516654383 568.318110715 525 618 c 0
 524.612992871 628.452823952 515.381822824 635.158711011 499.977539062 640.265625 c 1
EndSplineSet
Fore
SplineSet
378.250976562 684.215820312 m 1x5980
 465.18359375 681.030273438 582.100585938 679.139648438 711.677734375 679.139648438 c 0x5d80
 814.5625 679.139648438 908.676757812 681.123046875 932.581054688 687.215820312 c 1
 954.665039062 670.905273438 961.684570312 660.729492188 961.684570312 647.3359375 c 0
 961.684570312 629.392578125 943.731445312 604.849609375 941.490234375 543.140625 c 1
 882.244140625 538.313476562 l 1x1b40
 875.6796875 566.799804688 889.951171875 599.846679688 873.74609375 601.708007812 c 0
 825.612304688 607.90234375 755.857421875 612.05078125 694.970703125 612.05078125 c 0
 672.819335938 612.05078125 651.842773438 611.501953125 633.506835938 610.302734375 c 0
 625.34765625 609.741210938 619.896484375 606.453125 619.78515625 595.010742188 c 0
 619.278320312 522.559570312 618.102539062 441.46875 617.102539062 374.279296875 c 1
 662.213867188 376.380859375 819.733398438 374.240234375 825.029296875 374.649414062 c 0
 833.559570312 375.49609375 833.287109375 400.689453125 844.129882812 432.393554688 c 1
 910.087890625 418.997070312 l 1
 901.954101562 386.731445312 898.262695312 357.520507812 898.262695312 327.434570312 c 0
 898.262695312 306.954101562 900.830078125 285.9140625 905.700195312 262.169921875 c 1
 842.89453125 243.1171875 l 1
 825.56640625 286.19140625 834.264648438 306.1484375 826.526367188 306.28125 c 0
 792.984375 305.731445312 671.364257812 304.29296875 615.275390625 305.376953125 c 1
 615.188476562 215.100585938 614.744140625 150.397460938 616.145507812 90.3759765625 c 0
 616.584960938 75.5400390625 623.065429688 72.8720703125 629.076171875 72.7763671875 c 0
 668.23046875 72.3486328125 704.966796875 72.001953125 739.833984375 72.001953125 c 0
 777.384765625 72.001953125 812.767578125 72.5 846.76953125 73.97265625 c 0
 884.474609375 75.498046875 894.541015625 92.654296875 930.034179688 155.546875 c 1
 990.022460938 141.235351562 l 1
 975.419921875 80.6796875 965.881835938 58.7255859375 953.806640625 1.9365234375 c 1
 862.471679688 -0.6875 766.720703125 3.3037109375 675.853515625 3.3037109375 c 0x3d80
 596.0859375 3.3037109375 534.16796875 0.09765625 473.078125 -13.8818359375 c 1
 435.852539062 53.1064453125 l 1x9980
 474.172851562 60.73046875 506.080078125 69.0830078125 506.092773438 77.1767578125 c 0
 506.249023438 97.5634765625 506.37109375 137.842773438 506.452148438 189.197265625 c 1
 418.833984375 189.956054688 361.44140625 190.465820312 249.6484375 191.515625 c 1
 194.458007812 98.171875 l 2
 180.53515625 76.142578125 217.478515625 71.9794921875 249.80859375 66.365234375 c 1
 245.06640625 -5.9677734375 l 1
 215.038085938 0.8916015625 164.807617188 3.4072265625 129.09375 3.4072265625 c 0
 100.141601562 3.4072265625 71.599609375 1.6005859375 47.0693359375 -1.1396484375 c 1
 45.2412109375 15.41015625 42.1552734375 39.904296875 38.4140625 63.451171875 c 1
 86.6826171875 73.794921875 92.349609375 79.51953125 106.465820312 99.3974609375 c 2
 417.518554688 609.966796875 l 1
 404.638671875 610.375 390.358398438 610.83984375 374.680664062 611.421875 c 1
 378.250976562 684.215820312 l 1x5980
494.9375 606.375976562 m 1
 285.040039062 251.374023438 l 1
 352.397460938 250.533203125 452.731445312 254.856445312 506.52734375 255.260742188 c 1
 506.596679688 344.650390625 506.291015625 599.043945312 506.216796875 602.430664062 c 0
 506.177734375 604.212890625 502.415039062 605.4453125 494.9375 606.375976562 c 1
EndSplineSet
Position2: "cpsp-1" dx=0 dy=0 dh=50 dv=100
Substitution2: "c2pc-1" ae.pcap
Substitution2: "c2sc-1" ae.smcp
EndChar
StartChar: germandbls
Encoding: 223 223 327
Width: 498
VWidth: 1159
Flags: HW
HStem: -326 36<-168.511 -126.231> -9.16602 45.1514<249.637 362.734> 697 57<340.695 438.415>
VStem: 272.914 65.5557<262.782 333.862> 381.025 69.4473<66.1989 155.309> 465.925 61.082<533.259 638.468>
LayerCount: 2
Back
SplineSet
225.477539062 107.295898438 m 5
 256.787109375 74.2861328125 303.904296875 57.7783203125 335.525390625 57.7783203125 c 7
 381.249023438 57.7783203125 401.03125 87.9892578125 399.846679688 119.69140625 c 4
 398.379882812 157.92578125 369.255859375 198.672851562 335.52734375 230.190429688 c 4
 301.135742188 262.5234375 271.57421875 285.831054688 268.317382812 346.87890625 c 4
 267.977539062 353.288085938 268.229492188 360.182617188 269.149414062 367.638671875 c 5
 275.004882812 413 356.353515625 508.765625 464.698242188 508.765625 c 7
 487.505859375 508.765625 515.491210938 495.002929688 534.028320312 484.129882812 c 5
 537.739257812 471.623046875 542.426757812 435.239257812 551.61328125 393.170898438 c 5
 488.541992188 359.245117188 l 5
 477.5390625 397.346679688 456.44140625 442.209960938 424.998046875 442.209960938 c 7
 386.64453125 442.209960938 350.676757812 412.225585938 351.76171875 386.748046875 c 4
 353.06640625 354.265625 377.377929688 321.2109375 415.688476562 283.75 c 4
 457.97265625 242.07421875 484.146484375 202.559570312 486.108398438 157.958007812 c 4
 490.571289062 56.5322265625 401.782226562 12.068359375 345.208007812 -2.00390625 c 4
 321.819335938 -7.8212890625 292.0859375 -9.166015625 262.724609375 -9.166015625 c 7
 229.2578125 -9.166015625 196.083007812 -6.1083984375 175.791992188 -1 c 5
 183.434570312 24.5576171875 194.407226562 73.23828125 197.504882812 101.23046875 c 5
 225.477539062 107.295898438 l 5
EndSplineSet
Fore
SplineSet
500.576171875 592 m 0
 481.298828125 501.306640625 335.254882812 428 338.76171875 386.748046875 c 0
 342.55859375 342.071289062 364.526367188 321.362304688 402.688476562 283.75 c 0
 444.97265625 242.07421875 471.145507812 202.559570312 473.108398438 157.958007812 c 0
 477.571289062 56.5322265625 388.782226562 12.0673828125 332.208007812 -2.00390625 c 0
 308.819335938 -7.8212890625 279.0859375 -9.166015625 249.724609375 -9.166015625 c 3
 216.2578125 -9.166015625 183.083007812 -6.1083984375 162.791992188 -1 c 1
 170.434570312 24.5576171875 181.407226562 73.23828125 184.504882812 101.23046875 c 1
 212.477539062 107.295898438 l 1
 243.787109375 74.2861328125 290.904296875 57.7783203125 322.525390625 57.7783203125 c 3
 368.249023438 57.7783203125 388.0625 87.990234375 386.846679688 119.69140625 c 0
 385.379882812 157.92578125 356.16015625 198.5703125 322.52734375 230.190429688 c 0
 286.733308767 263.841924825 247.247487872 295.487709598 256.149414062 367.638671875 c 0
 267.354492188 458.541992188 386.491210938 488.100585938 406.875976562 584 c 0
 417.151367188 639.58984375 369.20703125 670 320.15625 670 c 3
 255.541992188 670 224.790039062 576.934570312 197.584960938 499.01953125 c 0
 124.6015625 290 100.6015625 37 68.84765625 -53 c 0
 51.2060546875 -102.999023438 23.7470703125 -138.104492188 -6.380859375 -171 c 1
 -20.1337890625 -170.169921875 -18.7587890625 -169.33984375 -76.5224609375 -169.33984375 c 3
 -96.1201171875 -169.33984375 -125.983398438 -173.068359375 -137.182617188 -174 c 1
 -143 -112.360351562 l 1
 -96.765625 -105.904296875 -67.91796875 -93.5751953125 -47.017578125 -60 c 0
 16.5615234375 42.1376953125 76.6015625 406 93.490234375 493.169921875 c 0
 119.487304688 627.354492188 174.649414062 670.309570312 257.4453125 713.6796875 c 0
 287.584960938 729.467773438 337.467773438 749 368.948242188 749 c 3
 467.076171875 749 515.188476562 667.538085938 500.576171875 592 c 0
EndSplineSet
Substitution2: "pcap-1" uni1E9E.pcap
Substitution2: "smcp-1" uni1E9E.smcp
EndChar
StartChar: ae
Encoding: 230 230 322
Width: 656
Flags: HW
HStem: -12 82<81.1605 229.474 421.68 529.744> 444 81<159.48 258.515> 444 73<407.023 495.278>
VStem: 20.6605 96<92.8432 201.081> 33.6605 112<387.126 436.726> 263.902 98.7586<141.087 245.863> 272.661 91<320.179 392.808> 526.661 112<334.25 398.557>
AnchorPoint: "Top" 377.66 537 basechar 0
AnchorPoint: "Bottom" 274.181 -15 basechar 0
LayerCount: 2
Back
SplineSet
480.521484375 424.592773438 m 4
 439.95703125 424.592773438 382.034179688 368 371.258789062 236.114257812 c 5
 407.741210938 257.756835938 518.705078125 314.19140625 540.603515625 324.877929688 c 4
 548.010742188 328.4921875 549.909179688 334.985351562 549.102539062 342.029296875 c 4
 547.91796875 397.27734375 518.153320312 424.592773438 480.521484375 424.592773438 c 4
503.454101562 510 m 4
 565.23046875 510 632.963867188 447.93359375 635.393554688 384.639648438 c 4
 635.701171875 377.063476562 638.081054688 366.780273438 644.081054688 364.073242188 c 5
 640.1015625 303.556640625 l 5
 574.666992188 268.5 447.19140625 218.202148438 370.741210938 164 c 5
 374.741210938 119.78125 396.8828125 69.240234375 446.719726562 69.240234375 c 4
 492.046875 69.240234375 530.971679688 92.9521484375 563.435546875 128.150390625 c 5
 608.584960938 86 l 5
 566.263671875 38.640625 500.560546875 -10 416.866210938 -10 c 4
 344.71484375 -10 298.416015625 37.0078125 281.25390625 103.37890625 c 5
 242.10546875 70.5556640625 181.090820312 -10 113.25390625 -10 c 4
 54.5546875 -10 9 48.7734375 9 119.466796875 c 4
 9 191.205078125 56.806640625 267.821289062 95.7744140625 313.094726562 c 4
 126.595703125 348.903320312 161.436523438 375.0703125 181.583984375 389.485351562 c 4
 239.436523438 435.263671875 329.666015625 470.365234375 428.009765625 484.288085938 c 4
 432.755859375 484.895507812 436.860351562 485.87890625 440.608398438 487.157226562 c 4
 464.272460938 502.030273438 486.334960938 510 503.454101562 510 c 4
329.741210938 381 m 5
 326.741210938 384 309.508789062 375 305.741210938 375 c 7
 277.63671875 375 242.741210938 367 193.741210938 326 c 5
 148.330078125 290.75 99.8017578125 225.114257812 99.8017578125 148.709960938 c 4
 99.8017578125 112.455078125 115.280273438 80.2001953125 144.801757812 80.2001953125 c 4
 169.678710938 80.2001953125 220.828125 128.323242188 273.668945312 171.01953125 c 5
 273.943359375 244.11328125 295.138671875 309.033203125 325.416992188 362 c 4
 330.654296875 371.161132812 331.741210938 380 329.741210938 381 c 5
EndSplineSet
Fore
SplineSet
480.440429688 424.592773438 m 0
 439.875976562 424.592773438 381.953125 368 371.177734375 236.114257812 c 1
 407.66015625 257.756835938 518.624023438 314.19140625 540.522460938 324.877929688 c 0
 547.9296875 328.4921875 549.828125 334.985351562 549.021484375 342.029296875 c 0
 547.836914062 397.27734375 518.072265625 424.592773438 480.440429688 424.592773438 c 0
503.373046875 510 m 0
 565.149414062 510 632.8828125 447.93359375 635.3125 384.639648438 c 0
 635.620117188 377.063476562 638 366.780273438 644 364.073242188 c 1
 640.020507812 303.556640625 l 1
 574.5859375 268.5 447.110351562 218.202148438 370.66015625 164 c 1
 374.66015625 119.78125 396.801757812 69.240234375 446.638671875 69.240234375 c 0
 491.965820312 69.240234375 530.890625 92.9521484375 563.354492188 128.150390625 c 1
 608.50390625 86 l 1
 566.182617188 38.640625 500.479492188 -10 416.78515625 -10 c 0
 344.633789062 -10 298.334960938 37.0078125 281.172851562 103.37890625 c 1
 242.024414062 70.5556640625 181.009765625 -10 113.172851562 -10 c 0
 54.4736328125 -10 8.9189453125 48.7734375 8.9189453125 119.466796875 c 0
 8.9189453125 191.205078125 56.7255859375 267.821289062 95.693359375 313.094726562 c 0
 126.514648438 348.903320312 161.35546875 375.0703125 181.502929688 389.485351562 c 0
 239.35546875 435.263671875 329.584960938 470.365234375 427.928710938 484.288085938 c 0
 432.674804688 484.895507812 436.779296875 485.87890625 440.52734375 487.157226562 c 0
 464.19140625 502.030273438 486.25390625 510 503.373046875 510 c 0
323.66015625 368 m 1
 320.66015625 371 312.427734375 375 305.66015625 375 c 3
 277.555664062 375 242.66015625 367 193.66015625 326 c 1
 148.249023438 290.75 99.720703125 225.114257812 99.720703125 148.709960938 c 0
 99.720703125 112.455078125 115.19921875 80.2001953125 144.720703125 80.2001953125 c 0
 169.59765625 80.2001953125 220.747070312 128.323242188 273.587890625 171.01953125 c 1
 273.862304688 244.11328125 295.66015625 304 315.66015625 345 c 0
 320.287109375 354.484375 325.66015625 367 323.66015625 368 c 1
EndSplineSet
Substitution2: "pcap-1" ae.pcap
Substitution2: "smcp-1" ae.smcp
EndChar
StartChar: eogonek
Encoding: 281 281 253
Width: 436
UnlinkRmOvrlpSave: 1
Flags: HW
HStem: -177.1 75.1279<279.727 366.339>
VStem: 220.79 79.4385<-124.77 -19.8732>
AnchorPoint: "Top" 209 465 basechar 0
LayerCount: 2
Fore
SplineSet
312.393554688 35.443359375 m 5
 238.061523438 -10 214.98828125 -48.1767578125 210.965820312 -67.099609375 c 4
 206.3125 -88.9921875 216.870117188 -101.971679688 233.719726562 -101.971679688 c 7
 242.694335938 -101.971679688 254.216796875 -98.4560546875 266.922851562 -90.69921875 c 5
 266.922851562 -90.69921875 281.86328125 -118.986328125 282.237304688 -141.099609375 c 5
 256.49609375 -166.104492188 219.74609375 -177.099609375 188.356445312 -177.099609375 c 7
 145.810546875 -177.099609375 114.203125 -148.606445312 124.3359375 -100.934570312 c 4
 138.4453125 -34.5546875 201.280273438 43.14453125 297.487304688 85.900390625 c 5
 312.393554688 35.443359375 l 5
EndSplineSet
Refer: 4 101 N 1 0 0 1 0 0 3
Substitution2: "smcp-1" eogonek.smcp
Substitution2: "pcap-1" eogonek.pcap
EndChar
StartChar: dotlessi
Encoding: 305 305 50
Width: 284
VWidth: 1159
Flags: HMW
AnchorPoint: "Bottom" 92.1807 -15 basechar 0
AnchorPoint: "Top" 207.66 537 basechar 0
LayerCount: 2
Fore
SplineSet
177.68 245.162109375 m 0
 166.206611328 198.90191476 155.28 128.159233134 156.11 109.609023438 c 1
 156.94 101.068701172 159.602785993 99.2170865891 164.26 103.373828125 c 1
 174.218510638 110.500645537 195.602717211 133.27688372 209.23 154.1184375 c 1
 251.91 115 l 1
 198.953724926 33.1199667969 147.514814732 -11 116.78 -11 c 3
 73.5267277811 -11 56.12 28.3884715358 56.12 69.553203125 c 3
 56.12 123.556650853 79.0207764234 187.335757081 94.61 245.3515625 c 0
 100.165323158 266.131537168 121.041860944 335.546352639 129.18 390.54 c 0
 129.430996094 392.461020765 129.18 394.00733347 128.18 394.2 c 1
 125.549174506 394.2 93.3654545453 363.557272728 82.21 347.21 c 1
 43.53 389.797265625 l 1
 69.5163420025 430.44020555 147.114798005 507 195.45 507 c 3
 237.44509588 507 243.916602605 482.315016975 240.96 448.813476562 c 0
 240.211 440.328091227 235.84987768 426.710758913 233.47 419.720703125 c 0
 217.869952567 373.899130371 182.053598159 263.869217817 177.68 245.162109375 c 0
EndSplineSet
Substitution2: "pcap-1" i.pcap
Substitution2: "smcp-1" i.smcp
EndChar
StartChar: oe
Encoding: 339 339 871
Width: 693
UnlinkRmOvrlpSave: 1
Flags: HW
AnchorPoint: "Top" 355.66 537 basechar 0
AnchorPoint: "Bottom" 358.66 -15 basechar 0
LayerCount: 2
Fore
SplineSet
281.155273438 507 m 3
 369.783203125 507 422.66015625 427.673828125 422.66015625 321.42578125 c 0
 422.66015625 139.922851562 288.497070312 -10 159.793945312 -10 c 3
 65.7275390625 -10 2.755859375 60.2529296875 2.755859375 180.220703125 c 0
 2.755859375 387.733398438 181.83203125 507 281.155273438 507 c 3
255.241210938 435.889648438 m 3
 192.28515625 435.889648438 102.791015625 340.462890625 102.791015625 198.599609375 c 3
 102.791015625 109.364257812 135.15234375 53.2998046875 181.55078125 53.2998046875 c 3
 238.336914062 53.2998046875 330.811523438 157.619140625 330.811523438 303.400390625 c 3
 330.811523438 399.169921875 298.317382812 435.889648438 255.241210938 435.889648438 c 3
EndSplineSet
Refer: 4 101 N 1 0 0 1 282.661 0 2
Substitution2: "smcp-1" oe.smcp
Substitution2: "pcap-1" oe.pcap
EndChar
StartChar: uogonek
Encoding: 371 371 262
Width: 532
UnlinkRmOvrlpSave: 1
Flags: HW
HStem: -177.1 75.1279<380.727 467.339>
VStem: 321.79 79.4385<-124.77 -34.6367>
LayerCount: 2
Fore
SplineSet
434 4 m 1
 368 -28 345.418893381 -55.5585827117 342.965820312 -67.099609375 c 0
 338.3125 -88.9921875 348.870117188 -101.971679688 365.719726562 -101.971679688 c 3
 374.694335938 -101.971679688 386.216796875 -98.4560546875 398.922851562 -90.69921875 c 1
 398.922851562 -90.69921875 413.86328125 -118.986328125 414.237304688 -141.099609375 c 1
 388.49609375 -166.104492188 351.74609375 -177.099609375 320.356445312 -177.099609375 c 3
 277.810546875 -177.099609375 246.202779386 -148.60637185 256.3359375 -100.934570312 c 0
 267.424804688 -48.7666015625 316 9 419.094726562 54.45703125 c 1
 434 4 l 1
EndSplineSet
Refer: 20 117 N 1 0 0 1 0 0 3
Substitution2: "smcp-1" uogonek.smcp
Substitution2: "pcap-1" uogonek.pcap
EndChar
StartChar: longs
Encoding: 383 383 445
Width: 281
VWidth: 1159
Flags: HW
HStem: -6 36<-0.268945 63.1019 180.901 250.299> 1 32<157.35 247.749> 356 25<11.7311 33.0493> 701 55<239.19 342.848>
VStem: 78.7311 72<42.1466 356 403 602.768>
AnchorPoint: "Top" 231.731 735 basechar 0
LayerCount: 2
Back
SplineSet
263.6015625 749 m 3
 300.6015625 749 343.6015625 741 375.6015625 721 c 1
 380.6015625 688 350.6015625 651 329.6015625 637 c 1
 294.6015625 657 259.6015625 670 231.6015625 670 c 3
 175.6015625 670 161.4609375 639.020507812 149.6015625 556 c 0
 141.064453125 496.244140625 135.6015625 357.868164062 135.6015625 304 c 3
 135.6015625 233 142.6015625 134 150.6015625 92 c 0
 154.6015625 71 164.607421875 65.1103515625 184.6015625 64 c 0
 202.6015625 63 222.6015625 62 240.6015625 61 c 1
 235.6015625 -8 l 1
 192.6015625 -3 132.6015625 1 83.6015625 1 c 3
 52.6015625 1 4.6015625 -4 -23.3984375 -7 c 1
 -25.3984375 59 l 1
 -13.3984375 60 0.5849609375 60.1025390625 12.6015625 62 c 0
 31.6015625 65 38.7080078125 68.984375 40.6015625 82 c 0
 48.6015625 137 52.6015625 214 52.6015625 280 c 3
 52.6015625 307 52.6015625 388 50.6015625 437 c 1
 26.6015625 437 0.6015625 437 -26.3984375 437 c 1
 -26.3984375 493 l 1
 -1.3984375 494 25.6015625 497 47.6015625 499 c 1
 45.6015625 534 44.6015625 545 44.6015625 558 c 3
 44.6015625 614 91.892578125 655.6328125 143.6015625 697 c 0
 173.6015625 721 226.6015625 749 263.6015625 749 c 3
EndSplineSet
Fore
SplineSet
444.384765625 754 m 3
 475.130352339 754 541.089696219 729.120674078 561 708.069335938 c 5
 555.525390625 674.288085938 545.669921875 665.530273438 488.731445312 633 c 5
 455.502546283 650.451322137 420.426338065 680.5703125 386.274414062 680.5703125 c 3
 294.681640625 680.5703125 258.658203125 599.583984375 220.71484375 499.01953125 c 0
 183.731445312 401 123.732421875 36.9990234375 91.9775390625 -53 c 0
 74.3359375 -102.999023438 46.876953125 -138.104492188 16.7490234375 -171 c 1
 2.99609375 -170.169921875 4.37109375 -169.33984375 -53.392578125 -169.33984375 c 3
 -72.990234375 -169.33984375 -102.853515625 -173.068359375 -114.052734375 -174 c 1
 -119.870117188 -112.360351562 l 1
 -73.6357421875 -105.904296875 -44.7880859375 -93.5751953125 -23.8876953125 -60 c 0
 39.69140625 42.1376953125 99.7314453125 406 116.620117188 493.169921875 c 0
 142.6171875 627.354492188 197.779296875 670.30859375 280.575195312 713.6796875 c 0
 323.54296875 736.1875 375.221679688 754 444.384765625 754 c 3
EndSplineSet
Substitution2: "pcap-1" s.pcap
Substitution2: "smcp-1" s.smcp
EndChar
StartChar: ohorn
Encoding: 417 417 448
Width: 490
UnlinkRmOvrlpSave: 1
Flags: HW
HStem: -11 74<235.683 375.593> 365.36 24.3843<359.604 431.731> 440 77<194.436 334.919> 480.219 20G<483.588 507.581>
VStem: 30 100<179.83 346.467> 436 104<152.433 329.656> 452.501 86.0273<403.736 481.559>
AnchorPoint: "Middle" 284.697 252.853 basechar 0
AnchorPoint: "Bottom" 278 -15 basechar 0
AnchorPoint: "Top" 275 537 basechar 0
LayerCount: 2
Fore
SplineSet
362.5859375 496.864257812 m 1
 383.692382812 487.794921875 412.927734375 471.524414062 436.860351562 471.524414062 c 3
 452.056640625 471.524414062 475.551757812 486.7265625 481.561523438 515 c 0xf4
 485.106445312 531.677734375 478.318359375 547.462890625 462.413085938 566.520507812 c 1
 489.958984375 598.009765625 523.719726562 615.90625 552.517578125 615.90625 c 3
 598.171875 615.90625 616.798828125 579.580078125 608.178710938 539.022460938 c 0
 593.135742188 468.252929688 498.055664062 418.220703125 430.637695312 418.220703125 c 3
 409.616210938 418.220703125 394.858398438 422.594726562 384.598632812 430.490234375 c 1
 367.202148438 443.875976562 362.734375 467.384765625 362.5859375 496.864257812 c 1
EndSplineSet
Refer: 14 111 N 1 0 0 1 0 0 2
Substitution2: "smcp-1" ohorn.smcp
Substitution2: "pcap-1" ohorn.pcap
EndChar
StartChar: uni0237
Encoding: 567 567 52
Width: 307
VWidth: 1159
Flags: HMW
AnchorPoint: "Top" 246.66 537 basechar 0
LayerCount: 2
Fore
SplineSet
-79.3026171875 -136.099414062 m 1
 -30.7197704764 -102.641960852 6.49582266173 -68.7701638354 35.564921875 -27.534765625 c 0
 52.5141865667 -3.64989389676 79.7806399149 47.0853010373 90.96703125 76.14734375 c 0
 97.5620000222 92.7096965752 117.721440392 157.099888604 130.006669921 215.281689454 c 0
 150.78338337 313.507684245 165.098587481 379.363487684 167.342382813 399.455429687 c 0
 167.841222104 403.891310165 167.343207106 403.42796289 162.086601562 403.599960937 c 1
 156.279260165 403.599960937 111.135087745 367.807020596 99.87 356.19 c 1
 63.19 392.51 l 1
 96.1319540303 432.389010836 179.638950122 507 247.1609375 507 c 3
 289.265078123 507 289.378838697 485.658868048 284.748525391 453.980234375 c 0
 283.601110168 445.969454459 274.212193582 430.436604038 271.888359375 423.555664062 c 0
 257.225408961 380.377837927 234.525891797 302.357211941 224.83703125 260.096679688 c 0
 213.038966623 208.636700412 200.617398665 151.498209281 194.751992188 117.938476562 c 0
 184.177650138 58.7131967563 168.193655229 1.41986868017 160.386875 -18.9091796875 c 0
 136.310212873 -83.9399759802 99.2992131564 -122.516920806 56.3011914062 -144.814960937 c 0
 32.3202610832 -157.329231644 -7.57564969567 -169.540653846 -43.3857421875 -174 c 1
 -79.3026171875 -136.099414062 l 1
EndSplineSet
EndChar
StartChar: acutecomb
Encoding: 769 769 92
Width: 0
Flags: W
HStem: 569.951 193.429
VStem: -232.611 230.611
AnchorPoint: "Top" -157.857 537 mark 0
AnchorPoint: "TopMark" -163.857 537 mark 0
AnchorPoint: "TopMark" -119.757 768 basemark 0
LayerCount: 2
Fore
SplineSet
-200.181640625 613.625 m 5
 -151.795508126 657.84751608 -56.236282113 725.712153957 16.05078125 763.379882812 c 5
 16.05078125 763.379882812 34.3607578842 725.132086187 45.17578125 683 c 5
 -26.7600050778 658.897178037 -109.246343333 618.277768662 -183.794921875 569.951171875 c 5
 -200.181640625 613.625 l 5
EndSplineSet
EndChar
StartChar: uni0315
Encoding: 789 789 113
Width: 0
Flags: W
HStem: 442.494 214.751
VStem: -118 141.25
AnchorPoint: "TopRight" -95.6328 531 mark 0
LayerCount: 2
Fore
SplineSet
-18.0478515625 657.245117188 m 9
 61.1259765625 639.245117188 l 1
 33.75 577.094726562 -7.4501953125 493.133789062 -80.9453125 442.494140625 c 9
 -117.268554688 464.494140625 l 1
 -66.1044921875 521.860351562 -41.345703125 587.85546875 -18.0478515625 657.245117188 c 9
EndSplineSet
EndChar
StartChar: uni031B
Encoding: 795 795 99
Width: 0
Flags: W
HStem: 330 18<-84.5 -47.4434>
VStem: 12.8818 62.7432<400.38 466.056>
AnchorPoint: "Horn" -17.042 453.8 mark 0
LayerCount: 2
Fore
SplineSet
43.466796875 515 m 0xf4
 47.01171875 531.677734375 40.2236328125 547.462890625 24.318359375 566.520507812 c 1
 51.8642578125 598.009765625 85.625 615.90625 114.422851562 615.90625 c 3
 160.077148438 615.90625 178.704101562 579.580078125 170.083984375 539.022460938 c 0
 155.041015625 468.252929688 59.9609375 418.220703125 -7.45703125 418.220703125 c 3
 -27.9658203125 418.220703125 -43.041015625 420.592773438 -54.6630859375 425 c 1
 -61.0126953125 434.180664062 -75.419921875 479.194335938 -75.5087890625 496.864257812 c 1
 -54.40234375 483.794921875 -25.1669921875 471.524414062 -1.234375 471.524414062 c 3
 13.9619140625 471.524414062 37.45703125 486.7265625 43.466796875 515 c 0xf4
EndSplineSet
EndChar
StartChar: uni0327
Encoding: 807 807 268
Width: 0
UnlinkRmOvrlpSave: 1
Flags: W
HStem: -172 50.1914<-278.966 -212.797>
VStem: -209.825 76.4277<-122.225 -75.0357>
AnchorPoint: "Bottom" -196.188 -15 mark 0
LayerCount: 2
Fore
SplineSet
-319.559570312 -172 m 1
 -304.857421875 -121.80859375 l 1
 -270.196289062 -125.244140625 -236.4765625 -125.3828125 -231.930664062 -103.997070312 c 0
 -229.509765625 -92.6083984375 -234.454101562 -86.111328125 -238.916992188 -82.1259765625 c 1
 -265.586914062 -59.4599609375 l 1
 -262.799804688 -57.6982421875 -259.743164062 -55.0458984375 -256.415039062 -52.0732421875 c 0
 -236.293945312 -34.1025390625 -226.82421875 -26.96875 -201.424804688 -2 c 1
 -139.724609375 6 l 1
 -139.724609375 6 -174.544921875 -42.15625 -179.721679688 -50.92578125 c 1
 -164.075195312 -59.8466796875 -148.713867188 -72.0595703125 -155.380859375 -103.42578125 c 0
 -166.70703125 -156.70703125 -256.486328125 -185.889648438 -319.559570312 -172 c 1
EndSplineSet
EndChar
StartChar: uni032B
Encoding: 811 811 696
Width: 0
Flags: W
HStem: -153.727 66.7197<-280.97 -228.431 -161.209 -109.222>
VStem: -343 296.179
AnchorPoint: "Bottom" -196.188 -15 mark 0
LayerCount: 2
Fore
SplineSet
-353.27734375 -48.3505859375 m 1
 -296.219726562 -44.58984375 l 1
 -297.49863023 -72.837890625 -288.381995077 -87.0068359375 -276.615234375 -87.0068359375 c 3
 -262.99609375 -87.0068359375 -246.545898438 -73.8955078125 -236.194335938 -47.58984375 c 1
 -176.857421875 -47.58984375 l 1
 -177.771722361 -73.83984375 -168.432249212 -87.0068359375 -156.615234375 -87.0068359375 c 3
 -142.99609375 -87.0068359375 -126.333984375 -72.8974609375 -115.556640625 -44.58984375 c 1
 -57.0986328125 -48.3505859375 l 1
 -84.2587890625 -118.600585938 -127.853515625 -153.7265625 -163.872070312 -153.7265625 c 3
 -187.946289062 -153.7265625 -209.145507812 -140.452148438 -219.265625 -113.903320312 c 1
 -240.875976562 -140.452148438 -267.810546875 -153.7265625 -291.872070312 -153.7265625 c 3
 -327.930664062 -153.7265625 -356.411132812 -118.600585938 -353.27734375 -48.3505859375 c 1
EndSplineSet
EndChar
StartChar: Gamma
Encoding: 915 915 978
Width: 630
Flags: HW
HStem: -13.8818 66.9883<95.8006 142.338> 505.313 181.902<505.648 568.49> 612.051 67.0885<85.251 143.283 257.752 489.343>
VStem: 143.562 109.714<78.815 608.235> 509.244 59.2461<510.141 596.29>
AnchorPoint: "Top" 468.525 679 basechar 0
AnchorPoint: "Bottom" 242.812 -15 basechar 0
LayerCount: 2
Back
SplineSet
367 -11 m 1
 317.662100722 -4.45290806362 265.938730077 3.3037109375 216.853515625 3.3037109375 c 3x76
 196.57509814 3.3037109375 130.98866446 0.09765625 97.078125 -13.8818359375 c 1
 84.8525390625 53.1064453125 l 1
 123.172851562 60.73046875 143.080078125 69.0830078125 143.092773438 77.1767578125 c 1
 143.387695312 115.657226562 143.561523438 225.0078125 143.561523438 345.940429688 c 3
 143.561523438 473.567382812 143.370305092 591.38513021 143.216796875 602.430664062 c 0
 143.131835938 608.543945312 116.502929688 608.177734375 81.6806640625 611.421875 c 1
 85.2509765625 684.215820312 l 1xa6
 149.500976562 681.030273438 252.91015625 679.139648438 348.677734375 679.139648438 c 3xb6
 446.905043268 679.139648438 536.758873592 681.123046875 559.581054688 687.215820312 c 1
 581.665039062 670.905273438 588.684570312 660.729492188 588.684570312 647.3359375 c 3
 588.684570312 627.670489199 570.731445312 600.772043206 568.490234375 533.140625 c 1
 509.244140625 528.313476562 l 1x2d
 502.6796875 561.29330398 516.924289957 599.29749298 500.74609375 601.708007812 c 0
 455.305001502 607.902634603 389.451917368 612.051155854 331.970473707 612.051155854 c 3
 309.819597887 612.051155854 288.838195322 611.564318054 270.506835938 610.302734375 c 0
 262.34765625 609.741210938 256.875849788 606.453307156 256.78515625 595.010742188 c 0
 256.120069434 511.098488873 252.275390625 417.204635161 252.275390625 339.376953125 c 3
 252.275390625 237.763554958 251.14488363 164.917048783 253.145507812 97.3759765625 c 0
 253.584960938 82.5400390625 260.116208137 80.5618689194 266.076171875 79.7763671875 c 0
 305.23046875 74.6159720307 341.966796875 70.001953125 376.833984375 65.001953125 c 1
 372.868834898 31.9625600198 370.278878706 19.9843214351 367 -11 c 1
EndSplineSet
Fore
SplineSet
364.662109375 -11 m 1xb8
 316.715820312 -4.453125 266.640625 3.3037109375 217.555664062 3.3037109375 c 3
 197.27734375 3.3037109375 131.009765625 0.09765625 94.1279296875 -13.8818359375 c 1
 96.140625 53.1064453125 l 1
 136.081054688 60.73046875 157.763671875 69.0830078125 159.497070312 77.1767578125 c 1
 167.971679688 115.657226562 191.388671875 225.0078125 217.09375 345.940429688 c 0
 244.221679688 473.567382812 269.073242188 591.384765625 271.267578125 602.430664062 c 0
 272.481445312 608.543945312 245.775390625 608.177734375 211.642578125 611.421875 c 1
 230.685546875 684.215820312 l 1
 294.258789062 681.030273438 397.265625 679.139648438 493.033203125 679.139648438 c 3xb8
 591.260742188 679.139648438 681.536132812 681.123046875 705.653320312 687.215820312 c 1
 724.270507812 670.905273438 729.126953125 660.729492188 726.280273438 647.3359375 c 0
 721.2578125 623.709960938 696.436523438 591.393554688 676.923828125 510.140625 c 1
 616.651367188 505.313476562 l 1xd8
 613.299804688 548.627929688 630.190429688 597.19921875 606.643554688 601.708007812 c 0
 569.229492188 608.87109375 512.0546875 612.05078125 462.06640625 612.05078125 c 3
 440.275390625 612.05078125 419.532226562 611.564453125 401.23046875 610.302734375 c 0
 392.952148438 609.741210938 386.78125 606.453125 384.258789062 595.010742188 c 0
 365.7578125 511.098632812 341.955078125 417.205078125 325.412109375 339.376953125 c 0
 303.813476562 237.763671875 287.19921875 164.916992188 274.84375 97.3759765625 c 0
 269.470703125 68.00390625 304.004882812 80 390.650390625 65.001953125 c 1
 379.663085938 31.962890625 374.526367188 19.984375 364.662109375 -11 c 1xb8
EndSplineSet
Position2: "cpsp-1" dx=0 dy=0 dh=50 dv=111
Substitution2: "c2pc-1" gamma.pcap
Substitution2: "c2sc-1" gamma.smcp
EndChar
StartChar: Delta
Encoding: 916 916 979
AltUni2: 002206.ffffffff.0
Width: 785
Flags: HW
HStem: 2.27051 64.0293<181.894 579.606> 669 20G<372 444.036>
VStem: 374 67<609.555 689>
AnchorPoint: "Bottom" 386.812 -15 basechar 0
AnchorPoint: "Top" 558.577 699 basechar 0
LayerCount: 2
Back
SplineSet
252.236328125 252.388671875 m 1
 299.649796095 248.696289062 416.056493083 255.291015625 460.068359375 255.291015625 c 1
 430.663716066 331.849688928 390.779014945 423.919616462 364.260742188 506.700195312 c 1
 333.183450557 425.767388752 288.468711113 331.038213756 252.236328125 252.388671875 c 1
509.888671875 -7.9677734375 m 1
 509.888671875 -7.9677734375 493.834960938 55.16015625 493.491210938 56.451171875 c 1
 511.129882812 62.4765625 543.669111995 62.5008282298 531.536132812 85.34375 c 0
 509.317639013 127.174804688 504.16315987 146.46484375 484.896484375 189.09765625 c 1
 402.475609977 189.958007812 334.929395462 190.474609375 227.088867188 191.700195312 c 1
 206.983656761 149.208984375 201.412314429 141.435615007 182.458007812 98.171875 c 0
 172.167968751 74.6845703125 192.971679688 71.9794921875 226.80859375 66.365234375 c 1
 222.06640625 -5.9677734375 l 1
 192.038085938 0.8916015625 155.807617188 3.4072265625 120.09375 3.4072265625 c 3
 93.9653606848 3.4072265625 68.207124287 1.6005859375 46.0693359375 -1.1396484375 c 1
 45.5085019225 15.41015625 44.5617949314 39.904296875 43.4140625 63.451171875 c 1
 82.315659825 73.794921875 87.1208210221 78.351512429 97.4658203125 99.3974609375 c 0
 194.946287559 297.712495736 269.901189481 452.952421088 325.958984375 599.28515625 c 0
 342.707585862 643.005546436 341.1484375 649.484376818 349.12890625 688.512695312 c 1
 415.416015625 688.9609375 l 1
 421.564453125 653.31343782 423.441824058 644.45793154 438.330078125 599.821289062 c 0
 509.533416723 386.345756349 559.169909084 292.881478795 651.323242188 82.3115234375 c 0
 659.720471081 63.1238928475 666.972584155 65.3935546875 692.55859375 61.451171875 c 1
 693.37890625 44.8515625 695.918945312 19.0732421875 696.81640625 -0.1396484375 c 1
 664.649189366 1.16015625 635.190512371 3.2646484375 607.002929688 3.2646484375 c 3
 573.849609375 3.2646484375 542.422851562 0.83984375 509.888671875 -7.9677734375 c 1
EndSplineSet
Fore
SplineSet
468.592773438 66.2998046875 m 1
 563.517578125 66.599609375 604.483398438 66.2998046875 601.29296875 74.2998046875 c 1
 564.939453125 195.001953125 518.122070312 399.763671875 497.553710938 506 c 1
 467.665039062 458.376953125 278.986328125 199.14453125 198.268554688 88.2998046875 c 1
 194.961914062 80.7998046875 205.088867188 66.2236328125 259.592773438 66.2998046875 c 1
 468.592773438 66.2998046875 l 1
43.9375 -5 m 1
 57.5185546875 62.66015625 90.646484375 62.91015625 120.680664062 102 c 0
 267.077148438 292.533203125 395.2734375 458.283203125 489.147460938 617 c 0
 511.7421875 655.203125 509.4375 656 520.451171875 689 c 1
 587.451171875 689 l 1
 587.784179688 662 583.682617188 658.837890625 589.572265625 619 c 0
 621.004882812 406.4140625 671.720703125 288.66796875 724.091796875 71 c 0
 732.149414062 37.5087890625 757.673828125 66.681640625 747.149414062 -4 c 1
 712.697265625 0.2509765625 554.798828125 2.2705078125 390.975585938 2.2705078125 c 0
 235.161132812 2.2705078125 72.970703125 -0.2509765625 43.9375 -5 c 1
EndSplineSet
Position2: "cpsp-1" dx=0 dy=0 dh=50 dv=111
Substitution2: "c2pc-1" delta.pcap
Substitution2: "c2sc-1" delta.smcp
EndChar
StartChar: Theta
Encoding: 920 920 983
Width: 792
Flags: HW
HStem: -16 72<348.672 528.99> 302.5 84<313.488 505.665> 616 73<286.654 477.048>
VStem: 48 119<261.919 449.449> 230.5 71<247.5 290.382 398.511 441.5> 517.5 69<246.5 290.874 397.242 437.5> 655 115<214.618 413.376>
AnchorPoint: "Top" 426 699 basechar 0
AnchorPoint: "Bottom" 422 -15 basechar 0
LayerCount: 2
Back
SplineSet
597.5 435.5 m 1
 595.443359375 384.664930556 595.918945312 297.711805556 602.5 243.5 c 1
 539.5 241.5 l 1
 535.577086104 292.269073872 533.198494262 295.471482687 522.5 296.5 c 0
 514.208661417 297.5 450.641732283 303.5 405.5 303.5 c 3
 357.471830986 303.5 288.995992001 301.442280486 281.5 296.5 c 0
 272.790283203 291.957411729 272.145446777 270.756873985 271.5 243.5 c 1
 205.5 244.5 l 1
 211.977539062 311.131260702 212.790039062 372.658310146 205.5 439.5 c 1
 270.5 441.5 l 1
 272.166754645 420.253133745 270.731148227 400.724221742 285.5 394.5 c 0
 293.326086957 390.5 313.326086957 384.5 405.5 384.5 c 3
 495.66 384.5 515.481935601 386.984280614 520.5 389.5 c 0
 530.681818182 393.708955224 533.227272727 390.902985075 534.5 436.5 c 1
 597.5 435.5 l 1
EndSplineSet
Fore
SplineSet
609.374023438 437.5 m 5
 596.568359375 386.9296875 578.658203125 300.4296875 573.775390625 246.5 c 5
 507.350585938 244.5 l 5
 509.569335938 296.19140625 503.801757812 298.534179688 481.25390625 300.5 c 4
 475.89453125 300.94921875 434.599609375 303.5 404.891601562 303.5 c 7
 375.842773438 303.5 335.16796875 302.209960938 329.466796875 301.5 c 4
 300.805664062 297.786132812 293.853515625 274.786132812 285.775390625 246.5 c 5
 217.98828125 247.5 l 5
 238.556640625 313.790039062 252.379882812 375.000976562 259.224609375 441.5 c 5
 326.649414062 443.5 l 5
 324.82421875 418.184570312 326.325195312 390.083984375 346.74609375 387.5 c 4
 353.0546875 386.734375 398.37890625 384.5 422.108398438 384.5 c 7
 465.234375 384.5 497.544921875 385.2890625 501.321289062 385.5 c 4
 514.161132812 386.24609375 529.838867188 387.08203125 543.586914062 438.5 c 5
 609.374023438 437.5 l 5
EndSplineSet
Refer: 990 927 N 1 0 0 1 0 0 2
Position2: "cpsp-1" dx=0 dy=0 dh=50 dv=100
Substitution2: "c2pc-1" theta.pcap
Substitution2: "c2sc-1" theta.smcp
EndChar
StartChar: Pi
Encoding: 928 928 991
Width: 870
Flags: HW
HStem: -0.483398 76.7295<69.4941 129.55 748.181 805.212> 605.041 72.1311<248.038 639.677> 622.979 69.9023<755.241 798.754>
VStem: 135.61 106.819<82.4228 604.681> 640.104 113.591<335.311 604.957> 642.234 102.51<77.6339 499.138>
AnchorPoint: "Top" 581.525 679 basechar 0
AnchorPoint: "Bottom" 442.812 -15 basechar 0
LayerCount: 2
Back
SplineSet
245.684570312 88.2021484375 m 0
 246.612304688 67.4697265625 290.33984375 76.763671875 309.11328125 74.73046875 c 1
 309.11328125 74.73046875 302.37109375 -1.2783203125 302.28515625 -2.4833984375 c 1
 257.784179688 3.9814453125 220.34765625 6.9111328125 184.276367188 6.9111328125 c 3
 146.357421875 6.9111328125 109.79296875 4.30859375 69.494140625 -0.4833984375 c 1
 69.494140625 -0.4833984375 57.1826171875 74.697265625 57.0107421875 76.24609375 c 1
 86.2099609375 76.466796875 130.172851562 81.4052734375 130.54296875 90.6357421875 c 0
 135.353515625 206.40234375 135.610351562 340.05078125 135.610351562 462.693359375 c 3
 135.610351562 534.838867188 134.155273438 588.810546875 130.461914062 601.95703125 c 0
 127.333007812 612.546875 100.923828125 613.1484375 63.837890625 614.979492188 c 1
 68.666015625 686.794921875 l 1xea
 113.060546875 678.424804688 155.443359375 677.171875 199.573242188 677.171875 c 0
 696.56640625 676.740234375 l 3xda
 732.30859375 676.740234375 769.260742188 681.173828125 820.329101562 692.881835938 c 1
 834.5546875 622.979492188 l 1
 810.440429688 615.548828125 777.201171875 617.196289062 776.694335938 608.595703125 c 0xec
 770.990234375 501.268554688 767.744140625 358.397460938 767.744140625 231.573242188 c 3
 767.744140625 161.090820312 768.795898438 105.458984375 771.107421875 84.505859375 c 0
 772.456054688 75.8681640625 803.09765625 76.962890625 835.296875 76.4716796875 c 1
 835.296875 76.4716796875 827.5546875 -1.1064453125 827.641601562 -2.3115234375 c 1
 786.5078125 2.21484375 747.995117188 5.4072265625 708.767578125 5.4072265625 c 3
 678.268554688 5.4072265625 647.330078125 2.9111328125 613.676757812 -3.4833984375 c 1
 611.10546875 17.30859375 607.528320312 44.041015625 604.193359375 70.81640625 c 1
 637.1015625 72.5908203125 656.713221786 72.7771771032 657.620117188 88.0224609375 c 0
 660.051811392 128.900238308 665.234375 227.943359375 665.234375 330 c 3
 665.234375 443.69140625 666 533 663.103515625 579.998046875 c 0
 662.362123278 592.027800112 653 605 646 604.95703125 c 28
 497 605 413 605 264 605.040775423 c 28
 257 605 248.694516336 598.02871237 248 589 c 0
 245 550 242.4296875 454.194335938 242.4296875 344 c 3
 242.4296875 229.701171875 244.398099751 116.951379993 245.684570312 88.2021484375 c 0
EndSplineSet
Fore
SplineSet
264.432617188 88.2021484375 m 0xd8
 260.953125 67.4697265625 306.65625 76.763671875 324.998046875 74.73046875 c 1
 324.998046875 74.73046875 302.099609375 -1.2783203125 301.756835938 -2.4833984375 c 1
 258.630859375 3.9814453125 221.81640625 6.9111328125 185.745117188 6.9111328125 c 3
 147.826171875 6.9111328125 110.708984375 4.30859375 69.3916015625 -0.4833984375 c 1
 69.3916015625 -0.4833984375 73.0595703125 74.697265625 73.2177734375 76.24609375 c 1
 102.463867188 76.466796875 147.4765625 81.4052734375 149.80859375 90.6357421875 c 0
 179.225585938 206.40234375 207.890625 340.05078125 233.958984375 462.693359375 c 0
 249.293945312 534.838867188 259.310546875 588.810546875 258.412109375 601.95703125 c 0
 257.534179688 612.546875 231.252929688 613.1484375 194.555664062 614.979492188 c 1
 214.6484375 686.794921875 l 1
 257.264648438 678.424804688 299.380859375 677.171875 343.510742188 677.171875 c 0xd8
 817.412109375 676.740234375 l 3
 853.154296875 676.740234375 891.048828125 681.173828125 944.60546875 692.881835938 c 1
 943.97265625 622.979492188 l 1
 918.279296875 615.548828125 885.390625 617.196289062 883.055664062 608.595703125 c 0xb8
 854.538085938 501.268554688 820.923828125 358.397460938 793.966796875 231.573242188 c 0
 778.985351562 161.090820312 768.211914062 105.458984375 766.069335938 84.505859375 c 0
 765.58203125 75.8681640625 796.45703125 76.962890625 828.551757812 76.4716796875 c 1
 828.551757812 76.4716796875 804.319335938 -1.1064453125 804.150390625 -2.3115234375 c 1
 763.978515625 2.21484375 726.14453125 5.4072265625 686.916992188 5.4072265625 c 3
 656.41796875 5.4072265625 624.94921875 2.9111328125 589.936523438 -3.4833984375 c 1
 591.784179688 17.30859375 593.889648438 44.041015625 596.24609375 70.81640625 c 1
 629.53125 72.5908203125 649.182617188 72.77734375 653.330078125 88.0224609375 c 0
 664.450195312 128.900390625 690.685546875 227.943359375 712.377929688 330 c 0xb4
 736.543945312 443.69140625 756.29296875 533 763.385742188 579.998046875 c 0
 765.201171875 592.02734375 758.596679688 605 751.587890625 604.95703125 c 24
 602.596679688 605 541.596679688 605 392.60546875 605.041015625 c 24
 385.596679688 605 375.809570312 598.028320312 373.196289062 589 c 0
 361.90625 550 338.971679688 454.194335938 315.548828125 344 c 0
 291.25390625 229.701171875 269.256835938 116.951171875 264.432617188 88.2021484375 c 0xd8
EndSplineSet
Position2: "cpsp-1" dx=0 dy=0 dh=50 dv=111
Substitution2: "c2pc-1" pi.pcap
Substitution2: "c2sc-1" pi.smcp
EndChar
StartChar: Sigma
Encoding: 931 931 993
Width: 626
Flags: HW
HStem: 2.48309 38.5169<150 472.628> 648.077 36.8923<179.454 467.505> 659 31<28 50.0696>
VStem: 518 30<539 620.59> 578 28<152.034 171.75>
AnchorPoint: "Top" 458.577 699 basechar 0
AnchorPoint: "Bottom" 303.812 -15 basechar 0
LayerCount: 2
Back
SplineSet
18 548 m 1
 48 615 49 708 105 719 c 1
 122 700 144 680 146 680 c 0
 180.209416188 679.287344186 359.180360402 676.03515625 493.947265625 676.03515625 c 3
 556.234189517 676.03515625 599.343509288 678 635 678 c 1
 661 639 l 1
 662 639 656 633 655 633 c 0
 649 632 206 69 198 67 c 1
 294 67 404.968757626 70 469 70 c 3
 574.0428484 70 587 92 615 178 c 1
 677 150 l 1
 639 61 625 15 594 -30 c 1
 562 -11 561.022460938 2 473 2 c 3
 356.982421875 2 105 3 42 0 c 1
 22 53 l 1
 64 74 95 105 126 138 c 1
 248 284 376 456 497 606 c 1
 500 610 l 1
 478 606 150 606 139 605 c 1
 117 611 109 599 79 528 c 1
 18 548 l 1
EndSplineSet
Fore
SplineSet
40.212890625 1 m 1xd8
 32.265625 53 l 1
 69.234375 68.0341796875 104.423828125 92.0625 129.65625 116 c 0
 208.681640625 190.967773438 288.51171875 266.940429688 367.97265625 343.299804688 c 1
 322.479492188 421.344726562 257.389648438 515.115234375 214.018554688 588.299804688 c 0
 195.274414062 619.928710938 183.048828125 628.299804688 157.973632812 635 c 1
 180.6640625 690 l 1xb8
 252.411132812 686.35546875 332.18359375 684.96875 413.55078125 684.96875 c 0
 562.403320312 684.96875 697.157226562 689.186523438 715.301757812 693 c 1
 729.615234375 676.72265625 734.022460938 667.532226562 730.952148438 653.086914062 c 0
 727.483398438 636.768554688 701.7421875 609.34375 672.954101562 522 c 1
 615.31640625 519 l 1
 608.841796875 554.234375 639.501953125 603.545898438 588.872070312 611 c 1
 546.524414062 617.612304688 477.881835938 621.077148438 411.21875 621.077148438 c 0
 388.397460938 621.077148438 354.724609375 619.799804688 334.185546875 617.193359375 c 1
 371.041992188 553.228515625 415.26953125 488.633789062 455.502929688 425.299804688 c 0
 464.918945312 410.477539062 491.071289062 389.299804688 505.750976562 381.299804688 c 1
 491.721679688 315.299804688 l 1
 473.52734375 307.461914062 442.532226562 292.522460938 431.456054688 281.299804688 c 0
 356.748046875 205.602539062 285.228515625 137.913085938 212.028320312 66 c 1
 274.590820312 67 337.786132812 67 400.241210938 67 c 0
 422.645507812 67 464.288085938 70.7919921875 487.4296875 82 c 0
 541.547851562 108.211914062 556.212890625 117.05078125 604.047851562 179 c 1
 655.646484375 163 l 1
 620.041992188 99.7177734375 596.250976562 59.447265625 567 0 c 1
 418.282226562 -0.7734375 288.5234375 2.4833984375 164.139648438 2.4833984375 c 0
 126.80078125 2.4833984375 86.630859375 2.08984375 40.212890625 1 c 1xd8
EndSplineSet
Position2: "cpsp-1" dx=0 dy=0 dh=50 dv=111
Substitution2: "c2pc-1" sigma.pcap
Substitution2: "c2sc-1" sigma.smcp
EndChar
StartChar: Upsilon
Encoding: 933 933 995
Width: 734
Flags: HW
HStem: -11 42<192 270.062 401.394 490.814> 624 76<53.2333 162.515 523.65 633.052>
VStem: 304.377 78.0224<61.5545 369.397>
AnchorPoint: "Top" 515.577 699 basechar 0
AnchorPoint: "Bottom" 359.812 -15 basechar 0
LayerCount: 2
Back
SplineSet
274 611 m 1xb0
 255 612 252 604 241 604 c 0
 239 604 232 593 233 592 c 1
 292 481 370 385 396 348 c 1
 435 414 542 599 542 594 c 1
 546 599 549 606 537 607 c 0
 527 608 510 608 499 613 c 1
 504 688 l 1
 525 683 566 677 608 677 c 3
 637 677 667 682 688 689 c 1
 698 610 l 1
 659 610 643 603 633 590 c 1
 564 515 491 393 444 291 c 1
 443 249 440 205 450 88 c 0
 452 72 497 69 550 66 c 1
 541 -6 l 1
 488 0 438 0 389 0 c 3
 344 0 298 0 250 -11 c 1
 232 63 l 1
 302 72 340 79 338 94 c 1
 338 97 335 261 336 264 c 1
 313 297 221 456 106 591 c 1
 102 600 76 603 44 617 c 1
 50 687 l 1
 82 683 131 678 175 678 c 3xd0
 210 678 243 680 265 686 c 1
 274 611 l 1xb0
EndSplineSet
Fore
SplineSet
493.868164062 324 m 0
 481.234375 290.205078125 471.086914062 252.581054688 462.958984375 214.342773438 c 0
 455.262695312 178.133789062 450.826171875 140.71484375 445.806640625 112 c 0
 439.221679688 74.3369140625 447.7734375 72.8330078125 539.028320312 66 c 1
 514.299804688 -8 l 1
 463.215820312 -2.75 415.614257812 1 366.962890625 1 c 0
 319.608398438 1 271.297851562 -2.3330078125 217.662109375 -11 c 1
 221.390625 63 l 1
 328.1328125 75.8984375 330.62890625 79.6103515625 338.380859375 110 c 0
 343.1171875 128.563476562 353.009765625 168.345703125 361.438476562 212 c 0
 370.30078125 257.896484375 376.877929688 308.258789062 377.081054688 325 c 0
 378.275390625 423.716796875 352.979492188 584 236.1328125 584 c 3
 217.717773438 584 198.168945312 578.666992188 175.732421875 568 c 1
 155.998046875 621 l 1
 179.524414062 647 242.088867188 692 283.088867188 692 c 3
 458.088867188 692 436.412109375 477.106445312 440.694335938 342 c 1
 501.412109375 477.106445312 571.088867188 692 746.088867188 692 c 3
 787.088867188 692 829.524414062 647 841.998046875 621 c 1
 799.732421875 568 l 1
 781.830078125 578.666992188 764.548828125 584 746.1328125 584 c 3
 628.690429688 584 531.442382812 424.505859375 493.868164062 324 c 0
EndSplineSet
Position2: "cpsp-1" dx=0 dy=0 dh=50 dv=111
Substitution2: "c2pc-1" upsilon.pcap
Substitution2: "c2sc-1" upsilon.smcp
EndChar
StartChar: Psi
Encoding: 936 936 998
Width: 756
Flags: HW
HStem: -10 40<201.125 307.208> 321 31<296.897 323 399 433.213> 652 43<233.349 310.63>
VStem: 323 76<43.9251 324.486 352 593>
AnchorPoint: "Top" 523.525 679 basechar 0
LayerCount: 2
Back
SplineSet
235 692 m 1
 277.675324675 680.705882353 317.935064935 676 359 676 c 3
 400.75625 676 444.15 681.571428571 490 689 c 1
 494 611 l 1
 469.572916667 612 427.13216372 609.991227901 427 609 c 0
 417 534 414 428 414 283 c 3
 414 215 420 150.102496759 420 72 c 0
 420 67 462 64 520 64 c 1
 515 -8 l 1
 464 -1 411 0 360 0 c 3
 304 0 249 -2 200 -11 c 1
 193 65 l 1
 259 66 302.39925152 58.9800405349 303 75 c 0
 306 155 308 257 308 362 c 3
 308 465 303 547.923778049 303 607 c 0
 303 610 251.057692308 615 229 616 c 1
 235 692 l 1
EndSplineSet
Fore
SplineSet
398.088867188 692 m 1
 438.213867188 680 477.411132812 675 518.475585938 675 c 0
 560.231445312 675 604.901367188 681 652.451171875 689 c 1
 639.872070312 611 l 1
 615.657226562 612 572.790039062 609.991210938 572.447265625 609 c 0
 550.973632812 543.54296875 529.15234375 457.630859375 504.409179688 347.272460938 c 1
 661.189453125 411.215820312 659.454101562 672 821.837890625 672 c 0
 870.96875 672 884.385742188 641.412109375 889.021484375 607 c 1
 705.573242188 524.169921875 692.01953125 329.004882812 491.489257812 288.873046875 c 1
 475.225585938 214.189453125 468.453125 152.678710938 451.303710938 72 c 0
 450.241210938 67 491.603515625 64 549.603515625 64 c 1
 529.299804688 -8 l 1
 479.787109375 -1 427 0 376 0 c 0
 320 0 264.575195312 -2 213.662109375 -11 c 1
 222.81640625 65 l 1
 289.028320312 66 330.935546875 58.98046875 334.94140625 75 c 0
 350.418945312 135.415039062 368.228515625 210.4296875 385.333984375 288.96484375 c 1
 203.084960938 330.149414062 272.418945312 524.905273438 125.021484375 607 c 1
 144.174804688 640.8828125 170.494140625 671 219.625 671 c 0
 382.151367188 671 269.819335938 412.608398438 397.983398438 348.19921875 c 1
 420.645507812 456.009765625 434.510742188 543.436523438 448.021484375 607 c 0
 448.659179688 610 397.780273438 615 375.934570312 616 c 1
 398.088867188 692 l 1
EndSplineSet
Position2: "cpsp-1" dx=0 dy=0 dh=50 dv=111
Substitution2: "c2pc-1" psi.pcap
Substitution2: "c2sc-1" psi.smcp
EndChar
StartChar: beta
Encoding: 946 946 1004
Width: 531
UnlinkRmOvrlpSave: 1
Flags: HMW
LayerCount: 2
Fore
SplineSet
-5.5654296875 -162 m 1
 34.3359375 -31.2353515625 63.419921875 100.260742188 104.046875 244 c 0
 169.598632812 475.918945312 274.387695312 711 423.368164062 711 c 3
 515.563476562 711 562.466796875 637.831054688 548.390625 558 c 0
 523.606445312 417.440429688 362.19921875 280.716796875 247.490234375 275 c 1
 237.31640625 279.6875 234.5 317.1875 238.71484375 350 c 1
 268.8515625 365.7578125 300.254882812 376 340.298828125 376 c 3
 456.891601562 376 538.611328125 281.357421875 516.859375 158 c 0
 497.299804688 47.0703125 383.955078125 -25 278.591796875 -25 c 3
 187.350585938 -25 134.760742188 27 86.75390625 78 c 1
 93.9248046875 113 98.6279296875 134 105.798828125 169 c 1
 148.780273438 108.833007812 190.951171875 55 275.698242188 55 c 3
 340.470703125 55 388.584960938 88.384765625 404.5625 179 c 0
 418.225585938 256.48828125 384.942382812 309.234375 322.608398438 321.041992188 c 1
 308.185546875 347 l 1
 373.771484375 376.837890625 419.405273438 450.331054688 433.629882812 531 c 0
 441.83203125 577.51953125 442.735351562 631 388.262695312 631 c 3
 284.147460938 631 130.366210938 204.106445312 104.319335938 -174 c 1
 63.3828125 -172.762695312 19.970703125 -173.112304688 -5.5654296875 -162 c 1
EndSplineSet
Substitution2: "pcap-1" b.pcap
Substitution2: "smcp-1" b.smcp
EndChar
StartChar: delta
Encoding: 948 948 1006
Width: 580
UnlinkRmOvrlpSave: 1
Flags: HMW
LayerCount: 2
Back
SplineSet
134 186 m 3
 134 113 179 31 252 31 c 3
 273 31 360 67 360 206 c 3
 360 415 -2 500 -2 648 c 3
 -2 691 28 754 125 754 c 3
 228 754 401 674 447 651 c 1
 446 623 405 611 374 605 c 1
 329 630 193 707 103 707 c 3
 67 707 42 686 42 655 c 3
 42 530 433 457 433 236 c 3
 433 97 333 -9 227 -9 c 3
 100 -9 55 90 55 154 c 0
 55 298 159 378 261 378 c 3
 294 378 317 369 350 363 c 1
 344 333 l 1
 323 342 297 351 266 351 c 3
 172 351 134 254 134 186 c 3
EndSplineSet
Fore
SplineSet
174.099609375 225.059570312 m 3
 174.099609375 146.149017137 218.222565215 57.509765625 289.799804688 57.509765625 c 3
 312.792860243 57.509765625 408.049804688 90.051796875 408.049804688 215.700195312 c 3
 408.049804688 475.926916007 113.950195312 458.457316546 113.950195312 634.740234375 c 3
 113.950195312 678.656931751 148.450149176 743 260 743 c 3
 354.139378518 743 512.256975446 646.200091019 554.299804688 618.370117188 c 1
 553.035423801 574.92743716 501.19580747 556.30914572 462 547 c 1
 423.260180033 575.95340265 306.179835246 665.129882812 228.700195312 665.129882812 c 3
 207.955702485 665.129882812 193.549804688 656.277606671 193.549804688 643.209960938 c 3
 193.549804688 533.640158559 512 517.194812511 512 252 c 3
 512 102.850362723 390.179516839 -10.8896484375 261.049804688 -10.8896484375 c 3
 114.999948901 -10.8896484375 63.25 108.900043137 63.25 186.33984375 c 0
 63.25 360.579868862 182.850197209 457.379882812 300.150390625 457.379882812 c 3
 338.100245787 457.379882812 364.550144838 446.490234375 402.5 439.23046875 c 1
 395.599609375 377.9296875 l 1
 371.449819712 388.819824219 341.550080128 399.709960938 305.900390625 399.709960938 c 3
 212.042258523 399.709960938 174.099609375 297.036700994 174.099609375 225.059570312 c 3
EndSplineSet
Substitution2: "pcap-1" delta.pcap
Substitution2: "smcp-1" delta.smcp
EndChar
StartChar: kappa
Encoding: 954 954 1012
Width: 563
UnlinkRmOvrlpSave: 1
Flags: HMW
LayerCount: 2
Fore
SplineSet
277 303 m 1
 311.344791742 232.46758414 376.596316653 122.75 454.25 122.75 c 3
 477.53515625 122.75 497.63671875 134.879224546 507.150390625 144.209960938 c 1
 519.554517663 132.330078125 526.99443784 124.41015625 539.400390625 112.530273438 c 1
 523.553229554 44.76953125 496.105912126 -10.8896484375 437 -10.8896484375 c 3
 341.723682773 -10.8896484375 312.66910662 142.080279968 233 239 c 1
 277 303 l 1
31 451.970703125 m 1
 60.0406165082 483.545028406 99.9697944973 511 152 511 c 3
 192.319854327 511 209.600585938 489.313476562 209.600585938 457.760742188 c 3
 209.600585938 330.534970001 191.076997191 259.920060517 179.5 133.099609375 c 1
 165.461007872 135.51953125 158.439382753 135.51953125 144.400390625 137.940429688 c 1
 173.064637115 256.664458026 270.153398154 405.38317793 413.400390625 515.360351562 c 1
 450.93860394 506.129247801 466.745966372 437.817382812 474.650390625 411.969726562 c 1
 335.697898995 367.274081248 211.471399884 204.312511853 193.299804688 124.629882812 c 0
 182.373046875 75.671875 182.950195312 48.138671875 176.049804688 -1.2099609375 c 1
 137.012228261 -1.6259765625 89.3890752378 -0.9599609375 77.0498046875 4.83984375 c 1
 89.7788454225 154.009707172 109.450195312 239.529752422 109.450195312 388.790039062 c 3
 109.450195312 400.982118762 111.78125 417.870117188 91.0498046875 417.870117188 c 3
 77.9642630517 417.870117188 71.9959061353 409.48828125 60.2001953125 403.900390625 c 1
 31 451.970703125 l 1
EndSplineSet
Substitution2: "pcap-1" k.pcap
Substitution2: "smcp-1" k.smcp
EndChar
StartChar: nu
Encoding: 957 957 1015
Width: 552
Flags: HMW
LayerCount: 2
Fore
SplineSet
123.939453125 -14.51953125 m 1
 124.580078125 -10.8896484375 153.663085938 72.7412109375 194.637695312 229.900390625 c 0
 215.955078125 311.665039062 215.3984375 406.33984375 173.998046875 406.33984375 c 0
 157.059570312 406.33984375 152.0546875 384.357421875 143.958007812 367.259765625 c 1
 92.01171875 383.73046875 l 1
 106.356445312 465.08203125 169.770507812 506.990234375 206.696289062 506.990234375 c 0
 255.232421875 506.990234375 339.975585938 466.041015625 309.39453125 292.610351562 c 0
 294.250976562 206.72265625 258.022460938 102.208984375 256.927734375 96 c 1
 271.888671875 96 439.923828125 173.962890625 464.72265625 314.599609375 c 0
 476.876953125 383.530273438 440.09375 392.254882812 413.47265625 394 c 1
 412.32421875 400.529296875 411.998046875 411.721679688 414.30078125 424.780273438 c 0
 421.098632812 463.334960938 483.37890625 521.509765625 496.755859375 521.509765625 c 3
 516.305664062 521.509765625 578.022460938 473.680664062 557.440429688 356.950195312 c 0
 533.7578125 222.639648438 427.983398438 128.694335938 340.977539062 75.01953125 c 0
 242.91015625 14.51953125 145.446289062 -22.990234375 131.646484375 -22.990234375 c 1
 123.939453125 -14.51953125 l 1
EndSplineSet
Substitution2: "pcap-1" n.pcap
Substitution2: "smcp-1" n.smcp
EndChar
StartChar: sigma1
Encoding: 962 962 1020
Width: 437
Flags: HMW
LayerCount: 2
Fore
SplineSet
374.888671875 368 m 1xee
 358.663085938 383.594726562 312.756835938 403.08984375 292.525390625 403.08984375 c 3
 258.924804688 403.08984375 182.545898438 335.999023438 162.557617188 222.639648438 c 0
 146.876953125 133.709960938 188.501953125 115.639648438 237.740234375 115.639648438 c 3
 260.421875 115.639648438 274.030273438 119.26953125 297.030273438 119.26953125 c 3
 394.124023438 119.26953125 407.206054688 61.2841796875 396.400390625 0 c 0
 379.112304688 -98.0458984375 285.311523438 -174.240234375 234.926757812 -174.240234375 c 3
 190.661132812 -174.240234375 164.208007812 -162.040039062 154.8203125 -147.620117188 c 1
 155.782226562 -125.462890625 209.596679688 -55.8271484375 245.947265625 -40 c 1
 260.581054688 -49.2568359375 273.657226562 -64.0703125 290.002929688 -64.0703125 c 3
 317.747070312 -64.0703125 323.240234375 -47.978515625 325.299804688 -36.2998046875 c 0
 331.038085938 -3.7568359375 317.0859375 1.419921875 238.299804688 1.419921875 c 3
 125.915039062 1.419921875 111.3046875 23.05859375 90.7353515625 65.98828125 c 0
 82.6552734375 82.8505859375 73.6689453125 124.02734375 82.9501953125 176.66015625 c 0xde
 96.2890625 252.310546875 146.720703125 356.120117188 214.641601562 429.549804688 c 0
 268.279296875 487.538085938 335.970703125 514.990234375 387.056640625 514.990234375 c 3xde
 423.635742188 514.990234375 456.159179688 498.049804688 468.61328125 488.370117188 c 1
 448.499023438 442.82421875 412.802734375 374.334960938 374.888671875 368 c 1xee
EndSplineSet
Substitution2: "pcap-1" sigma.pcap
Substitution2: "smcp-1" sigma.smcp
EndChar
StartChar: sigma
Encoding: 963 963 1021
Width: 550
Flags: HMW
LayerCount: 2
Fore
SplineSet
605.989257812 506.099609375 m 1
 604.168945312 482.16015625 606.844726562 456.509765625 602.924804688 434.280273438 c 0
 600.083007812 418.1640625 591.01171875 403.288085938 574.4296875 394.610351562 c 1
 514.629882812 394.610351562 480.129882812 394.610351562 420.330078125 394.610351562 c 3
 262.8515625 394.610351562 201.344726562 304.235351562 180.770507812 187.549804688 c 0
 170.024414062 126.607421875 191.995117188 59.669921875 265.571289062 59.669921875 c 3
 325.443359375 59.669921875 361.274414062 126.040039062 375.3203125 205.700195312 c 0
 382.154296875 244.456054688 367.22265625 275.61328125 353.369140625 300.690429688 c 1
 373.344726562 318.16015625 380.875976562 322.530273438 400.8515625 340 c 1
 469.049804688 321.293945312 495.309570312 249.58984375 481.3828125 170.610351562 c 0
 461.75390625 59.2900390625 367.18359375 -9.6796875 265.092773438 -9.6796875 c 3
 138.592773438 -9.6796875 78.7880859375 107.690429688 101.190429688 234.740234375 c 0
 124.741210938 368.299804688 213.958984375 458.759765625 312.375 486.740234375 c 0
 359.188476562 500.049804688 465.569335938 506.099609375 605.989257812 506.099609375 c 1
EndSplineSet
Substitution2: "pcap-1" sigma.pcap
Substitution2: "smcp-1" sigma.smcp
EndChar
StartChar: afii10042
Encoding: 1064 1064 1259
Width: 986
Flags: HMW
LayerCount: 2
Fore
SplineSet
786 621 m 0
 784.855241642 657.020507812 747.069767442 653 724 660 c 1
 724 660 728 683 729 697 c 1
 815.709677419 681 881.64516129 678 953 695 c 1
 953 695 958 671 960 653 c 1
 924 647 884.654509778 646.966566916 883 621 c 0
 871 432.666992188 864.926596032 97.0878410415 878 56 c 0
 885 34 917 34 955 29 c 1
 952 -9 l 1
 916.08203125 -4.40625 883.172513169 0.975798979549 849.5 0.8408203125 c 0
 648.677183494 0.0458984375 339.948585099 15.6636818613 131.5 1.28515625 c 0
 101.45703125 -0.8134765625 69.7958984375 -6.4052734375 31 -16 c 1
 25 21 l 1
 74 33 85.2032593389 30.9862226218 87 59 c 0
 98 230.505859375 116.637399072 570.118335911 94 633 c 0
 85 658 57 659 27 661 c 1
 27 661 32 681 31 695 c 1
 98.0043290043 680 168.783549784 678 249 698 c 1
 249 698 255 675 257 663 c 1
 217.833333333 653 193.626516701 651.010440581 192 624 c 0
 180.609375 434.84375 182.538764473 281.140276978 187 72 c 0
 187.356445312 55.2900390625 209.978905886 40.4243546136 247.5 39.46875 c 0
 291.351847103 38.4191040417 342.77863998 31.742388044 397.091796875 37.4580078125 c 0
 416.347036544 39.6140388531 429.359510228 45.3378938377 430 51 c 0
 443.03515625 166.234375 446.516520452 478.884977091 442 621 c 0
 440.855241642 657.020507812 403.069767442 653 380 660 c 1
 380 660 384 683 385 697 c 1
 466.677419355 681 528.786290323 678 596 695 c 1
 596 695 601 671 603 653 c 1
 573.077922078 647 540.653475336 646.950331951 539 621 c 0
 527 432.666992188 520.926782334 97.0879003189 534 56 c 0
 537.244691833 45.8022370599 545.383048099 36.9101171232 557.956054688 36.8984375 c 0
 615.1701089 36.8452888288 671.624837412 36.8875872183 723.5 36.56640625 c 0
 752.048828125 36.3896484375 773.179381373 43.7455050975 774 51 c 0
 787.03515625 166.234375 790.516520452 478.884977091 786 621 c 0
EndSplineSet
Position2: "cpsp-1" dx=0 dy=0 dh=50 dv=100
EndChar
StartChar: afii10046
Encoding: 1068 1068 1254
Width: 599
Flags: HW
HStem: -4 38<46 121.25 221.864 426.918> 349 30<212 401.244> 657 31<43 107.778>
VStem: 126 92<379.105 642.778> 127 86<43.6312 349 379 631.173> 494 90<96.7035 268.078>
LayerCount: 2
Fore
SplineSet
327 349 m 0xec
 210 349 l 1
 211 251 211.405071907 155.012339425 213 96 c 0
 214 59 218.606582411 44.9226914213 245 41 c 0
 258.456790124 39 319.012345679 34 354 34 c 3
 433.50617284 34 494 83 494 178 c 3
 494 262 445.810945274 349 327 349 c 0xec
218 616 m 0xf4
 212.870297654 523.66535778 212 379 212 379 c 1
 283.017761066 379 345.251480651 379.707271074 404 371.883789062 c 0
 519.134450796 356.551448525 584 273.933306029 584 181 c 3
 584 70 490.597701149 -4 345 -4 c 3
 282.725 -4 223.975 2 157 2 c 3
 98 2 53 -2 46 -2 c 1
 43 34 l 1
 90 36 127 35.9459853727 127 73 c 0xec
 127 78 130 176 130 292 c 3
 130 462.579439252 129.145990654 531.058252345 126 616 c 0
 125 643 111 643 38 657 c 1
 43 688 l 1
 116.294 681.428571429 204 681.571428571 316 692 c 1
 318 649 l 1
 260 647 220 652 218 616 c 0xf4
EndSplineSet
Position2: "cpsp-1" dx=0 dy=0 dh=50 dv=100
EndChar
StartChar: afii57666
Encoding: 1490 1490 2394
Width: 405
UnlinkRmOvrlpSave: 1
Flags: HW
AnchorPoint: "HbMiddle" 176.2 292.52 basechar 0
AnchorPoint: "HbTopLeft" 161.549 638.023 basechar 0
AnchorPoint: "HbBottom" 207.92 0 basechar 0
AnchorPoint: "HbTop" 257.96 638.023 basechar 0
LayerCount: 2
Back
SplineSet
39.6865234375 15.052734375 m 1
 80.5068359375 154.619140625 l 1
 127.460175787 170.082815857 187.987527468 172.915617174 254.869140625 167.12890625 c 1
 252.506835938 110.71875 l 1
 186.539360364 66.6233648346 142.270615985 32.7403608368 82.3525390625 -13.3603515625 c 1
 39.6865234375 15.052734375 l 1
176.71875 601.153320312 m 1
 194.589227185 596.434904126 212.459101976 591.71648794 230.326171875 587 c 1
 236.758185415 581.83968149 241.408631614 577.298285878 248.60546875 573.6875 c 0
 271.971951877 563.667138241 287.619162251 550.978436172 300.545898437 534.924804688 c 1
 336.047851562 497.190429688 343.84765625 434.673828125 335.455078125 380.9765625 c 1
 326.592773437 287.281477451 320.262478229 188.625278353 319.276367188 113.891601562 c 1
 249.750976563 -16.892578125 l 1
 191.116210938 -7.142578125 l 1
 177.236285665 75.6300806069 239.465229204 202.612447187 272.884765626 303.478515625 c 0
 283.501953126 330.854734961 271.424284358 369.25556641 239.827148437 390 c 1
 221.996804806 403.987738311 159.011744931 422.185324615 141.15234375 442.325195312 c 1
 122.819315565 482.0313517 147.789542447 541.592909894 176.71875 601.153320312 c 1
EndSplineSet
Fore
SplineSet
26.6865234375 15.052734375 m 5
 67.5068359375 154.619140625 l 5
 114.459960938 170.083007812 174.987304688 172.916015625 241.869140625 167.12890625 c 5
 239.506835938 110.71875 l 5
 173.5390625 66.623046875 129.270507812 32.740234375 69.3525390625 -13.3603515625 c 5
 26.6865234375 15.052734375 l 5
176.71875 601.153320312 m 1
 194.589227185 596.434904126 212.459101976 591.71648794 230.326171875 587 c 1
 236.758185415 581.83968149 241.408631614 577.298285878 248.60546875 573.6875 c 0
 271.971951877 563.667138241 287.619162251 550.978436172 300.545898437 534.924804688 c 1
 336.047851562 497.190429688 343.84765625 434.673828125 335.455078125 380.9765625 c 1
 326.592773437 287.281477451 320.262478229 188.625278353 319.276367188 113.891601562 c 1
 249.750976563 -16.892578125 l 1
 191.116210938 -7.142578125 l 1
 177.236285665 75.6300806069 239.465229204 202.612447187 272.884765626 303.478515625 c 0
 283.501953126 330.854734961 271.424284358 369.25556641 239.827148437 390 c 1
 221.996804806 403.987738311 159.011744931 422.185324615 141.15234375 442.325195312 c 1
 122.819315565 482.0313517 147.789542447 541.592909894 176.71875 601.153320312 c 1
EndSplineSet
EndChar
StartChar: afii57670
Encoding: 1494 1494 2398
Width: 350
UnlinkRmOvrlpSave: 1
Flags: HW
AnchorPoint: "HbTopLeft" 136.128 638.023 basechar 0
AnchorPoint: "HbBottom" 169.5 0 basechar 0
AnchorPoint: "HbTop" 241.58 639.218 basechar 0
LayerCount: 2
Fore
SplineSet
226.47265625 587 m 1
 266.861724165 583.614513031 341.589000045 584.452814423 370.229492188 571.295898438 c 1
 352.211277656 523.981520606 335.579483775 476.665027749 321.838867187 430.662109375 c 1
 264.303597049 414.945712085 228.253681799 384.318424635 214.30078125 333.750976562 c 1
 166.595156578 210.524604737 236.440471593 119.578538127 234.278320312 90.4931640625 c 1
 212.695757786 55.0533179132 188.666325799 18.2502270766 170.920898437 -13.1015625 c 1
 114.870117188 -4.779296875 l 1
 113.709189761 136.553670166 81.8307163382 255.514432552 148.346679687 381.08203125 c 1
 160.703146841 402.146409395 208.007578788 451.403167355 222.330078125 463.458984375 c 1
 218.561877381 470.350895576 259.66399866 411.852430995 255.0234375 416.994140625 c 1
 247.904296875 423.086713003 165.947265625 435.971123369 161.407226562 438.3046875 c 1
 131.693338859 445.024447142 84.5147582604 452.70946079 75.9482421875 468.486328125 c 1
 129.53515625 604.46484375 l 1
 183.5078125 592.870117188 l 1
 226.47265625 587 l 1
EndSplineSet
EndChar
StartChar: afii57673
Encoding: 1497 1497 2401
Width: 323
UnlinkRmOvrlpSave: 1
Flags: HW
AnchorPoint: "HbTopLeft" 75.3486 638.023 basechar 0
AnchorPoint: "HbBottom" 169.5 0 basechar 0
AnchorPoint: "HbTop" 162.72 629.659 basechar 0
LayerCount: 2
Fore
SplineSet
146.576171875 619.854492188 m 5
 163.127229416 610.7426225 178.79090924 604.685111875 196.33984375 594.573242188 c 5
 212.052734375 585 l 5
 241.858564324 567.388582447 280.880108835 552.887162844 305.161132812 519.737304688 c 5
 316.196289063 499.426757812 318.301389758 481.504716197 316.349609375 462.387695312 c 4
 315.0078125 437.154632233 309.625830063 420.521819401 298.140569528 402 c 4
 267.888387126 356.592973263 236.225797526 313.723371759 186.2890625 259.3125 c 5
 135.286132812 287 l 5
 153.826860193 308.154327019 173.756652479 334.698249527 193.114257812 360.806640625 c 4
 201.529752668 372.540614056 202.594293694 421.190330887 197.868164062 423.001953125 c 4
 145.989415802 443.015267425 100.064362179 469.258040031 82.4951171875 498.579101562 c 5
 90.4138998242 535.812414982 97.0332285166 574.109683606 146.576171875 619.854492188 c 5
EndSplineSet
EndChar
StartChar: uni05F3
Encoding: 1523 1523 2422
Width: 189
Flags: HW
LayerCount: 2
Fore
SplineSet
53.98046875 334.543945312 m 5
 88.1306986699 407.268554688 125.443742914 473.19921875 136.743164062 595.009765625 c 5
 220.278320312 585.931640625 l 5
 206.521876683 482.674686533 167.06183219 397.943914855 105.5390625 313.99609375 c 5
 53.98046875 334.543945312 l 5
EndSplineSet
EndChar
StartChar: uni1FFE
Encoding: 8190 8190 1609
Width: 278
Flags: HW
HStem: 479 56<144.476 196>
VStem: 63 75<543.614 606.331>
AnchorPoint: "Top" 120 537 mark 0
LayerCount: 2
Fore
SplineSet
196 566 m 1
 136.625 566 63 589.406113383 63 682 c 3
 63 759.302600419 131.74382402 777.970198299 140.436523438 786.599609375 c 0
 142.002447656 788.154132676 146.836914062 789.799804688 151.63671875 789.799804688 c 3
 156.436523437 789.799804688 162.618766717 786.902432527 162.836914062 782.599609375 c 0
 163.670828903 766.151148442 188.015663865 735.121941985 197.236328125 728.200195312 c 0
 200.681886633 725.613691513 202.836914062 722.599609375 202.836914062 717.799804688 c 3
 202.836914062 713 201.075352598 707.755250019 197.236328125 705.799804688 c 0
 169.935858258 691.894038595 138 701.237532151 138 662 c 3
 138 634.622583574 168.518862083 622 197 622 c 1
 196 566 l 1
EndSplineSet
EndChar
StartChar: uni2035
Encoding: 8245 8245 2372
Width: 148
Flags: HW
HStem: 425.304 296.492
VStem: -7.06836 145.744
LayerCount: 2
Fore
SplineSet
138.67578125 442.926757812 m 1
 84.6435546875 425.303710938 l 1
 -7.068359375 698.2578125 l 1
 84.375 721.795898438 l 1
 97.4278056782 628.8394604 109.150595151 535.883104385 138.67578125 442.926757812 c 1
EndSplineSet
EndChar
StartChar: uni2080
Encoding: 8320 8320 1390
Width: 344
Flags: HW
HStem: -80.1904 58.0342<129.981 229.622> 136.84 58.3115<114.774 214.266>
VStem: 26.54 73.6611<8.9046 121.642> 243.659 70.3408<-7.7276 107.813>
LayerCount: 2
Back
SplineSet
176.01953125 139.151367188 m 0
 126.79763874 139.151367188 82.5400390625 100.173433884 82.5400390625 55.115234375 c 0
 82.5400390625 10.457085469 118.744573961 -24.1904296875 169.203125 -24.1904296875 c 0
 220.054085275 -24.1904296875 258 7.44495281334 258 55.4814453125 c 0
 258 103.147098568 220.475678907 139.151367188 176.01953125 139.151367188 c 0
176.01953125 195.151367188 m 0
 251.454260472 195.151367188 314 133.836415808 314 55.4814453125 c 0
 314 -28.6152697551 243.854420129 -80.1904296875 169.203125 -80.1904296875 c 0
 92.0666648811 -80.1904296875 26.5400390625 -23.6076344212 26.5400390625 55.115234375 c 0
 26.5400390625 137.091343623 100.935753418 195.151367188 176.01953125 195.151367188 c 0
EndSplineSet
Fore
Refer: 2446 58358 N 1 0 0 1 0 -80 2
Substitution2: "'zero' Slashed Zero lookup 22-1" uni2080.alt
EndChar
StartChar: uni219C
Encoding: 8604 8604 2531
Width: 648
Flags: HW
HStem: -102.22 53.0937<412.84 475.517> 51.6777 52.2207<464.075 489.533> 194.316 70.7607<440.609 521.099> 256.447 62.8281<143.712 240.261> 548.271 62.0498<131.073 228.176>
VStem: 25.4316 77.7295<367.242 517.01> 267.127 74.4727<345.85 504.569> 521.474 85.4844<133.804 193.006> 534.059 91.8896<-6.36076 63.4024>
LayerCount: 2
Fore
SplineSet
185.637695312 -16.025390625 m 1
 135.98828125 21.287109375 l 1
 517.362304688 526.025390625 l 1
 567.01171875 488.712890625 l 1
 185.637695312 -16.025390625 l 1
173.828125 545.028320312 m 3
 127.93359375 545.028320312 99.8447265625 492.166015625 99.8447265625 452.939453125 c 3
 99.8447265625 383.086914062 136.997070312 323.032226562 195.423828125 323.032226562 c 3
 242.334960938 323.032226562 268.600585938 372.762695312 268.600585938 419.076171875 c 3
 268.600585938 493.270507812 229.4921875 545.028320312 173.828125 545.028320312 c 3
187.036132812 606.704101562 m 3
 278.405273438 606.704101562 341.040039062 523.4296875 341.040039062 433.495117188 c 3
 341.040039062 338.087890625 271.099609375 260.68359375 183.606445312 260.68359375 c 3
 92.1318359375 260.68359375 24.142578125 335.622070312 24.142578125 434.634765625 c 3
 24.142578125 519.2890625 95.044921875 606.704101562 187.036132812 606.704101562 c 3
397.37890625 -46.11328125 m 1
 506.813476562 -30.4296875 536.193359375 7.3359375 536.193359375 32.490234375 c 3
 536.193359375 54.451171875 520.436523438 63.9365234375 508.813476562 70.8701171875 c 1
 502.555664062 68.54296875 481.165039062 56.4921875 465.89453125 54.490234375 c 1
 445.515625 103.608398438 l 1
 481.948242188 116.927734375 524.166015625 137.126953125 524.166015625 172.2109375 c 3
 524.166015625 184.764648438 508.275390625 191.82421875 495.505859375 191.82421875 c 3
 460.499023438 191.82421875 442.8125 175.529296875 425.4921875 162.95703125 c 1
 399.111328125 209.912109375 l 1
 415.802734375 233.158203125 475.194335938 262.309570312 512.283203125 262.309570312 c 3
 567.626953125 262.309570312 609.501953125 230.303710938 609.501953125 188.786132812 c 3
 609.501953125 145.884765625 587.987304688 124.732421875 573.688476562 113.920898438 c 1
 595.697265625 101.790039062 628.092773438 77.9267578125 628.092773438 36.4033203125 c 3
 628.092773438 -50.861328125 482.518554688 -95.1064453125 411.959960938 -99.1982421875 c 1
 397.37890625 -46.11328125 l 1
EndSplineSet
EndChar
StartChar: d.pcap
Encoding: 57350 57350 646
Width: 595
Flags: HW
HStem: -4 66<61.9206 110.892 225.322 383.094> 442 68<218.202 382.491> 442 57<60.9008 107.459 217.34 297.302>
VStem: 111 115<62.0683 327.143> 111 105<62.0683 440.988> 472 106<152.262 352.992>
AnchorPoint: "Top" 306 537 basechar 0
AnchorPoint: "Bottom" 304 -15 basechar 0
LayerCount: 2
Back
SplineSet
107.84454725 420.837813049 m 1
 90.5676967882 417.62368421 70.1623613538 418.168273449 61.9806122122 419.136871715 c 2
 55.0325137524 419.926157847 l 1
 58.4730707422 499.60423487 l 1
 66.3242149263 498.870117188 l 2
 104.531973086 495.279453745 116.102523769 492.395507812 151.323242188 492.395507812 c 0
 211.111038681 492.395507812 241.160711078 502.685546875 300.047851562 502.685546875 c 0
 381.389541561 502.685546875 578.974609375 452.866610063 578.974609375 248.606445312 c 0
 578.974609375 50.6039450224 418.23925763 -0.2412109375 284.470703125 -0.2412109375 c 0
 235.589582905 -0.2412109375 210.250111376 4.904296875 157.5 4.904296875 c 0
 146.236854293 4.904296875 112.440682034 2.2684895631 70.2117093503 -5.541015625 c 2
 61.9726208252 -7.04686262523 l 1
 56.2866697756 73.4819581435 l 1
 63.7673920691 74.0114011425 l 2
 87.5305415077 75.7022695715 102.436496239 77.4462060731 111.520130319 77.4914284222 c 1
 111.444184 101.126506144 111.415039062 132.293789316 111.415039062 161.783203125 c 0
 111.415039062 264.383557696 109.511985394 364.539478359 107.84454725 420.837813049 c 1
224.805105642 77.3490359929 m 1
 247.023355101 78.6109429735 270.819114962 79.6240234375 300.948242188 79.6240234375 c 0
 404.527544743 79.6240234375 483.958984375 137.367656487 483.958984375 236.654296875 c 0
 483.958984375 353.561023597 422.418877495 419.03125 276.745117188 419.03125 c 0
 244.731523617 419.03125 236.996298357 418.623657067 218.690887641 420.780521335 c 1
 218.643398732 426.69707823 l 2
 216.098980058 399.166825808 215.447265625 360.34106966 215.447265625 325.088867188 c 0
 215.447265625 227.703183339 218.029171211 152.569781593 224.805105642 77.3490359929 c 1
EndSplineSet
Fore
SplineSet
301 65 m 3xd4
 397 65 472 130 472 241 c 3
 472 369 413 442 277 442 c 3
 251 442 247 442 231 442 c 0
 223 442 218 437 218 431 c 0
 216 404 216 366 216 332 c 3xcc
 216 228 220 149 226 69 c 0
 226 65 231 62 235 62 c 0
 254 63 275 65 301 65 c 3xd4
59 506 m 1
 100 502 112 499 151 499 c 3xb4
 212 499 242 510 300 510 c 3xd4
 382 510 578 459 578 253 c 3
 578 49 415 -4 279 -4 c 3
 231 -4 211 1 158 1 c 3
 145 1 108 -2 62 -10 c 1
 57 59 l 1
 97 62 111 63 111 68 c 0
 111 93 111 127 111 162 c 3
 111 274 108 409 107 437 c 0
 107 441 94 441 56 442 c 1xb4
 59 506 l 1
EndSplineSet
EndChar
StartChar: j.pcap
Encoding: 57356 57356 652
Width: 319
Flags: HW
HStem: 491 20G<39.3562 61 260.5 287.333>
VStem: 122 95<-60.7671 434.256>
AnchorPoint: "Top" 249.071 537 basechar 0
AnchorPoint: "Bottom" 224.74 -15 basechar 0
LayerCount: 2
Back
SplineSet
222.988788442 420.330387758 m 1
 216.545216379 347.093585627 218.197139263 278.113879779 218.287109375 172.59765625 c 0
 218.287109375 86.747424562 221.03003612 57.0340940225 221.03003612 25.0612657532 c 3
 221.03003612 -63.4777491185 136.451523404 -131.030570308 117.610380264 -146.961838358 c 1
 104.034253286 -158.747592659 91.5503770032 -168.638579008 79.4804691813 -180.759765625 c 0
 73.0469451293 -187.135443292 l 1
 27.7000545868 -119.019680967 l 1
 33.8644159045 -114.81612199 l 0
 51.826768564 -102.711110793 67.8839243993 -93.1711804622 81.0288412762 -82.583422872 c 1
 85.8319685314 -78.7962141454 90.9996896451 -73.7225502717 95.264313191 -69.1804282079 c 1
 108.407336587 -52.2546722342 119.661754512 -25.015460656 121.857792114 57.4406206698 c 0
 122.338299829 76.3419524431 117.510630806 372.064084369 116.456193149 421.896559294 c 1
 102.944810578 422.438348266 76.1179071929 423.929436959 42.5775971705 423.361539321 c 0
 34.2492718459 423.220046356 l 1
 41.8002103773 509.340141961 l 1
 50.4643231117 506.96875 l 0
 86.882432921 496.80606386 118.482324255 493.098632812 148.701171875 493.098632812 c 0
 190.454634077 493.098632812 230.276327972 499.496967487 278.927975831 506.96875 c 0
 287.017548329 508.203433154 l 1
 292.673574397 420.418037207 l 1
 283.941894701 421.216644161 l 0
 274.958406377 422.037439133 239.90771578 418.762015884 222.988788442 420.330387758 c 1
EndSplineSet
Fore
SplineSet
173.96484375 433 m 0
 172.96484375 433 137.96484375 433 93.0283203125 438 c 1
 114.544921875 511 l 1
 152.84375 503 207.994140625 499 227.994140625 499 c 3
 271.994140625 499 307.056640625 504 359.544921875 511 c 1
 348.602539062 436 l 1
 334.284179688 434.5 279.75390625 435.99609375 278.96484375 433 c 0
 258.1953125 354.102539062 242.266601562 283.868164062 218.700195312 173 c 1
 199.995117188 85 198.40625 54 189.604492188 22 c 1
 173.025390625 -56 104.859375 -104.819335938 46.6826171875 -147 c 0
 30.1318359375 -159 15.005859375 -169 0.455078125 -181 c 1
 -31.3662109375 -119 l 1
 -10.0283203125 -108 9.95703125 -100.58984375 25.2236328125 -88 c 0
 31.2861328125 -83 37.3056640625 -79.1650390625 43.4111328125 -73 c 0
 61.2373046875 -55 79.4013671875 -26 99.0439453125 57 c 1
 104.719726562 79 173.96484375 433 173.96484375 433 c 0
EndSplineSet
EndChar
StartChar: n.pcap
Encoding: 57360 57360 656
Width: 657
Flags: HW
HStem: -9 85<72.1765 112.48> 433 76<430.263 490.409 575.06 613.718>
VStem: 116 78<78.6504 330> 496 73<186 421.204> 500 80<1.5125 28.6626>
AnchorPoint: "Top" 407.535 537 basechar 0
AnchorPoint: "Bottom" 285.204 -15 basechar 0
LayerCount: 2
Back
SplineSet
579.918620706 421.127745178 m 1
 572.000331568 296.97230545 569.181640625 216.613662133 569.181640625 75.513671875 c 0
 569.181640625 56.1680791641 575.446327564 31.2600201755 579.814197018 15.3215483533 c 0
 581.68331444 13.5470420896 l 1
 502.611346181 -9.96157463694 l 1
 500.164912383 -7.9638671875 l 0
 487.112725017 28.01454064 464.611329053 52.7785300685 438.702413491 82.8820159909 c 1
 356.952663665 175.184827856 281.734546747 240.560718507 195.503443687 327.345916179 c 1
 195.171868692 271.659399223 194.066810865 121.155375795 192.051664261 108.960885973 c 1
 190.043307486 58.7647181768 189.785387564 88.3842780476 266.644400317 84.3547114719 c 0
 274.742907352 83.8010088213 l 1
 261.59462664 -5.02059372816 l 1
 253.590187231 -3.046875 l 0
 224.175932785 4.36618373944 195.430077798 7.048828125 170.455078125 7.048828125 c 0
 143.522691247 7.048828125 116.339887455 2.68407622976 81.102885274 -1.86328125 c 0
 73.6423298509 -2.81949650017 l 1
 61.7233176892 92.3916318224 l 1
 70.7052317499 91.8854131045 l 0
 86.7948662393 90.9016612699 99.1524974115 85.9915699712 104.789209045 83.1597044437 c 1
 109.376856355 172.065098996 109.622070312 252.506274868 109.622070312 344.438476562 c 0
 109.622070312 369.474092061 109.741824878 373.55711619 110.144512979 393.432910141 c 1
 110.208195589 395.742968957 110.241064193 398.265399456 109.953524523 400.852317901 c 0
 108.966765175 406.978884475 106.111190719 415.157378895 72.9194775555 412.746933277 c 0
 64.2748739949 411.766429445 l 1
 67.3034708638 498.417988852 l 1
 73.6590533059 499.200195312 l 2
 91.596216277 501.423294661 134.005428408 491.726324455 156.951288691 491.256513848 c 1
 177.837416348 491.000785055 190.934302561 478.365450619 194.079482992 474.848136968 c 1
 287.360766979 360.328701163 379.881544395 287.207826682 495.149113368 188.193676138 c 1
 495.174098052 242.129518458 497.06640625 264.118057028 497.06640625 331.869140625 c 0
 497.06640625 354.056371792 496.88932285 375.5796291 496.479610823 395.795891801 c 0
 495.117028343 439.805823117 489.770036727 409.664530898 428.514245336 418.488425271 c 0
 421.673842786 419.786090805 l 1
 431.460128085 505.874488859 l 1
 439.312833949 504.491210938 l 0
 484.855182502 496.386691578 524.286417716 493.264648438 565.091796875 493.264648438 c 0
 577.541075795 493.264648438 590.666821281 493.950025374 604.857044308 495.219726562 c 0
 611.954560211 495.845381617 l 1
 622.894914272 417.817597847 l 1
 615.62637948 416.659501744 l 0
 600.572610563 413.803957717 588.529784448 415.937865714 579.918620706 421.127745178 c 1
EndSplineSet
Fore
SplineSet
123.158203125 507 m 1xe8
 138.946289062 506 184.30859375 503 209.458007812 499 c 0
 225.7109375 496.415039062 234.694335938 486 237.056640625 483 c 0
 307.762695312 364 386.033203125 290 482.927734375 186 c 1
 495.46875 245 501.506835938 264 515.9609375 332 c 0
 520.637695312 354 526.313476562 376 528.564453125 396 c 0
 530.453125 419 513.303710938 423 462.4296875 433 c 1
 486.583984375 509 l 1
 522.8828125 501 556.245117188 498 590.245117188 498 c 3
 614.245117188 498 639.670898438 500 667.733398438 505 c 1
 660.00390625 431 l 1
 625.94140625 426 612.303710938 423 610.390625 414 c 0
 577.483398438 278 564.642578125 227 532.546875 76 c 0xf0
 527.658203125 53 527.85546875 21 528.030273438 3 c 1
 444.416015625 -14 l 1
 438.706054688 25 420.4453125 52 402.034179688 83 c 0
 338.65234375 180 282.555664062 236 211.536132812 330 c 1
 209.623046875 321 161.986328125 111 160.28515625 103 c 1
 152.909179688 73 163.696289062 72 227.845703125 68 c 1
 200.266601562 -10 l 1
 171.754882812 -3 142.392578125 0 117.392578125 0 c 3
 87.392578125 0 57.3291015625 -5 18.4794921875 -9 c 1
 26.546875 76 l 1
 64.9716796875 78 77.609375 81 78.4599609375 85 c 0
 99.7392578125 171 116.318359375 249 135.236328125 338 c 0
 140.549804688 363 142.400390625 367 146.651367188 387 c 1
 149.83984375 402 156.641601562 434 103.366210938 428 c 1
 123.158203125 507 l 1xe8
EndSplineSet
EndChar
StartChar: eogonek.pcap
Encoding: 57415 57415 1661
Width: 526
UnlinkRmOvrlpSave: 1
Flags: HMW
HStem: -266 60.1279<272.947 335.414> -6 23<49 73.9636> 189 24<157 297.415> 378 19<43 73.1367>
VStem: 85 72<38.1614 189 213 361.351> 190.562 69.21<-194.855 -87.4226> 319 23<134 169.751 236.136 260> 377 19<105.592 116.842>
AnchorPoint: "Top" 357.39 537 basechar 0
LayerCount: 2
Fore
SplineSet
154.950195312 502 m 1
 199.525390625 500 284.100585938 498 363.100585938 498 c 0
 425.100585938 498 483.3125 499 505.375976562 504 c 1
 525.1875 489 530.274414062 480 527.723632812 468 c 0
 524.110351562 451 502.858398438 431 493.506835938 387 c 1
 427.65625 383 l 1
 428.33203125 405 439.37109375 424 434.37109375 424 c 0
 400.583984375 425 354.583984375 425 315.583984375 425 c 0
 301.583984375 425 287.583984375 425 275.795898438 426 c 0
 273.795898438 426 272.37109375 424 271.946289062 422 c 0
 263.59375 378 253.965820312 328 244.038085938 286 c 1
 267.462890625 288 371.825195312 285 371.825195312 285 c 2
 379.400390625 283 378.526367188 293 390.264648438 320 c 1
 458.71484375 308 l 1
 445.975585938 281 437.086914062 258 431.772460938 233 c 0
 429.221679688 221 428.458984375 208 429.845703125 191 c 1
 359.01953125 173 l 1
 357.483398438 194 362.946289062 215 351.946289062 215 c 0
 333.946289062 215 249.946289062 215 226.946289062 215 c 1
 214.618164062 157 207.604492188 124 199.314453125 85 c 0
 198.676757812 82 201.676757812 82 201.676757812 82 c 1
 225.889648438 83 250.1015625 84 273.1015625 84 c 0
 300.1015625 84 326.314453125 85 348.314453125 85 c 0
 368.314453125 85 375.952148438 88 407.329101562 118 c 1
 460.352539062 104 l 1
 442.92578125 54.9658203125 418.435546875 15 382.208007812 0.1005859375 c 1
 318.358398438 -28.181640625 303.680664062 -54.4169921875 301.005859375 -67 c 0
 296.352539062 -88.892578125 306.91015625 -101.872070312 323.759765625 -101.872070312 c 0
 332.734375 -101.872070312 344.256835938 -98.3564453125 356.961914062 -90.599609375 c 1
 356.961914062 -90.599609375 371.90234375 -118.88671875 372.276367188 -141 c 1
 346.536132812 -166.004882812 309.78515625 -177 278.395507812 -177 c 0
 235.849609375 -177 204.2421875 -148.506835938 214.375 -100.834960938 c 0
 221.442382812 -67.5888671875 242.413085938 -30.9609375 280.064453125 0.8017578125 c 1
 261.1875 0.9189453125 242.291992188 1 223.459960938 1 c 0
 163.459960938 1 104.822265625 -2 54.6962890625 -12 c 1
 59.5751953125 58 l 1
 83.275390625 66 96.1259765625 70 98.1259765625 70 c 1
 104.077148438 98 120.294921875 179 139.424804688 269 c 0
 157.067382812 352 170.245117188 414 170.8828125 417 c 0
 171.946289062 422 172.795898438 426 135.37109375 424 c 1
 154.950195312 502 l 1
EndSplineSet
EndChar
StartChar: exclam.pcap
Encoding: 57473 57473 1744
Width: 291
Flags: HW
HStem: -29.3744 156.666<113.72 153.965>
VStem: 61.0348 146.152<26.7616 68.3718> 108 38<144 265.33>
LayerCount: 2
Fore
SplineSet
116.900390625 199.900390625 m 1xa0
 116.900390625 285.099609375 111.583007812 332.0390625 103.700195312 395.099609375 c 0
 98.900390625 433.5 72.5 452.700195312 74.900390625 493.5 c 1
 141.579101562 500.69921875 226.5625 536.698242188 233.099609375 498.299804688 c 1
 213.966796875 469.5 220.525390625 449.8046875 208.5 395.099609375 c 0
 195.666992188 313.5 173.5 286.299804688 173.5 198.700195312 c 1
 116.900390625 199.900390625 l 1xa0
EndSplineSet
Refer: 48 46 N 1 0 0 1 36.7093 0 2
EndChar
StartChar: sigma.pcap
Encoding: 57534 57534 1839
Width: 468
Flags: HW
HStem: -0.434544 32.4345<174.533 325.173> 375.725 25.65<182.202 331.994>
VStem: 357.612 20.8594<303.319 348.88> 396.331 19.6689<106.364 116.621>
AnchorPoint: "Bottom" 229 -15 basechar 0
AnchorPoint: "Top" 232 537 basechar 0
LayerCount: 2
Fore
SplineSet
68.953125 -5.4892578125 m 1
 63 16.05859375 l 1
 85.4136403116 28.15234375 103.75701195 49.5058947592 118.74609375 66.734375 c 0
 156.3046875 109.904296875 194.21484375 153.653320312 231.857421875 197.625 c 1
 194.8984375 243.841593889 153.657487653 299.406337208 115.751953125 342.708007812 c 0
 99.4812895936 361.294921875 82.427528623 379.5625 64.9296875 383.420898438 c 1
 67.90625 404.272460938 l 1
 111.492579752 402.173809562 163.220644241 401.375335797 212.124051748 401.375335797 c 0
 297.413684376 401.375335797 374.111600045 403.804041523 384.04296875 406 c 1
 390.714427895 397.2080716 393.220603968 392.904411471 393.220603968 386.992454559 c 0
 393.220603968 376.315884718 385.047019601 360.394053147 378.471679688 303.319335938 c 1
 357.612304688 300.591796875 l 1
 354.549845537 316.492667104 359.400969724 349.688844596 332 363 c 0
 312.004549444 372.71361789 285.297154946 375.725286498 257.556230254 375.725286498 c 0
 231.815923892 375.725286498 205.185784085 373.132344879 182.202148438 370.89453125 c 1
 219.393554688 325.806640625 256.264310261 280.641061523 293.58984375 235.630859375 c 0
 300.828125 226.90234375 310.985351562 216.051757812 320.736328125 211.4453125 c 1
 320.736328125 195.321289062 l 1
 310.895507812 190.807617188 302.766859679 183.28567976 297.495117188 176.89453125 c 0
 255.473742518 125.950304256 214.517412995 80.3966004207 173 32 c 1
 193.576310064 32 214.364359896 30 235 30 c 0
 259.565297415 30 292.148970877 31.676438115 335.037109375 52.3349609375 c 0
 360.3122649 64.5095946602 374.197569628 84.6193072606 396.331054688 119.861328125 c 1
 416 114.830078125 l 1
 405.654083613 68.6701457428 398.541133511 39.2963980778 390.782226562 -4.064453125 c 1
 318.134627953 -2.17858914227 251.985030644 -0.434544100505 195.072936201 -0.434544100505 c 0
 145.383658142 -0.434544100505 102.735971515 -1.76399999379 68.953125 -5.4892578125 c 1
EndSplineSet
EndChar
StartChar: uni1EFB.pcap
Encoding: 57666 57666 1928
Width: 793
Flags: HW
HStem: -5 28<67 97.0283> 1 35<188.091 284.692 365.529 526.311> 375 24.8701<190.685 279.315> 378 30<62.3 100.805 370.131 417.5>
VStem: 106 71<42.3933 371.507> 287 71<39.8145 373.088> 572 23<89.6116 110>
LayerCount: 2
Back
SplineSet
228 1 m 0x6e
 103 1 76 -5 67 -5 c 1
 64 23 l 1
 95 30 104 35 106 67 c 0
 106.318068098 72.0890895734 107.283979991 111.004134692 108 173 c 0
 109 259.583984375 105.063862461 341.94626939 105 343 c 0
 103 376 95 376 60 378 c 1
 63 408 l 1x9e
 109.135341575 396.927518022 174.6509962 399.870090566 232 399.870090566 c 3
 292.029594014 399.870090566 367.817475086 398.175507399 417 406 c 1
 419 380 l 1
 371 372 366.651741186 380.950516274 362 324 c 0
 359 287.271484375 358 114.571289062 358 105 c 1
 359 60 362 37 399 36 c 0
 404.097158218 35.8622389671 465.839971471 36.1192463596 469 36 c 0
 522 34 563 79 572 114 c 1
 595 110 l 1
 594 68 586 64 568 -19 c 1
 547 -9 545.054349196 -4.08207576815 519 -3 c 0
 470.843761845 -1 302.830847015 1 228 1 c 0x6e
237 375 m 3x6e
 189.115923446 375 188.056471535 374.749286681 181 324 c 0
 178.497039942 305.999015105 177 111.571289062 177 105 c 1
 178.048780488 60 189.463414634 37 220 36 c 0
 221.80505693 35.9408887108 241.006848177 36 242 36 c 1
 275.214285714 36.9318181818 285.714285715 42.25 287 67 c 0
 287.264527444 72.0921533001 288.283979991 111.004134692 289 173 c 0
 290 259.583984375 286.063862461 341.94626939 286 343 c 0
 284.00817386 373.182263445 275.173282622 375 237 375 c 3x6e
EndSplineSet
Fore
SplineSet
144.392578125 0 m 0
 99.392578125 0 54.5419921875 -4 12.0537109375 -11 c 1
 19.9326171875 59 l 1
 76.99609375 64 97.783203125 63 98.845703125 68 c 0
 113.599609375 128 129.265625 197 146.057617188 276 c 0
 159.44921875 339 167.013671875 384 173.453125 419 c 0
 175.154296875 427 172.154296875 427 105.279296875 437 c 1
 125.158203125 507 l 1
 162.670898438 500 203.245117188 498 244.245117188 498 c 2
 479.245117188 498 l 2
 512.245117188 498 550.8828125 501 581.37109375 508 c 1
 571.279296875 437 l 1
 509.00390625 431 505.303710938 423 505.090820312 422 c 0
 496.313476562 376 441.473632812 118 436.647460938 100 c 0
 432.333984375 75 432.05859375 69 437.05859375 69 c 0
 496.845703125 68 596.633789062 67 636.909179688 73 c 0
 645.333984375 75 654.7109375 105 674.637695312 147 c 1
 745.086914062 135 l 1
 735.034179688 83 720.971679688 78 684.62890625 -13 c 1
 665.69140625 -8 655.754882812 -3 621.966796875 -2 c 0
 505.940429688 -2 278.067382812 0 144.392578125 0 c 0
354.854492188 435 m 3
 301.844726562 435 292.737304688 428.977539062 289.87890625 421 c 0
 272.67578125 373 255.159179688 300 234.329101562 202 c 0
 224.763671875 157 214.860351562 101 209.12109375 74 c 0
 206.783203125 63 243.620117188 67 279.633789062 67 c 3
 302.655273438 67 325.845703125 68 325.633789062 67 c 1
 328.758789062 77 342.575195312 142 360.004882812 224 c 0
 383.173828125 333 397.815429688 416 399.579101562 429 c 0
 400.4296875 433 391.868164062 435 354.854492188 435 c 3
EndSplineSet
EndChar
StartChar: hairrule
Encoding: 58112 58112 1960
Width: 1000
Flags: HW
HStem: -28 56<0 1000>
LayerCount: 2
Fore
SplineSet
0 -28 m 1
 0 28 l 1
 1000 28 l 1
 1000 -28 l 1
 0 -28 l 1
EndSplineSet
EndChar
StartChar: Q.alt
Encoding: 58116 58116 670
Width: 779
Flags: HW
HStem: -176 81<766.33 987.372> -11 74<316.12 461.95> 623 69<284.528 486.455>
VStem: 40.9207 110<243.275 467.236> 638.921 106<227.209 457.836>
AnchorPoint: "Top" 486.658 699 basechar 0
AnchorPoint: "Bottom" 282.893 -15 basechar 0
AnchorPoint: "Middle" 413.33 364.853 basechar 0
LayerCount: 2
Fore
SplineSet
459.50390625 623 m 3
 328.998046875 623 207.359375 523.524414062 176.002929688 376 c 0
 129.239257812 155.998046875 250.434570312 63 369.47265625 63 c 3
 504.33203125 63 621.216796875 174.7109375 654.650390625 332 c 0
 695.2890625 523.189453125 597.358398438 623 459.50390625 623 c 3
506.8828125 32 m 1
 638.290039062 -31.9482421875 679.701171875 -95 809.888671875 -95 c 3
 874.841796875 -95 953.078125 -79.5712890625 981.83984375 -67 c 1
 993 -118 l 1
 962.192382812 -135.479492188 855.94140625 -176 774.670898438 -176 c 3
 607.78515625 -176 535.655273438 -92 361.743164062 -11 c 1
 97.0224609375 -11 20.2685546875 160.837890625 63.2392578125 363 c 0
 87.369140625 476.521484375 229.962890625 692 483.170898438 692 c 3
 676.26171875 692 806.741210938 548.842773438 765.326171875 354 c 0
 734.66796875 209.764648438 627.03515625 77.9013671875 506.8828125 32 c 1
EndSplineSet
Position2: "cpsp-1" dx=0 dy=0 dh=50 dv=111
EndChar
StartChar: R.alt
Encoding: 58117 58117 671
Width: 724
Flags: HW
HStem: -29 69<629.968 694> -13 20G<83.3636 104.5 282.5 303.333> 254 67<242 363.44> 606 69<72 138.093> 620 72<240.201 414.08>
VStem: 141 101<72.6695 258 324 603.222> 487 105<393.709 546.571>
AnchorPoint: "Top" 414.863 679 basechar 0
AnchorPoint: "Bottom" 286.35 -15 basechar 0
LayerCount: 2
Back
SplineSet
209 367 m 1x2e
 250 366 271 362 312 362 c 3
 458 362 487 456.725585938 487 509 c 3
 487 567.838867188 426 665 310 665 c 3
 279 665 215.9765625 658.001953125 212 615 c 0
 205 540.544921875 207 441.455284553 209 367 c 1x2e
43 693 m 1x76
 86 692 111 691 154 691 c 3
 223 691 252 707 331 707 c 3
 464 707 574 621.338867188 574 520 c 3
 574 428.146484375 502.275 363.265269207 424.5 339.094 c 1
 521.463 138.645 586.104 6.02474 708 4 c 1
 701 -33 l 1xae
 534.639 -38.0154 398.185 152.57 336.5 323.094 c 1
 311.343 319.094 257.75 324.219 209 327 c 1
 214 231 216.619682505 162.035873653 221 81 c 0
 223 44 248 39 303 34 c 1
 295 -10 l 1
 215 7 135 9 54 -7 c 1
 47 34 l 1
 100 36 115 38 119 69 c 1
 129 301 128 397 122 605 c 1
 117 642 106 654 43 656 c 1
 43 693 l 1x76
EndSplineSet
Fore
SplineSet
240.40625 324 m 1x2e
 266.193359375 323 294.768554688 321 322.768554688 321 c 3
 444.768554688 321 499.859375 392 517.926757812 477 c 0
 533.231445312 549 483.322265625 620 407.322265625 620 c 3
 351.322265625 620 296.834960938 613 296.43359375 597 c 0
 296.395507812 578 256.34765625 399 240.40625 324 c 1x2e
145.012695312 675 m 1x76
 187.80078125 674 213.587890625 673 251.587890625 673 c 1
 311.587890625 673 341.626953125 692 411.626953125 692 c 1
 541.626953125 692 650.984375 609 624.626953125 485 c 1
 603.583984375 386 524.91796875 317 447.966796875 289 c 1
 504.73046875 95 556.677734375 43 647.040039062 40 c 1
 617.373046875 -29 l 1xae
 478.223632812 -25 377.89453125 124 347.739257812 255 c 1
 335.52734375 254 326.52734375 254 315.52734375 254 c 1
 280.52734375 254 254.1640625 257 226.376953125 258 c 1
 213.986328125 195 201.4453125 136 189.541992188 80 c 0
 186.778320312 67 239.56640625 66 256.141601562 64 c 1
 226.561523438 -14 l 1
 193.6875 -4 157.537109375 0 120.537109375 0 c 3
 86.537109375 0 50.6875 -4 13.7744140625 -13 c 1
 16.1416015625 64 l 1
 47.56640625 66 80.1171875 78 80.69140625 76 c 1
 109.073242188 186 126.227539062 262 142.59375 339 c 0
 159.811523438 420 172.83984375 486 192.946289062 590 c 1
 194.133789062 605 181.921875 604 130.346679688 606 c 1
 145.012695312 675 l 1x76
EndSplineSet
Position2: "cpsp-1" dx=0 dy=0 dh=50 dv=111
EndChar
StartChar: f.alt
Encoding: 58119 58119 1189
Width: 385
VWidth: 1159
Flags: HW
HStem: -8 66<11 74.3841> 433 70<8 82 180 324> 670 79<209.611 306.992>
VStem: 82 98<304.981 437 499 626.838> 87 83<83.6085 434.677>
LayerCount: 2
Fore
SplineSet
62.94140625 458.790039062 m 1
 176.365608477 460.102136772 291.205774168 467.275914479 407.294921875 479.620117188 c 1
 399.831054688 412 l 1
 289.076277618 405.387394106 174.122026793 407.689565213 67.9541015625 391.33984375 c 1
 62.94140625 458.790039062 l 1
406.653320312 754 m 7
 426.062565739 754 467.700754113 745.370807812 480.26953125 738.069335938 c 5
 474.113138704 697.988076831 463.030314306 687.596982599 399.000976562 649 c 5
 382.636166898 658.7477484 365.362180432 675.5703125 348.54296875 675.5703125 c 7
 296.782865058 675.5703125 280.377899044 592.587150231 254.983398438 499.01953125 c 4
 227.723233708 398.577756616 158 37.0000000002 126.24609375 -53 c 0
 108.6052911 -102.99927335 81.1455078125 -138.104492188 51.017578125 -171 c 1
 37.2646484375 -170.169921875 38.6396484375 -169.33984375 -19.1240234375 -169.33984375 c 3
 -38.7216796875 -169.33984375 -68.5849609375 -173.068359375 -79.7841796875 -174 c 1
 -85.6015625 -112.360351562 l 1
 -39.3671875 -105.904296875 -10.5194166611 -93.5752666432 10.380859375 -60 c 0
 73.9606782696 42.1378554438 134 406 150.888671875 493.169921875 c 4
 176.645977188 626.114792169 203.965043598 675.971230381 265.84375 713.6796875 c 4
 302.778549985 736.1875 347.201211417 754 406.653320312 754 c 7
EndSplineSet
EndChar
StartChar: uniFB00.alt
Encoding: 58121 58121 1425
Width: 626
VWidth: 1159
Flags: HW
LayerCount: 2
Fore
SplineSet
705.653320312 754 m 3
 725.062565739 754 766.700754113 745.370807812 779.26953125 738.069335938 c 1
 773.113138704 697.988076831 762.030314306 687.596982599 698.000976562 649 c 1
 681.636166898 658.7477484 664.362180432 675.5703125 647.54296875 675.5703125 c 3
 595.782865058 675.5703125 579.377899043 592.587150231 553.983398438 499.01953125 c 1
 511 330 494.93880263 164.226914469 451 51 c 0
 425 -16 336 -99.0000000013 251 -114 c 0
 224.575484232 -118.663149841 190 -126 150 -128 c 0
 118.89403518 -129.555298241 80.19921875 -133.068359375 69 -134 c 1
 64 -82 l 1
 233 -56 271 -44.9999999999 307 0 c 0
 376.314153279 86.6426915984 403.000000001 254 449.888671875 493.169921875 c 1
 475.645977188 626.114792169 502.817528939 676.210145724 564.84375 713.6796875 c 0
 601.778549985 736.1875 646.201211417 754 705.653320312 754 c 3
62.94140625 440.790039062 m 1
 176.365234375 442.102539062 590.205774168 467.275914479 706.294921875 479.620117188 c 1
 698.831054688 412 l 1
 588.076277618 405.387394106 174.122070312 389.689453125 67.9541015625 373.33984375 c 1
 62.94140625 440.790039062 l 1
469.653320312 739 m 3
 508.23828125 739 591.013671875 713.459960938 616 691.849609375 c 1
 610.525390625 658.068359375 600.669921875 649.310546875 543.731445312 616.780273438 c 1
 500.859375 634.6796875 455.60546875 665.5703125 411.54296875 665.5703125 c 3
 319.950195312 665.5703125 292 595 254.983398438 499.01953125 c 0
 217.285514423 401.272562973 158 37.0000000002 126.24609375 -53 c 0
 108.6052911 -102.99927335 81.1455078125 -138.104492188 51.017578125 -171 c 1
 37.2646484375 -170.169921875 38.6396484375 -169.33984375 -19.1240234375 -169.33984375 c 3
 -38.7216796875 -169.33984375 -68.5849609375 -173.068359375 -79.7841796875 -174 c 1
 -85.6015625 -112.360351562 l 1
 -39.3671875 -105.904296875 -10.5194166611 -93.5752666432 10.380859375 -60 c 0
 73.9606782696 42.1378554438 133.501713066 406.098019514 150.888671875 493.169921875 c 0
 175.886179681 618.354583713 223.04897361 655.309292577 305.84375 698.6796875 c 0
 348.811523438 721.1875 400.490234375 739 469.653320312 739 c 3
EndSplineSet
EndChar
StartChar: uniE31E
Encoding: 58142 58142 2647
Width: 819
VWidth: 1159
Flags: W
HStem: -131 116<228.088 481.303> 395 13<643.635 707.537> 396 94<560.587 694.995 700 781.411> 543 20G<345.598 407.668>
VStem: -4.31055 71.3105<114.826 251.711> 463 71.8076<317.269 383.164> 665.41 71.4229<169.635 386.604>
LayerCount: 2
Fore
SplineSet
556 177 m 1xbe
 538.496408568 172.399240892 510.790656625 177.75 496 203 c 1
 481.457290334 228.290637753 463 268.621536633 463 350 c 3
 463 427.479064772 535.097811192 490 694.995117188 490 c 3xbe
 718.026367188 490 732.03125 489 755.80078125 489 c 3
 774.541852462 489 782.452148438 495.370771526 782.452148438 525.7421875 c 3
 782.452148438 538.411058272 777.426296237 553.368858872 767.798828125 571 c 1
 789.459465384 578.5 804.915534611 578.5 826.576171875 586 c 1
 853.814868278 552.461538461 864.997156787 522.596297831 860.46875 477 c 0
 853.309966432 404.918572021 810.628366248 395 700 395 c 3xde
 677.554164067 395 665.175521165 396 642.583007812 396 c 3
 601.182785088 396 534.807617188 383.447641538 534.807617188 374 c 3
 534.807617188 339.459262773 568.740821125 287.560119726 603 277 c 1
 607.655573386 238.374422217 577.842105263 184.031623129 556 177 c 1xbe
229 303 m 1
 156.859375 323.347826087 67 259.669555556 67 199 c 3
 67 53.7857142857 213.099009901 -15 367 -15 c 3
 542.932353062 -15 665.41015625 126.466435508 665.41015625 271.298828125 c 3
 665.41015625 317.521975105 657.75421439 363.757719367 642.323242188 410 c 1
 667.756650389 409.22 682.103701168 408.78 707.537109375 408 c 1xde
 727.15415966 358.292632383 736.833007812 308.960646354 736.833007812 260.008789062 c 3
 736.833007812 18.2857115977 560.315660974 -131 349.848632812 -131 c 3
 171.148347777 -131 -4.310546875 -13.4726774194 -4.310546875 174 c 3
 -4.310546875 309.128415841 121.728982438 412.528743629 285.923828125 419 c 1
 301.389648438 452.765625 332.1953125 508.680664062 359.000976562 563 c 1
 432.000976562 533 l 1
 340.57860479 359.643329327 255.26865233 190.356670673 170 17 c 1
 112 57 l 1
 158.117770287 153.935487238 203.704794607 246.223081167 229 303 c 1
EndSplineSet
EndChar
StartChar: uniE320
Encoding: 58144 58144 2650
Width: 480
VWidth: 1159
Flags: W
HStem: 327 68<99.5685 207> 428 20G<416.5 428.5>
LayerCount: 2
Fore
SplineSet
477 412 m 1
 473 392 479 379 472 354 c 1
 462 295 431 188 374 108 c 0
 338 58 289 9 247 -18 c 1
 242 -19 219 -23 215 -23 c 1
 197 9 62 119 207 327 c 1
 86 334 96 336 89 316 c 0
 85 310 80 294 122 287 c 1
 112 202 -15 244 71 347 c 1
 123 402 141 395 255 395 c 3
 273 395 298 393 305 391 c 1
 305 382 297 363 287 353 c 1
 281 349 264 341 264 341 c 0
 260 339 254 335 252 330 c 0
 252 329 243 318 241 314 c 0
 152 189 228 77 261 60 c 1
 340 77 423 209 419 317 c 0
 419 324 415 336 413 343 c 0
 408 358 398 368 375 379 c 1
 385 397 409 434 424 448 c 1
 433 446 443 441 449 437 c 1
 455 436 463 435 469 435 c 1
 471 430 475 417 477 412 c 1
EndSplineSet
EndChar
StartChar: f_j
Encoding: 58320 58320 718
Width: 579
VWidth: 1159
UnlinkRmOvrlpSave: 1
Flags: HW
LayerCount: 2
Fore
SplineSet
62.94140625 458.790039062 m 1
 176.365608477 460.102136772 291.206054688 469.276367188 407.294921875 488.620117188 c 1
 399.831054688 421 l 1
 289.076171875 414.387695312 174.122026793 403.689565213 67.9541015625 391.33984375 c 1
 62.94140625 458.790039062 l 1
490.28125 507 m 3
 532.276367188 507 538.748315641 482.315405964 535.791015625 448.813476562 c 0
 535.041992188 440.328125 530.740798468 426.690174754 528.30078125 419.720703125 c 0
 513.631212126 377.819709526 488 311 475.836914062 260.096679688 c 0
 463.567201643 208.747120486 451.740006925 151.476539809 445.751953125 117.938476562 c 0
 435.177575016 58.7131967566 418.947570024 1.51262162255 411.38671875 -18.9091796875 c 0
 387.30999789 -83.9402180915 350.241684349 -122.407305458 307.30078125 -144.815429688 c 0
 283.319949595 -157.329499399 243.424202966 -169.540725469 207.614257812 -174 c 1
 171.697265625 -136.099609375 l 1
 220.279963644 -102.642216356 257.367257487 -68.6798165477 286.564453125 -27.53515625 c 0
 303.513789519 -3.65016753884 330.446415644 47.2160277519 341.966796875 76.1474609375 c 0
 348.561833285 92.7097475009 367 161 381.006835938 215.28125 c 24
 400 289 416.475126416 333.068366546 426.831054688 405 c 0
 428.089843746 413.743470478 426.831054688 420.784475681 417.831054688 421.66015625 c 1
 415.0390625 421.66015625 380.880859375 420.0625 369.041015625 419.209960938 c 1
 338.361328125 477.796875 l 1
 393 486 441.946289062 507 490.28125 507 c 3
478.653320312 754 m 3
 517.23828125 754 600.013671875 728.459960938 625 706.849609375 c 1
 619.525390625 673.068359375 609.669921875 664.310546875 552.731445312 631.780273438 c 1
 509.859375 649.6796875 464.60546875 680.5703125 420.54296875 680.5703125 c 3
 328.950195312 680.5703125 292.927191509 599.584459508 254.983398438 499.01953125 c 0
 218 401 158 37.0000000002 126.24609375 -53 c 0
 108.6052911 -102.99927335 81.1455078125 -138.104492188 51.017578125 -171 c 1
 37.2646484375 -170.169921875 38.6396484375 -169.33984375 -19.1240234375 -169.33984375 c 3
 -38.7216796875 -169.33984375 -68.5849609375 -173.068359375 -79.7841796875 -174 c 1
 -85.6015625 -112.360351562 l 1
 -39.3671875 -105.904296875 -10.5194166611 -93.5752666432 10.380859375 -60 c 0
 73.9606782696 42.1378554438 134 406 150.888671875 493.169921875 c 0
 176.886179681 627.354583713 232.048608713 670.309101433 314.84375 713.6796875 c 0
 357.811523438 736.1875 409.490234375 754 478.653320312 754 c 3
EndSplineSet
Ligature2: "liga-1" f j
EndChar
StartChar: eight.smaller
Encoding: 58366 58366 2454
Width: 292
UnlinkRmOvrlpSave: 1
Flags: W
HStem: -3.125 55.8574<109.083 179.083> 234.414 49.6133<110.821 169.893>
VStem: 38.0244 69.9756<57.1739 107.159 184.88 232.746> 174 69.2256<172.244 231.034> 180 76<53.7087 104.703>
LayerCount: 2
Fore
SplineSet
186.333007812 234.4140625 m 3xf0
 172.360351562 234.4140625 155.629882812 219.376953125 152.361328125 204 c 0
 147.157226562 179.514648438 285.7734375 140.071289062 273.092773438 80.416015625 c 0xe8
 261.427734375 25.533203125 198.826171875 -3.125 133.814453125 -3.125 c 3
 83.6904296875 -3.125 41.9853515625 18.63671875 51.4990234375 63.392578125 c 0
 69.22265625 146.774414062 209.163085938 165.428710938 216.298828125 199 c 0
 219.453125 213.840820312 210.466796875 234.4140625 186.333007812 234.4140625 c 3xf0
204.865234375 284.02734375 m 3
 252.969726562 284.02734375 299.064453125 262.700195312 288.748046875 214.1640625 c 0xf0
 273.8671875 144.159179688 133.237304688 118.73046875 125.004882812 80 c 0
 121.86328125 65.2197265625 140.944335938 52.732421875 164.997070312 52.732421875 c 3
 185.3984375 52.732421875 194.014648438 65.9326171875 195.091796875 71 c 0
 198.853515625 88.6982421875 188.36328125 101.252929688 164.711914062 117.08984375 c 0
 124.959960938 143.70703125 78.892578125 159.365234375 88.5439453125 204.76953125 c 0
 99.0263671875 254.087890625 163.029296875 284.02734375 204.865234375 284.02734375 c 3
EndSplineSet
EndChar
StartChar: one.tabulartext
Encoding: 58369 58369 673
Width: 533
Flags: W
HStem: -0.65625 55.2236<77.5674 179.951 289.613 384.154> 442.641 56.4805<84.5244 181.304> 450.085 63.9658<285.492 385.812>
VStem: 193.17 83.4951<76.9698 431.253>
LayerCount: 2
Fore
SplineSet
228.616210938 499.12109375 m 1xd0
 244.938476562 498.19140625 264.736328125 497.76171875 286.393554688 497.76171875 c 0
 373.793945312 497.76171875 491.458984375 504.75390625 533.077148438 514.05078125 c 9
 519.653320312 450.084960938 l 1xb0
 417.611328125 448.317382812 411.12890625 430.859375 406.576171875 417.62890625 c 0
 394.825195312 378.358398438 380.266601562 308.629882812 366.2109375 242.504882812 c 0
 348.803710938 160.608398438 341.658203125 99.6611328125 343.623046875 76.615234375 c 0
 346.302734375 63.2626953125 373.6328125 57.376953125 437.776367188 55.734375 c 9
 422.014648438 -0.65625 l 1
 379.662109375 -0.369140625 332.80859375 -0.2109375 280.250976562 -0.2109375 c 0
 230.712890625 -0.2109375 176.107421875 -0.3515625 115.427734375 -0.65625 c 13
 119.620117188 54.5673828125 l 1
 159.956054688 56.1123046875 229.467773438 69.310546875 234.28515625 75.8779296875 c 0
 248.071289062 99.0400390625 258.852539062 130.235351562 282.715820312 242.504882812 c 0
 304.08203125 343.026367188 307.431640625 364.470703125 313.377929688 413.208984375 c 0
 314.9609375 432.486328125 298.71875 436.657226562 214.776367188 442.640625 c 9
 228.616210938 499.12109375 l 1xd0
EndSplineSet
Substitution2: "pnum-1" one
Substitution2: "lnum-1" one.tabularlining
Substitution2: "numr-1" one.numerator
Substitution2: "dnom-1" one.denom
EndChar
StartChar: five.tabularlining
Encoding: 58383 58383 687
Width: 533
Flags: W
HStem: -15.0996 21G<69 146.294> 550.284 88.7549<173.652 355.372>
VStem: 102.699 70.7256<450.691 550.22> 306.973 81.498<172.822 310.456>
LayerCount: 2
Fore
SplineSet
256.53125 639.0390625 m 1
 426.940429688 631.951171875 465.708984375 635.631835938 499.708984375 637.995117188 c 0
 531.53515625 640.466796875 565.930664062 688.040039062 579.985351562 710.239257812 c 1
 579.985351562 710.239257812 618.938476562 679.563476562 621.67578125 677.970703125 c 1
 580.098632812 623.739257812 533.025390625 550.75390625 512.530273438 550.86328125 c 0
 418.967773438 551.30078125 426.254882812 550.033203125 308.619140625 550.284179688 c 1
 308.619140625 550.284179688 290.194335938 461.940429688 286.748046875 448.461914062 c 1
 434.458984375 456.501953125 503.791992188 377.880859375 479.31640625 262.732421875 c 0
 447.467773438 112.897460938 240.637695312 2.9658203125 64.7900390625 -15.099609375 c 1
 64.7900390625 -15.099609375 78.3544921875 46.837890625 76.4072265625 50.5888671875 c 1
 152.672851562 57.9619140625 364.8984375 107.857421875 395.357421875 251.155273438 c 0
 403.435546875 289.162109375 393.202148438 375.798828125 193.567382812 367.197265625 c 1
 217.10546875 444.810546875 241.124023438 548.76171875 256.53125 639.0390625 c 1
EndSplineSet
Substitution2: "pnum-1" five.proportionallining
Substitution2: "onum-1" five.tabulartext
Substitution2: "numr-1" five.numerator
Substitution2: "dnom-1" five.denom
EndChar
StartChar: eight.tabularlining
Encoding: 58386 58386 690
Width: 533
UnlinkRmOvrlpSave: 1
Flags: W
HStem: -12.5264 66.5264<183.184 315.748> 596.136 64.7168<167.798 280.876>
VStem: 28.5742 90.4258<118.32 235.13> 65.2637 84.0918<463.903 577.618> 311.527 82.4727<455.699 565.992> 347 87.877<84.6847 218.086>
LayerCount: 2
Fore
SplineSet
380.046875 596.135742188 m 3xe8
 344.821289062 596.135742188 305.712890625 570.940429688 295.580078125 523.268554688 c 0
 265.576171875 382.115234375 546.854492188 362.149414062 506.83984375 173.89453125 c 0xd4
 488.514648438 87.681640625 415.61328125 -12.5263671875 258.3125 -12.5263671875 c 3
 141.774414062 -12.5263671875 76.2001953125 59.3984375 99.1845703125 167.532226562 c 0
 131.974609375 321.80078125 429.994140625 392.678710938 454.067382812 505.934570312 c 0
 466.908203125 566.348632812 429.157226562 596.135742188 380.046875 596.135742188 c 3xe8
396.665039062 660.852539062 m 3
 430.938476562 660.852539062 567.631835938 652.2109375 535.065429688 499 c 0
 504.795898438 356.592773438 222.879882812 324.056640625 192.685546875 182 c 0xe8
 184.709960938 144.479492188 201.952148438 54 301.478515625 54 c 3
 352.391601562 54 400.8125 88.5068359375 413.033203125 146 c 0
 425.666992188 205.435546875 407.037109375 231.752929688 373.264648438 260 c 0
 256.095703125 358 188.202148438 413.715820312 204.637695312 491.041015625 c 0
 230.909179688 614.638671875 342.028320312 660.852539062 396.665039062 660.852539062 c 3
EndSplineSet
Substitution2: "dnom-1" eight.denom
Substitution2: "numr-1" eight.numerator
Substitution2: "onum-1" eight.tabulartext
Substitution2: "pnum-1" eight.proportionallining
EndChar
StartChar: one.tabularliningalt
Encoding: 58418 58418 1420
Width: 533
Flags: W
HStem: -0.65625 55.2236<80.5674 181.157 290.608 383.154> 663 20G<236.963 290.259>
VStem: 194.17 83.4951<72.5856 509.068>
LayerCount: 2
Back
SplineSet
269 568 m 0xf0
 268 550.142081967 262 413.229655738 262 316 c 27xe8
 262 216.069755102 267 76.16836 269 58 c 0xf0
 278.257 31 321.457 29 377 27 c 9
 376 0 l 1
 324.292193075 3.33409040171 274.62277351 5.16733002019 224.850134471 5.16733002019 c 0
 177.923457823 5.16733002019 130.905028254 3.53774323424 82 0 c 9
 80 26 l 1
 130.178 30 172.753 32 191 62 c 0
 195 78.5656481328 201 120.898489627 201 316 c 3xe8
 201 411.238314137 200.122960603 471.434118917 199.086914062 509.799804688 c 0
 198.551916012 528.800804686 192.499938062 542.799804688 175.5 542.799804688 c 3
 164.929 542.799804688 119.119 525.656804686 101.5 522.799804688 c 1
 93.5 548.799804688 l 1
 152.881 568.991804688 221.397 620.387804687 270.5 682.799804688 c 1
 289.5 666.799804688 l 1
 280.038 640.199857272 270.21 588.924958634 269 568 c 0xf0
EndSplineSet
Fore
SplineSet
433.783203125 545.62890625 m 0
 419.744140625 495.594726562 401.123046875 406.75390625 383.215820312 322.504882812 c 0
 357.413085938 201.11328125 337.411132812 108.911132812 343.623046875 76.615234375 c 0
 346.19140625 63.2626953125 372.94140625 57.376953125 435.776367188 55.734375 c 1
 420.014648438 -0.65625 l 1
 376.9765625 1.5673828125 328.999023438 2.99609375 274.622070312 2.99609375 c 3
 227.375976562 2.99609375 175.296875 1.9169921875 117.427734375 -0.65625 c 1
 121.620117188 54.5673828125 l 1
 161.229492188 56.1123046875 230.920898438 68.7353515625 234.28515625 75.8779296875 c 0
 250.435546875 110.161132812 264.399414062 156.333007812 299.720703125 322.504882812 c 0
 320.5859375 420.670898438 327.541015625 442.015625 331.532226562 489.208984375 c 0
 332.375 499.170898438 329.974609375 509.327148438 313.260742188 509.327148438 c 3
 300.975585938 509.327148438 276.313476562 495.067382812 246.302734375 486 c 1
 231.568359375 539 l 1
 281.962890625 553.951171875 392.393554688 623.213867188 433.17578125 683 c 1
 480.4375 656 l 1
 455.879882812 620.721679688 446.34765625 590.40625 433.783203125 545.62890625 c 0
EndSplineSet
EndChar
StartChar: zero.small
Encoding: 58451 58451 2456
Width: 378
Flags: W
HStem: -2.31641 62.3486<163.538 264.14> 282.028 61.6758<188.668 289.985>
LayerCount: 2
Fore
SplineSet
238.775390625 282.028320312 m 3
 192.880859375 282.028320312 153.555664062 229.166015625 145.217773438 189.939453125 c 0
 130.370117188 120.086914062 154.7578125 60.0322265625 213.18359375 60.0322265625 c 3
 260.094726562 60.0322265625 296.931640625 109.762695312 306.775390625 156.076171875 c 0
 322.545898438 230.270507812 294.439453125 282.028320312 238.775390625 282.028320312 c 3
265.092773438 343.704101562 m 3
 356.461914062 343.704101562 401.396484375 260.4296875 382.280273438 170.495117188 c 0
 362 75.087890625 275.607421875 -2.31640625 188.114257812 -2.31640625 c 3
 96.6396484375 -2.31640625 44.5791015625 72.6220703125 65.625 171.634765625 c 0
 83.619140625 256.2890625 173.1015625 343.704101562 265.092773438 343.704101562 c 3
EndSplineSet
EndChar
